<svg xmlns="http://www.w3.org/2000/svg" aria-label="Aberystwyth University" role="img" width="300.304" height="61.4017" viewBox="0 300 61.3"><g fill="#fff"><path d="M80.7648 4.5254h2.96c1.0442.0 1.6083-.2976 1.6083-1.396.0-1.1381-.7616-1.422-1.4738-1.422h-3.0945v2.818zM78.9219.2594h5.404c2.149.0 2.85 1.3825 2.85 2.87.0 1.4083-.848 2.8438-2.8253 2.8438h-3.5858v3.5166h-1.8429V.2595z"/><path d="M94.7286 4.3961c1.0195.0 1.5725-.3234 1.5725-1.3577.0-.9566-.6023-1.3319-1.5725-1.3319h-3.181v2.6897h3.181zM89.706.2586h5.5509c2.2354.0 2.96 1.074 2.96 2.5082.0 1.2023-.6271 1.9528-1.4492 2.2243v.026c1.043.232 1.2775 1.1886 1.2775 2.4945.0.4395.0124 1.4739.3679 1.9787h-1.9898c-.1358-.2592-.221-.7246-.221-1.3973.0-1.3183-.1715-2.249-1.523-2.249h-3.1317v3.6463H89.706V.2587z"/><path d="M102.0908.262h1.8416v9.2304h-1.8416z"/><path d="M108.1026.2593h7.295V1.707h-5.4521V4.034h5.1583v1.4479h-5.1583v4.0079h-1.8429V.2593z"/><path d="M120.5931 5.9733 116.7617.2595h2.2466l2.5056 4.1103 2.5057-4.1103h2.2478l-3.8326 5.7138v3.5166h-1.8417V5.9733z"/><path d="M131.7072 6e-4c1.3516.0 4.0536.258 4.2857 2.934h-1.9885c-.0618-.711-.6752-1.4861-2.2108-1.4861-1.228.0-2.039.4012-2.039 1.2664.0 2.1724 6.5345.0914 6.5345 4.0338.0 2.3786-2.3465 2.9995-4.2128 2.9995-3.1562.0-4.4227-1.306-4.446-3.245h1.9897c.0482 1.2157 1.0072 1.7971 2.5168 1.7971 1.1183.0 2.1613-.3493 2.1613-1.3577.0-2.2885-6.4592-.2975-6.4592-4.0857.0-2.0552 1.7317-2.8563 3.8683-2.8563"/><path d="M148.5545 9.4896h-1.0813l-.258-1.2023c-.7122.9048-1.965 1.4602-3.3401 1.4602-3.7092.0-5.1583-2.2748-5.1583-4.8731S140.2523.0 143.8258.0c2.6661.0 4.372 1.4232 4.5683 3.2327h-1.9898c-.3309-1.254-1.4356-1.7849-2.6279-1.7849-2.2712.0-3.144 1.4615-3.144 3.4908.0 2.4563 1.4987 3.3611 3.0464 3.3611 1.8788.0 2.739-.9048 3.0329-2.4292h-2.481V4.4214h4.3238z"/><path d="M159.4845 4.8744c0-2.0292-1.1789-3.4265-3.2426-3.4265-2.0626.0-3.2427 1.3973-3.2427 3.4265s1.1801 3.4265 3.2427 3.4265c2.0638.0 3.2426-1.3973 3.2426-3.4265m-8.3997.0c0-2.5983 1.4491-4.8732 5.1571-4.8732 3.7091.0 5.1583 2.275 5.1583 4.8732.0 2.5983-1.4492 4.8732-5.1583 4.8732-3.708.0-5.1571-2.275-5.1571-4.8732"/><path d="M163.9308.2593h1.8416V7.964h5.3299v1.5257h-7.1715V.2593z"/><path d="M202.4495 51.7849h1.8428v5.2101c0 1.28.0482 2.8316 2.4428 2.8316 2.4081.0 2.4563-1.5516 2.4563-2.8316v-5.21h1.843v5.262c0 1.5256-.0494 4.2276-4.2993 4.2276-4.2363.0-4.2856-2.702-4.2856-4.2276v-5.262z"/><path d="M213.981 51.7849h2.112l5.22 6.9296h.0247v-6.9296h1.7688v9.2304h-2.0762l-5.2558-6.9296h-.0247v6.9296h-1.7687z"/><path d="M226.7023 51.787h1.8416v9.2305h-1.8416z"/><path d="M230.4725 51.7849h2.0626l2.8624 7.395 2.7994-7.395h1.9898l-3.856 9.2304h-1.9527l-3.9055-9.2304z"/><path d="M242.1148 51.7849h7.6147v1.4478h-5.773v2.328h5.5396v1.4467h-5.5397v2.56h5.8705v1.448h-7.7121v-9.2305z"/><path d="M258.0405 55.922c1.0197.0 1.5726-.3235 1.5726-1.3566.0-.9567-.6024-1.3331-1.5726-1.3331h-3.1808v2.6896h3.1808zm-5.0224-4.1376h5.5508c2.2354.0 2.96 1.0739 2.96 2.5095.0 1.2022-.627 1.9514-1.4492 2.223v.0259c1.043.232 1.2763 1.1887 1.2763 2.4946.0.4394.0136 1.475.3691 1.9774h-1.9897c-.1347-.2567-.221-.7233-.221-1.396.0-1.3183-.1715-2.249-1.5232-2.249h-3.1315v3.645h-1.8416v-9.2304z"/><path d="M268.231 51.527c1.3502.0 4.0523.258 4.2855 2.9341h-1.9885c-.0618-.711-.6764-1.4862-2.212-1.4862-1.2268.0-2.0378.4-2.0378 1.2665.0 2.1712 6.5333.09 6.5333 4.0338.0 2.3786-2.3453 2.9994-4.2128 2.9994-3.1561.0-4.4215-1.3059-4.4462-3.245h1.9911c.0481 1.2146 1.0071 1.7972 2.5169 1.7972 1.1183.0 2.1624-.3494 2.1624-1.3578.0-2.2884-6.4604-.2975-6.4604-4.0856.0-2.0553 1.7317-2.8563 3.8685-2.8563"/><path d="M275.7315 51.787h1.8416v9.2305h-1.8416z"/><path d="M282.99 53.2328h-3.2908v-1.4479h8.4244v1.4479h-3.2908v7.7825H282.99v-7.7825z"/><path d="M293.0971 57.4991l-3.8314-5.7138h2.2477l2.5044 4.1104 2.5058-4.1104h2.2478l-3.8327 5.7138v3.5167h-1.8416z"/><path d="M81.3481 29.2122c0 2.5575.0 9.1784.0396 9.6845.1165 1.5899.0177 1.9774 1.0644 2.4799.9292.427 2.2663.7628 2.8884.7628 2.2475.0 5.2987-.653 5.2987-4.8807.0-4.2276-2.6559-5.9258-3.7523-6.4493-1.0964-.5235-1.9523-.3998-2.767-.5566-.4276-.0766-2.0342-.0766-2.5773-.0766-.1165.0-.1946.0765-.1946.2334l1e-4-1.1975zm0-.6258c0 .2308.078.3099.232.348.1956.0409.717.1556 1.9948.1556 1.9008.0 2.6395-.079 3.3366-.854.7386-.8148 1.417-1.938 1.417-3.5304.0-2.5192-1.495-5.411-4.9087-5.411-.386.0-1.102.0372-1.644.1544-.3111.079-.4277.1543-.4277.3481v8.7894-1e-4zm-2.9485-.5376c0-5.12.0-6.0494-.076-7.0974-.0771-1.1257-.2736-1.7467-1.3964-1.902-.2715-.0396-.8532-.0754-1.1632-.0754-.1175.0-.2725-.079-.2725-.1938.0-.1938.155-.3716.543-.3716 1.5524.0 3.7643.079 3.9578.079.8127.0 2.3049-.079 3.8937-.079 5.7016.0 7.177 3.1995 7.177 4.9436.0 2.597-1.3135 4.4936-3.0564 6.0464 2.597.7763 5.6139 3.0705 5.6139 6.7944.0 3.6821-2.635 6.93-8.455 6.93-.6202.0-1.7627-.0395-2.848-.1148-1.0852-.042-2.0549-.079-2.209-.079-.079.0-.7.037-1.3992.037-.6971.042-1.5118.0777-2.054.0777-.3505.0-.544-.0777-.544-.2714.0-.116.079-.1938.2715-.1938.3101.0.7396-.1161 1.0478-.1556.6606-.1172.7356-.8529.8916-1.822.1936-1.3565.0774-3.554.0774-6.736v-5.8163z"/><path d="M99.5601 27.788c0-5.12.0-6.0495-.0777-7.0975-.0765-1.1257-.2703-1.6688-1.3948-1.8219-.2716-.0395-.8541-.079-1.1653-.079-.1147.0-.2703-.1542-.2703-.269.0-.1951.1556-.2729.5431-.2729 1.5504.0 3.761.0778 3.9561.0778.232.0 7.3678.037 8.1455.0.6579-.0383 1.2787-.1568 1.5516-.1963.1543-.0358.3086-.1543.464-.1543.1174.0.1543.1543.1543.3123.0.2333-.1912.6197-.2703 1.5504-.0395.311-.116 1.7824-.1937 2.1737-.0396.1506-.1543.348-.3111.348-.195.0-.2703-.158-.2703-.427.0-.2333-.0393-.7752-.1936-1.1653-.2335-.543-.584-.7727-2.444-1.006-.5815-.079-4.5387-.1185-4.9264-.1185-.1543.0-.1938.1186-.1938.3518v8.9564c0 .2333.0.348.1938.348.4272.0 4.9263.0 5.7015-.0752.8145-.079 1.3195-.1185 1.6689-.4666.232-.2333.3873-.427.5048-.427.116.0.1913.079.1913.2727.0.1938-.1913.7394-.2703 1.8232-.0777.6603-.1568 1.9008-.1568 2.1317.0.2715-.0752.6196-.3086.6196-.1567.0-.2332-.1148-.2332-.3086.0-.311.0-.6604-.1544-1.0862-.116-.4666-.427-.8542-1.7466-1.006-.9295-.1173-4.5756-.1568-5.157-.1568-.1938.0-.2334.1148-.2334.2333v2.7513c0 1.127-.0395 4.9658.0 5.6262.0765 2.207.6987 2.6365 4.0734 2.6365.8912.0 2.5193.0 3.4117-.3505.8925-.3876 1.359-.969 1.5516-2.286.0779-.3876.1555-.5048.3506-.5048.1925.0.232.2715.232.5048s-.2716 2.4798-.4666 3.1797c-.232.8529-.5801.8529-1.8997.8529-2.56.0-4.5374-.0778-5.9347-.1149-1.4355-.079-2.3267-.079-2.8303-.079-.0777.0-.7369.0-1.4739.037-.659.042-1.4342.079-1.9785.079-.3493.0-.5432-.079-.5432-.2727.0-.116.0779-.2703.2715-.2703.3099.0.737-.1172 1.048-.153.6604-.1185.737-.779.8912-1.7479.1939-1.3565.1939-3.9536.1939-7.137V27.788H99.56z"/><path d="M121.23 30.5375c0 .1938.0777.3123.232.427.5048.2729 2.2453.505 3.7573.505.8122.0 1.7417-.0384 2.554-.5815 1.1614-.774 2.0526-2.518 2.0526-5.0311.0-4.1067-2.2477-6.468-5.8865-6.468-1.0049.0-2.0898.1148-2.4367.1938-.1567.079-.2728.1938-.2728.3876v10.5672zm22.9056 12.5828h-5.9088c-1.9354.0-2.7884-.1938-3.6388-.6567-1.4713-.7751-2.7119-2.3612-4.6473-4.8373-1.433-1.7849-2.9414-3.9129-3.6783-4.8028-.153-.1543-.2308-.1938-.4642-.1938l-4.3362-.079c-.1543.0-.232.079-.232.2728v.7751c0 3.1723.0 5.7286.1555 7.0827.1172.969.3098 1.5886 1.354 1.7429.4654.0765 1.1999.1555 1.511.1555.232.0.2702.1543.2702.2716.0.1542-.1542.269-.5419.269-1.8589.0-4.0263-.1148-4.1819-.1148-.0383.0-2.3218.1148-3.366.1148-.3494.0-.5419-.0778-.5419-.269.0-.1173.0753-.2716.2703-.2716.3099.0.7345-.079 1.0467-.1555.6567-.1543.7345-.774.89-1.7429.1925-1.3541.1925-3.9487.1925-7.1222v-5.8076c0-5.1113.0-6.0408-.0778-7.085-.0765-1.1233-.2703-1.6652-1.3935-1.8195-.2715-.037-.853-.0752-1.1628-.0752-.1173.0-.2703-.158-.2703-.2728.0-.1938.153-.2692.543-.2692 1.548.0 3.8315.0754 4.0253.0754.3493.0 3.2142-.0754 4.2597-.0754 2.1675.0 4.5683.1926 6.3482 1.432.8517.617 2.3625 2.2044 2.3625 4.4904.0 2.4366-1.0084 4.7992-4.182 7.5085 2.7884 3.4845 5.1498 6.468 7.1246 8.517 1.8183 1.8588 2.9427 2.1687 3.792 2.286.6592.116 3.9128.1036 4.1079.1036"/><path d="M159.6062 42.7182c-.4665-.2296-.506-.3481-.506-1.238.0-1.6294.158-2.949.1974-3.4908.0-.3493.0752-.5456.2692-.5456.1937.0.3122.1185.3122.3876.0.2715.0.7381.1148 1.2048.5419 2.402 3.1031 3.2549 5.3928 3.2549 3.3735.0 5.1163-1.8984 5.1163-4.3807.0-2.365-1.2775-3.492-4.303-5.741l-1.5527-1.1626c-3.6833-2.7527-4.8867-4.772-4.8867-7.058.0-3.8783 3.0648-6.2075 7.564-6.2075 1.3566.0 2.7156.1938 3.5302.3875.6567.158.9295.158 1.2022.158.2716.0.3482.0396.3482.2334.0.1543-.1543 1.2405-.1543 3.4907.0.5023-.0395.7357-.2728.7357-.2333.0-.2728-.1568-.3086-.4271-.0395-.3876-.3123-1.28-.5061-1.6294-.2333-.3863-1.3566-1.628-4.4202-1.628-2.4822.0-4.5386 1.2417-4.5386 3.566.0 2.0959 1.0467 3.2981 4.4226 5.5866l.9665.6603c4.1511 2.8304 5.5866 5.12 5.5866 7.948.0 1.9416-.7356 4.0363-3.1796 5.6224-1.4356.9331-3.5685 1.1664-5.4286 1.1664-1.5899.0-3.5698-.2333-4.9658-.8936"/><path d="M232.142 18.7893c-.1147.0-.7751.0394-1.1628.1543-1.0083.3517-1.5527 1.6688-2.2105 3.4907-1.5134 4.1881-4.887 14.6614-6.2434 18.346-.8924 2.444-1.0863 2.8315-1.4738 2.8315-.3481.0-.6604-.427-1.1257-1.707l-6.6692-18.035c-1.1652 2.8711-5.7829 14.933-7.0209 17.998-.5813 1.396-.8147 1.744-1.2022 1.744-.3482.0-.621-.348-1.3195-2.5982l-6.0495-19.5483c-.5456-1.7441-.8912-2.17-1.7836-2.4823-.4666-.1543-.8036-.1937-1.0345-.1937-.153.0-.311-.1149-.311-.3086.0-.1543.2333-.2334.5419-.2334 1.7861.0 3.1685.079 3.5166.079.3123.0 1.8627-.079 3.5685-.079.4679.0.6222.079.6222.2334.0.1937-.1939.3086-.3506.3086-.2716.0-.8122.0-1.2022.1937-.2309.079-.4642.2728-.4642.7.0.427.2704 1.5898.6604 3.0635.5419 2.096 4.0326 14.195 4.4585 15.5515h.0802l7.1332-18.4213c.5024-1.3208.7394-1.5145.9307-1.5145.232.0.5049.427.9307 1.5527l6.6716 18.383h.1544c.8528-2.713 3.9176-12.257 5.12-16.4833.348-1.2417.3875-1.6293.3875-2.0527.0-.585-.2703-.9726-1.823-.9726-.1926.0-.3087-.1938-.3087-.3086.0-.1543.1543-.2334.5814-.2334 1.7441.0 3.1797.079 3.4908.079"/><path d="M232.4843 18.3259c.2295.0 1.6256-.079 2.9464-.079.3875.0.4628.079.4628.2332.0.1149-.2296.2334-.5418.3481-.2704.116-.427.2728-.427.5456.0.4629.2369.8505.4664 1.2775l6.204 10.276c.6997-1.3949 4.9656-8.4528 5.5865-9.5403.427-.7357.5814-1.2775.5814-1.7046.0-.4666-.1543-.7382-.5419-.8542-.3123-.079-.5061-.2332-.5061-.3875.0-.1148.1938-.1939.5443-.1939.8913.0 2.0935.079 2.3663.079.232.0 2.6736-.079 3.3327-.079.2333.0.427.079.427.1939.0.1543-.1542.348-.427.348-.3876.0-1.048.1185-1.5886.4271-.6578.3876-.9703.7357-1.7046 1.6294-1.127 1.317-5.9347 9.0736-6.6346 10.4708-.5813 1.1628-.427 2.2132-.427 3.297v2.8316c0 .5443.0 1.9391.1184 3.2968.0752.969.3086 1.5899 1.3159 1.7467.4678.0752 1.2417.1543 1.554.1543.1937.0.2702.1543.2702.2703.0.1568-.1937.2715-.5406.2715-1.9021.0-4.1117-.1147-4.3053-.1147-.1569.0-2.328.1147-3.3377.1147-.3863.0-.543-.0777-.543-.2715.0-.116.079-.2703.2714-.2703.3123.0.6999-.079 1.0084-.1543.7-.1568.9333-.7777 1.0086-1.7467.079-1.3577.079-2.7525.079-3.2968V34.613c0-1.7837-.2333-2.444-.738-3.3735-.2705-.5048-4.9202-7.8096-6.051-9.5797-1.734-2.7156-1.628-1.9774-2.2489-2.4045-.5024-.311-1.1627-.4666-1.4356-.4666"/><path d="M193.4316 18.323c0 1.0086-.1148 3.4525-.1148 3.8389.0.2728-.1567.427-.3122.427-.153.0-.2296-.1148-.2691-.5776l-.0395-.3518c-.1148-1.0085-.853-1.7442-4.1116-1.822l-2.7156-.0764v13.8431c0 3.1833.0 5.7804.1543 7.137.1185.969.2728 1.5898 1.3196 1.7478.4641.074 1.2417.153 1.5503.153.2334.0.2728.1544.2728.2704.0.1567-.1543.2728-.5443.2728-1.8602.0-4.0338-.1161-4.2277-.1161-.1543.0-2.518.116-3.5277.116-.3864.0-.542-.079-.542-.2727.0-.116.0767-.2296.2692-.2296.3098.0.6998-.079 1.0096-.158.6987-.1543.8937-.8147 1.0097-1.7837.1531-1.3565.1531-3.9536.1531-7.1369V19.7611l-3.3735.0765c-2.1341.0383-2.9488.2716-3.4511 1.0467-.3876.5814-.427.8147-.5431 1.048-.0777.2691-.195.3086-.3506.3086-.0765.0-.232-.079-.232-.2691.0-.3518.6986-3.376.738-3.6487l4.535.0025h9.7773l3.566-.0025z"/><path d="M297.0467 33.6046c0 3.1821.0395 5.7792.1938 7.137.1147.969.1938 1.5898 1.2418 1.7466.4665.0752 1.2416.1543 1.512.1543.2345.0.3097.1543.3097.2703.0.1567-.1925.2715-.58.2715-1.8628.0-4.034-.1148-4.2264-.1148-.1555.0-2.3688.1148-3.3735.1148-.3913.0-.5456-.0778-.5456-.2715.0-.116.079-.2703.2728-.2703.3086.0.6987-.079 1.0085-.1543.6962-.1568.8135-.8147.9294-1.7862.1568-1.3565.1568-3.84.1568-7.0184v-3.297c0-.1554-.079-.195-.1938-.195h-14.2344c-.1173.0-.1925.0396-.1925.195v3.297c0 3.1784.0 5.7002.1543 7.0579.1147.969.2332 1.5899 1.2417 1.7466.5024.0753 1.2393.1543 1.5504.1543.1937.0.2714.1543.2714.2704.0.1567-.1542.2715-.5442.2715-1.8985.0-4.0697-.1148-4.2264-.1148-.195.0-2.365.1148-3.413.1148-.3481.0-.5419-.0778-.5419-.2715.0-.116.0752-.2704.2691-.2704.3123.0.7394-.079 1.048-.1543.6603-.1567.7356-.7776.8936-1.7466.194-1.3577.194-3.9548.194-7.137v-5.8161c0-5.12.0-6.0495-.0804-7.0975-.0754-1.127-.2716-1.6689-1.3948-1.8231-.2703-.0395-.8542-.079-1.1628-.079-.1185.0-.2728-.1543-.2728-.2691.0-.1938.1543-.2728.5455-.2728 1.5505.0 3.7204.079 3.9155.079.1567.0 2.3279-.079 3.3758-.079.3877.0.542.079.542.2728.0.1148-.1543.269-.2702.269-.2358.0-.4667.0-.8566.079-.9295.1939-1.1233.6605-1.201 1.8232-.037 1.048-.037 2.0552-.037 7.1764v.6962c0 .1938.075.1938.1925.1938h14.2344c.1148.0.1937.0.1937-.1938v-.6962c0-5.1212-.042-6.1284-.079-7.1764-.0778-1.127-.232-1.6689-1.3552-1.8231-.2728-.0395-.8543-.079-1.1664-.079-.1543.0-.269-.1543-.269-.2691.0-.1938.1542-.2728.5416-.2728 1.5108.0 3.724.079 3.8796.079.1927.0 2.3638-.079 3.3721-.079.3879.0.5838.079.5838.2728.0.1148-.1567.269-.311.269-.2333.0-.427.0-.8542.079-.8923.1939-1.086.6605-1.1626 1.8232-.079 1.048-.079 1.9774-.079 7.0975v5.8162z"/><path d="M143.6535 42.5669s.49-.0037 1.1109-.079c.6208-.0778.9294-.7776 1.0084-1.7466.0779-1.3565.0779-2.7526.0779-3.297v-2.8315c0-1.7836-.2346-2.444-.7382-3.3734-.2716-.5049-4.8868-7.8332-6.0495-9.5797-.8147-1.2418-1.6293-1.9774-2.249-2.4045-.5049-.311-1.1627-.4654-1.4355-.4654-.1938.0-.3493-.1555-.3493-.3098s.116-.232.4258-.232c.6603.0 3.2203.0777 3.3746.0777.2334.0 1.6294-.0778 2.9477-.0778.3876.0.4653.0778.4653.2321.0.116-.2308.2333-.5443.348-.2703.1161-.4246.2729-.4246.5457.0.4629.2333.8504.4653 1.2775l6.205 10.2759c.7-1.3948 4.9633-8.4528 5.5854-9.5402.4271-.7357.5814-1.2776.5814-1.7046.0-.4654-.1543-.7382-.5406-.8542-.3123-.0778-.5061-.232-.5061-.3863.0-.116.1938-.1939.5418-.1939.8937.0 2.096.0778 2.3688.0778.2296.0 2.6723-.0778 3.3327-.0778.2332.0.427.0778.427.1939.0.1542-.1542.348-.427.348-.3876.0-1.0468.1173-1.5899.4271-.6603.3863-.9689.7357-1.7034 1.628-1.1269 1.3171-5.9359 9.075-6.6345 10.471-.5813 1.1628-.427 2.2131-.427 3.297v2.8314c0 .5444.0 1.9405.1147 3.297.079.969.3123 1.5899 1.3195 1.7466.4653.0753 1.2418.1543 1.5503.1543.1951.0.2728.1543.2728.2703.0.1567-.1925.2728-.5419.2728-1.9008.0-4.1115-.116-4.3053-.116-.1555.0-2.3897.0518-3.3995.0518"/><path d="M193.4401 18.323c0 1.0086-.1148 3.4525-.1148 3.8389.0.2728-.158.427-.3122.427-.1544.0-.2296-.1148-.2692-.5776l-.0395-.3518c-.116-1.0085-.8541-1.7442-4.1116-1.822l-2.7167-.0764v13.8431c0 3.1833.0 5.7804.1555 7.137.1173.969.2716 1.5898 1.3195 1.7478.463.074 1.2417.153 1.5504.153.2333.0.2716.1544.2716.2704.0.1567-.1531.2728-.5431.2728-1.8602.0-4.0339-.1161-4.2277-.1161-.1555.0-2.5193.116-3.5278.116-.3876.0-.5419-.079-.5419-.2727.0-.116.0765-.2296.2691-.2296.3098.0.7-.079 1.0085-.158.6986-.1543.8937-.8147 1.0097-1.7837.1543-1.3565.1543-3.9536.1543-7.1369V19.7611l-3.3747.0765c-2.1342.0383-2.9488.2716-3.4512 1.0467-.3876.5814-.4271.8147-.5419 1.048-.079.2691-.195.3086-.3505.3086-.0765.0-.2334-.079-.2334-.2691.0-.3518.6987-3.376.7382-3.6487l4.5362.0025h9.776l3.5672-.0025z"/><path d="M272.1588 18.323c0 1.0086-.1148 3.4525-.1148 3.8389.0.2728-.158.427-.3123.427s-.2295-.1148-.269-.5776l-.0397-.3518c-.1159-1.0085-.854-1.7442-4.1115-1.822l-2.7168-.0764v13.8431c0 3.1833.0 5.7804.1543 7.137.1186.969.2729 1.5898 1.3207 1.7478.463.074 1.2419.153 1.5492.153.2345.0.2728.1544.2728.2704.0.1567-.1542.2728-.543.2728-1.8603.0-4.0339-.1161-4.229-.1161-.1542.0-2.518.116-3.5265.116-.3876.0-.542-.079-.542-.2727.0-.116.0754-.2296.2692-.2296.3086.0.6986-.079 1.0085-.158.6986-.1543.8937-.8147 1.0096-1.7837.1543-1.3565.1543-3.9536.1543-7.1369V19.7611l-3.3734.0765c-2.1354.0383-2.95.2716-3.4524 1.0467-.3876.5814-.4271.8147-.5419 1.048-.079.2691-.195.3086-.3518.3086-.0764.0-.232-.079-.232-.2691.0-.3518.6986-3.376.7381-3.6487l4.5362.0025h9.7759l3.5673-.0025z"/><path d="M231.0247 19.4984l1.4714-1.1726s-.9122.0456-1.7195.0456c-.8072.0-1.5305-.0456-1.5305-.0456l.738 1.4466c.1444-.2086.268-.2937.4728-.348.1383-.0358.3913-.021.5678.074"/><path d="M64.904 28.6514h-8.385c-.1332.0-.2209-.0876-.1332-.3086l3.8634-11.8583c.221-.6566.442-.6566.6604.0l4.172 11.8583c.0445.1753.0445.3086-.1777.3086m4.366.5234L62.271 10.9534c-.5283-1.3627-.7023-1.5799-.9677-1.5799-.263.0-.437.2629-.9653 1.7133L50.371 38.3546c-.7912 2.1958-1.6689 3.8647-3.6907 4.13-.3493.0432-.9653.0852-1.2726.0852-.2185.0-.3938.0913-.3938.2641.0.263.2617.3543.832.3543 2.0638.0 4.4794-.1333 4.9632-.1333.4851.0 2.3712.1333 3.4265.1333.395.0.658-.0913.658-.3543.0-.1728-.1334-.264-.4382-.264h-.4395c-.748.0-1.67-.3939-1.67-1.2752.0-.7862.2197-1.8404.6134-2.9402l2.6366-7.775c.0889-.2185.221-.3481.4394-.3481h9.4403c.221.0.3098.0888.3974.2628l.063.1704c3.5697 9.555 7.2443 23.4265 28.881 26.4543l.1247.0112c-17.045-3.0847-21.459-17.6881-25.6718-27.9553"/><path d="M144.2512 50.0323c-19.6704.0-28.8515 6.7802-44.6448 7.374 22.5786-.4716 28.0183-4.5005 44.6448-4.5005 17.6586.0 46.2952 7.4875 46.2952 7.4875s-25.7211-10.361-46.2952-10.361"/></g><path fill="#fffbcd" d="M.327 14.1999c7.3394-7.0345 37.0919-7.0345 44.6436.0v17.3326c-2.0738 21.1924-22.1823 29.4933-22.3218 29.5402-.1408.0457-20.227-8.3182-22.3218-29.5797z"/><path fill="#952d2e" d="M13.015 14.3873c.5012-.2432.6234-.0617.6234-.0617s.0482.4307-.0605.4184c-.348-.0531-1.1133.0493-1.1133.0493s.0493-.1616.5504-.406m8.317 9.3056c.0914-.3493.0729-.8702-.1715-1.0899-.2444-.2246-1.3295-.5011-1.3295-.5011-.2604-.5938 1.422.0358 1.422.0358.0555-.9258-1.1442-1.1369-1.7774-.9196-1.4343 1.9354-3.408.1222-3.408-.5406-.1284-2.381-1.9256-3.613-2.539-3.8672-.6123-.253-1.0974-.5-1.0974-.5s.9097.3654 1.7022.137c.4863-.1418 1.5651.8913 1.7552 1.1085-.0112-.0765-.0654-1.2985-.016-1.3775-.3136-.1025-1.048.0296-1.3899-.1555-.11-.0495-.1716-.132-.1296-.2606.0.0 1.185.2148 1.6478.1284.495-.095.8554-.3321.7098-.6456-.0272.3654-.5222.5234-1.0418.4246-.521-.1025-1.1862-.4184-1.1862-.4184s.5196-.9356 1.2874-.3333c0-.4382.0679-.8566.1888-.9652.2913-.0988.6098-.2778.6098-.2778-.9036-.2888-1.8009.2913-2.0009.1654-.1999-.1247-.2036-.237-.5814-.237-.4863.0-2.1686.6987-2.1686.6987-1.654.095-2.1626-1.2159-2.1626-1.2159-.6493 2.2243 1.1873 2.1811 1.1873 2.1811-.6134.0888-1.1676 1.0356-1.1676 1.0356.485-.3036 1.1973-.2246 1.0739-.2049-.4703.0864-.727.9986-.6394.9072.29-.3135.7134-.3196.7134-.2875.0.3394-.4283 2.7538-.3074 3.0228.2556.574.853.969.8776 1.5726-1.9946 1.9775-4.5781-1.4763-1.8884-4.114-3.2735-4.6436-6.363-3.1834-7.337-3.2537.8283.6764 2.3428 3.5869-.121 4.7077 1.8837.4851 1.8985 3.1315 1.2443 4.0943 1.891-.1222 3.4525 1.4504 3.5993 2.202 1.169-.3394 3.0427-1.7477 4.2128-1.3848-.3085.0506-1.1849 1.4874-1.1849 1.4874-2.2774 3.8795-4.9497 3.909-5.241 3.2142-.1766-.5185.785-1.4146.3703-2.96.0.0.469-.142 1.1677.8925.0.0.2493-.4222.0444-.827-.974-1.9083-3.824-2.1527-4.0437-1.7442.7381.1086.8541.8307.8541 1.48-.0481.5085-.2233 1.4441-.074 1.6651.337-1.0714 1.3738-1.312 1.3738-1.312.0346 1.3774-1.9811 1.8168-1.617 3.846.0988.6271.4148 1.1122.922 1.448 1.2196.5073 2.4268.8196 4.4178-.1914.0.0-.2567.2704-.448 1.3973.0.0-.6395-.085-1.332.2864.9567.1098.837.0346 1.0036.3863.6394 1.3381-.205 1.4306.0382 1.8923.0.2444-.2209-.3888-.269-.1938-.4419.4543-1.8454.0975-1.9775.7505.1506-.0592 1.369-.448 2.075.4518-.2925 1.0392.8257 1.791.195 2.6834-.195.2444 1.0788-.7246 1.0788-.7246-.0481-.5777.0753-1.1306-.2407-1.6885l.3296.0234c.6233.5876 1.3887.795 1.2652 1.8096.4876-.2173.6616-.4913.685-.9987-.0948-.5072-.5615-.6418-.7813-.9788.2198-.1937.969-.1517 1.3393.5765.3149-.2395.1222-.7023.1705-1.0381-.3174-.7258-1.2664-.3888-1.8726-.653-1.1713-.1715-.1974-.6492-.4173-1.3973-.0728-1.1874 1.364-1.2293 1.9972-1.981-.3382-1.2603-.7454-1.68-.4073-2.1836-.0445.0864-.184.4333.1036.9467.3333.6011 1.5269.2012 1.5269.2012.1914.7888-1.0368 3.2673-.4148 3.3093.0062-1.1134 2.4577-1.622 3.797-1.9108l-.1593.4283c-.1481.4358.0.7444.2196 1.1295.116-1.001.1507-1.185.4704-1.4454.8036-1.0134 1.9774-1.3196 2.9759-2.1404.2679-.195.779-.2641.8258-.6295-.3407-.2172-.8258-.069-1.2405-.1185-.3888.1444-.6801.7258-1.0948.6258.4369-.5073.8763-.9911 1.4601-1.206-.1703-.458-.7072-.0728-.9491-.3653-.3666-.0926-.4395.4147-.5851.6554-.268.3395-.5604.9393-.9998.916.148-.4086.5134-.6987.7813-1.0345l.2185-.537c-1.7515-.4332-.8752 1.5714-1.68 2.2231-.4147.047-.8504.3642-1.2405.1691.147-.8665.4629-1.6638.4135-2.607-.4135-1.0392-1.8503-.2406-2.6303-.2406.901-1.0615 3.187-2.2218 3.714-4.625-.9812-.3235-1.2948-.7518-1.659-1.4035.948 1.301 2.0553 1.1664 3.028 1.4824.0.0-1.053.3333-1.127.7987 1.3466-.706 1.4319-.168 2.186-.3173.8468-.1617 1.3294.5147 1.6479 1.3554.0518-.0433.0926-.3136.1308-.7592-.2049-.7443-.6185-1.001-.6185-1.001.563-.3173 1.074.3283 1.7071.8097m-5.5323-4.7337c.237.3963.3247.5444.384 1.2109.0.0 1.5145-1.5861 2.491-3.9203l.337-.0518c1.1034.5542 1.497-.1716 1.497-.1716-1.106.5048-1.4219-.6665-1.3094-.89.2431-.8739.4505-1.7639 2.0588-1.4615-.0567-.6356-.4122-.6319-.938-.6319-.4285-.0234-.8998.3-1.2331.7023l.0555-.6702c.2939-.263.9097-.4012 1.0824-.7122-.538-.1975-.8443.0605-1.38.2283-.6912.2506-.5666.6863-.8355 1.0023.0.0-.2505-.574.4185-1.0443.0.0-.6136-.3468-.974.3815-.5616 1.075.1196 1.517.2666 2.3366-.2715.848-.6222 1.1936-1.9207 3.6919"/><path fill="#952d2e" d="M31.7359 14.7471c-.1086.0136-.0592-.4184-.0592-.4184s.1222-.1815.6232.0617c.5012.2444.5506.406.5506.406s-.7652-.1024-1.1146-.0493m7.3197 10.6277c-.2062.4048.0432.8283.0432.8283.6998-1.0356 1.1688-.8937 1.1688-.8937-.4159 1.5454.5468 2.4415.3703 2.96-.2925.696-2.9648.6653-5.2422-3.2143.0.0-.8764-1.438-1.1837-1.4874 1.1701-.3629 3.0427 1.0455 4.2128 1.385.1469-.7517 1.707-2.3243 3.5994-2.202-.6555-.963-.6395-3.6093 1.2441-4.0931-2.4637-1.1221-.9504-4.0327-.121-4.7078-.975.069-4.0634-1.3911-7.3368 3.2525 2.6883 2.6377.1061 6.0914-1.8886 4.1152.0234-.6036.6222-.9986.8764-1.5738.1222-.269-.3074-2.6834-.3074-3.0228.0-.0321.4246-.026.7135.2875.0889.0926-.1679-.8208-.6394-.9072-.1222-.0185.5887-.0975 1.0738.205.0.0-.553-.9456-1.1664-1.0357.0.0 1.8354.0432 1.1862-2.1811.0.0-.5073 1.3109-2.1625 1.2159.0.0-1.6812-.6987-2.1676-.6987-.3777.0-.3826.1123-.5814.237-.2011.1259-1.0973-.4542-2.0008-.1654.0.0.3184.179.6098.2777.1197.1087.1876.5283.1876.9653.769-.6024 1.2886.3333 1.2886.3333s-.6653.316-1.1862.4184c-.5197.1-1.0158-.058-1.0417-.4246-.1458.3135.2148.5505.7085.6456.4641.0864 1.649-.1284 1.649-.1284.0408.1284-.021.211-.1296.2616-.3418.184-1.0776.0519-1.391.1543.0506.079-.0038 1.3023-.0161 1.3776.1913-.2173 1.2689-1.2492 1.7565-1.1073.7924.2272 1.7021-.1382 1.7021-.1382s-.4851.2469-1.0986.5c-.6122.2542-2.4107 1.4873-2.5378 3.8671.0.663-1.975 2.476-3.408.5408-.6332-.2174-1.833-.0062-1.7787.9196.0.0 1.6837-.6295 1.422-.0358.0.0-1.085.2765-1.3282.5011-.2444.2197-.2629.7406-.1716 1.09.6333-.4815 1.1443-1.127 1.706-.8098.0.0-.4123.2567-.6185 1.0023.0383.4443.0802.7134.132.7579.3173-.8406.8012-1.5158 1.648-1.3553.7529.1493.838-.3889 2.186.3172-.074-.4654-1.1283-.7987-1.1283-.7987.9727-.316 2.0812-.1814 3.0292-1.4824-.3654.6518-.6777 1.0813-1.659 1.4035.527 2.4032 2.8118 3.5635 3.7141 4.625-.78.0-2.2169-.7974-2.6316.2407-.0481.943.2679 1.7416.4147 2.607-.3912.195-.8257-.121-1.2405-.168-.8048-.6529.0717-2.6575-1.6812-2.2242l.2199.537c.2677.3357.6332.627.78 1.0343-.4394.0235-.732-.5764-.9998-.9159-.1445-.2407-.2172-.748-.585-.6554-.2408.2925-.7778-.0926-.9493.3654.585.2148 1.0246.6986 1.4602 1.206-.4134.0999-.7048-.4802-1.0936-.626-.4147.0495-.8998-.0986-1.2405.1186.047.3666.558.4357.8258.6295.9973.8221 2.1711 1.1282 2.976 2.1404.3185.2604.353.4443.4702 1.4466.2185-.3863.3667-.695.2198-1.1307l-.1605-.4283c1.3392.29 3.7907.7962 3.7968 1.9108.6221-.042-.6048-2.5205-.4135-3.3092.0.0 1.1924.3999 1.527-.2.2875-.5147.1468-.8616.1036-.948.3382.5036-.0704.9233-.4073 2.1836.6332.7517 2.0687.7949 1.9971 1.981-.2196.748.7542 1.2258-.4172 1.3986-.6073.2629-1.5565-.0728-1.8724.6517.048.337-.1458.7987.1703 1.0381.3702-.7282 1.1195-.7702 1.338-.5764-.2185.337-.6864.4715-.7814.9788.0235.5073.1988.7813.6863.9986-.1234-1.0147.6419-1.222 1.2652-1.8083l.3295-.0235c-.3159.5567-.1924 1.1097-.2406 1.6874.0.0 1.2727.9688 1.0776.7257-.6296-.8937.4888-1.6455.195-2.6834.7073-.901 1.9256-.5123 2.0761-.453-.132-.6518-1.5354-.2962-1.9786-.7505-.048-.195-.269.4382-.269.1938.2431-.4616-.5999-.553.0394-1.8922.1666-.3518.0468-.2765 1.0023-.3852-.6925-.3727-1.3319-.2863-1.3319-.2863-.1914-1.1282-.447-1.3985-.447-1.3985 1.99 1.0122 3.1972.6987 4.4178.1913.5073-.3357.8233-.8208.9222-1.4466.363-2.0305-1.6528-2.47-1.6171-3.8475.0.0 1.0355.2408 1.3726 1.3121.1494-.221-.026-1.1566-.0728-1.665.0-.6493.116-1.3702.8542-1.48-.2197-.4086-3.0698-.1642-4.0436 1.744M26.116 15.14c.1123.2234-.2037 1.3947-1.3098.8899.0.0.3925.7245 1.4972.1703l.3357.0543c.9777 2.333 2.4922 3.919 2.4922 3.919.058-.6665.1468-.8146.3839-1.2096-1.2986-2.4995-1.6503-2.8451-1.9206-3.6931.1456-.8196.8282-1.2616.2666-2.3366-.3617-.7283-.9739-.3815-.9739-.3815.669.4704.4184 1.0443.4184 1.0443-.2703-.316-.1456-.7517-.8356-1.0023-.5358-.1679-.8418-.4246-1.3813-.2284.1728.3111.79.4494 1.0826.7123l.0568.6702c-.3333-.4024-.8049-.7257-1.2343-.7023-.5248.0-.8802-.0037-.937.632 1.6084-.3025 1.8158.5875 2.059 1.4614"/><path fill="#77c14f" d="M22.6865 28.368l18.7508 15.233c-6.321 12.0742-18.6558 17.4535-18.7644 17.4905-.1087.0358-12.4298-5.073-18.7916-17.488L22.6864 28.368z"/><path fill="#fff" d="M21.2603 50.59c1.3565.7716 1.8428.316 2.6254.0075 1.0925-.4271 9.9796-.2333 9.9796-.2333L30.192 39.0947l-1.322-.9344s-2.3983-1.3985-4.2376-1.3985c-1.8403.0-2.0514 1.1504-2.0514 1.1504s-.2111-1.1504-2.0502-1.1504c-1.8417.0-4.261 1.3874-4.261 1.3874l-1.2947.9726-3.6981 11.2103s9.9636.2457 9.9833.258"/><path fill="#373535" d="M24.0453 50.828c.0296-.0235 10.071-.2815 10.1019-.2815.0-.0593-.5802-.3284-.5802-.3247-4.4658.0-8.4392-1.2935-9.6574.1185-.0297.0-1.3282-.5294-1.3282-.5294s-1.2689.5209-1.301.5209c-1.2146-1.4072-5.1879-.1137-9.6562-.1137.0-.0123-.5777.2618-.5777.321.0272.0 10.1154.248 10.1463.2765.7233.6443 2.1255.6604 2.8525.0123"/><g fill="none" stroke="#373535"><path d="M.327 14.1999c7.3394-7.0345 37.0918-7.0345 44.6436.0v17.3326c-2.0738 21.1924-22.1823 29.4933-22.3218 29.5402-.1408.0457-20.227-8.3182-22.3218-29.5797z" stroke-width=".654"/><path d="M.327 14.1999c7.3394-7.0345 37.0918-7.0345 44.6436.0v17.3326c-2.0738 21.1924-22.1823 29.4933-22.3218 29.5402-.1408.0457-20.227-8.3182-22.3218-29.5797z" stroke-width=".654"/><path d="M22.6864 28.368l18.7509 15.233c-6.321 12.0742-18.6558 17.4535-18.7644 17.4905-.1087.0358-12.4298-5.073-18.7916-17.488L22.6864 28.368z" stroke-width=".607"/><path d="M21.2603 50.59c1.3565.7716 1.8428.316 2.6254.0075 1.0925-.4271 9.9796-.2333 9.9796-.2333L30.192 39.0947l-1.322-.9344s-2.3983-1.3985-4.2376-1.3985c-1.8403.0-2.0514 1.1504-2.0514 1.1504s-.2111-1.1504-2.0502-1.1504c-1.8417.0-4.261 1.3874-4.261 1.3874l-1.2947.9726-3.6982 11.2103s9.9637.2457 9.9834.258z" stroke-width=".241"/><path d="M16.2696 38.149s-2.402 10.3846-2.4403 10.3648c-.3457.6308-2.5514 1.7787-2.5514 1.7787" stroke-width=".181"/><path d="M22.5578 37.6147v11.809" stroke-width=".361"/><path d="M28.9266 38.2835s2.3687 10.1907 2.4045 10.1673c.4962.79 2.5563 1.7836 2.5563 1.7836m-2.5563-1.7565s-8.481-1.8675-8.7477 1.3961l-.0025.0679c-.2703-3.2685-8.7515-1.401-8.7515-1.401" stroke-width=".181"/><path d="M.327 14.2024c7.3394-7.0344 37.0918-7.0344 44.6436.0V31.535c-2.0738 21.1924-22.1823 29.4933-22.3218 29.5402C22.508 61.121 2.4218 52.757.327 31.4955zm3.5549 29.4032L22.687 28.3702l18.7509 15.233" stroke-width=".654"/></g><g fill="#9ea0a3"><path d="M18.1831 47.066c-1.3022.0062-1.8897.158-3.3784.4666.0248-.0284 1.0246-4.6756 1.0246-4.6473.7665-.279 1.7688-.4801 2.8007-.3616.0.0-.4752 4.53-.4469 4.5423"/><path d="M21.64 45.1025c-.5184-.3074-1.9366-.4728-2.7612-.2012.0037.0.6134-7.2826.6134-7.2555.448-.0864 1.7096-.2777 2.2922.3049l-.1444 7.1518z"/><path d="M18.665 42.2742c-1.249-.1259-1.9119.0975-2.7562.3148.0284-.0247.795-4.0104.795-3.982.6986-.3802 1.4552-.6555 2.3884-.885.0.0-.3987 4.5522-.4271 4.5522"/><path d="M21.6312 47.4923c-.7616-.295-1.7466-.4592-2.9488-.4592-.0013-.0025.185-1.8935.185-1.9022.8-.3357 2.3885-.0752 2.765.2062.0.0-.0037 2.1515-.0012 2.1552"/><path d="M26.533 43.8565c.6331-.1098 2.323.0198 3.0154.3888-.0284-.027-1.1874-5.5471-1.1874-5.5187-.7987-.4517-1.5146-.7715-2.4465-1.0047.0.0.59 6.1346.6184 6.1346"/><path d="M23.3893 39.7953c.2764-.2765 1.533-.4617 2.3206-.2135-.0025.0-.1555-1.9269-.1618-1.9356-.4493-.0863-1.6391-.2542-2.1588.2655.0.0.0074 1.8873.0 1.8836"/><path d="M23.4277 47.5045c1.0775-.5456 1.886-.4308 2.9365-.4443-.0247-.0272-.6678-7.2974-.6678-7.269-.543-.1815-1.6293-.2568-2.2885.2011.0.0.0482 7.5246.0198 7.5122"/><path d="M26.857 47.0604c.8406.0 1.8293.1062 3.3513.3654-.0272-.0284-.6259-2.9513-.6259-2.9242-.6357-.3666-2.6501-.5172-3.0142-.406.0.0.2617 2.9648.2888 2.9648"/></g></svg>