<svg xmlns="http://www.w3.org/2000/svg" aria-label="Outline of a person performing a crashdive filled with binary code" role="img" viewBox="0 0 77.966888 79.366653"><defs><clipPath id="clip"><path d="m73.771904 127.61796c1.483253 1.17496 3.02036 3.31994 3.669962 5.12129.246983.68495.639611 1.43455.872449 1.6658.232839.23125 1.082808 1.83479 1.888812 3.56343 1.167093 2.50306 2.214359 5.4768 5.143778 14.60582 3.549068 11.06009 4.756136 14.418 5.328935 14.82451 1.663285 2.4261 3.898197 4.5 5.375134 7.24607.209655.14061.783961.98227 1.355741 1.71642.571785.73415 1.883481 2.12803 2.914885 3.09752 1.03141.96947 2.56314 2.49196 3.40385 3.3833 1.05531 1.11887 1.95177 1.78907 2.89548 2.16471.7518.29925 2.62573 1.21258 4.16426 2.02963 2.22539 1.18178 3.26636 1.55299 5.09113 1.81547.88711.37873 2.51265.30622 3.18986.48481.36725.10275.36315.24558-.024.83734-.25677.3924-.61341.9397-.79255 1.21622-.39705.61284-.0632 1.77155.74194 2.57524.32833.32773.80267 1.00843 1.05409 1.51262.37656.75518.6261.93152 1.41586 1.00057.93242-.0928 1.06913.27579 1.40026.85166.24284.4223.85767 1.08447 1.28498 1.40647 2.86672 1.32559 8.82613.47954 8.79393-3.5276 4.10386 3.12324 9.85792 4.41752 13.31677 7.51399.86898.91221.98634 1.20798 1.79891 1.4075.51973-.5736-.68761-.71001-.33541-1.30755.98058-.2943 2.34212 1.04487 2.82783.0138.13902-.30553.1644-.83269.0564-1.17146-.20234-.63478-2.14347-2.06574-2.60337-1.91915-5.15502-1.52779-9.49671-5.4281-13.2181-9.21687-1.7575-5.5508-6.30353-4.0425-8.68603-6.59651-1.26223-1.30804-2.64385-2.58354-3.07026-2.83443-1.17301-.69017-3.47092-2.2202-4.6446-3.09251-.57527-.42758-3.2417-1.88948-5.92541-3.24869-2.6837-1.35922-5.19666-2.79272-5.58433-3.18556-.79172-.80226-1.47594-3.15836-1.39965-4.81969.10022-2.18284-2.16337-5.57184-4.89533-7.32919-.731638-.47063-1.356967-.9395-1.389613-1.04192-.03265-.10242-.516154-.70038-1.074473-1.32879-.558311-.62842-1.246616-1.44368-1.529566-1.8117-.571318-.74308-3.009375-5.58739-5.058474-10.05097-1.230708-2.68088-3.266467-5.9107-6.483668-10.28663l-1.072564-1.45887c1.848577-1.94065.653751-3.77912-1.344799-4.10762-1.207193.0898-4.524847-2.50445-4.970103-3.50391-.386299-.8981-1.227965-1.01619-2.989574-.4195-1.952671.66141-2.168677 1.19459-.893285 2.20491z" transform="translate(-72.841567,-124.91138)"/></clipPath></defs><path fill="none" stroke="#8b0000" stroke-width=".5" d="m73.771904 127.61796c1.483253 1.17496 3.02036 3.31994 3.669962 5.12129.246983.68495.639611 1.43455.872449 1.6658.232839.23125 1.082808 1.83479 1.888812 3.56343 1.167093 2.50306 2.214359 5.4768 5.143778 14.60582 3.549068 11.06009 4.756136 14.418 5.328935 14.82451 1.663285 2.4261 3.898197 4.5 5.375134 7.24607.209655.14061.783961.98227 1.355741 1.71642.571785.73415 1.883481 2.12803 2.914885 3.09752 1.03141.96947 2.56314 2.49196 3.40385 3.3833 1.05531 1.11887 1.95177 1.78907 2.89548 2.16471.7518.29925 2.62573 1.21258 4.16426 2.02963 2.22539 1.18178 3.26636 1.55299 5.09113 1.81547.88711.37873 2.51265.30622 3.18986.48481.36725.10275.36315.24558-.024.83734-.25677.3924-.61341.9397-.79255 1.21622-.39705.61284-.0632 1.77155.74194 2.57524.32833.32773.80267 1.00843 1.05409 1.51262.37656.75518.6261.93152 1.41586 1.00057.93242-.0928 1.06913.27579 1.40026.85166.24284.4223.85767 1.08447 1.28498 1.40647 2.86672 1.32559 8.82613.47954 8.79393-3.5276 4.10386 3.12324 9.85792 4.41752 13.31677 7.51399.86898.91221.98634 1.20798 1.79891 1.4075.51973-.5736-.68761-.71001-.33541-1.30755.98058-.2943 2.34212 1.04487 2.82783.0138.13902-.30553.1644-.83269.0564-1.17146-.20234-.63478-2.14347-2.06574-2.60337-1.91915-5.15502-1.52779-9.49671-5.4281-13.2181-9.21687-1.7575-5.5508-6.30353-4.0425-8.68603-6.59651-1.26223-1.30804-2.64385-2.58354-3.07026-2.83443-1.17301-.69017-3.47092-2.2202-4.6446-3.09251-.57527-.42758-3.2417-1.88948-5.92541-3.24869-2.6837-1.35922-5.19666-2.79272-5.58433-3.18556-.79172-.80226-1.47594-3.15836-1.39965-4.81969.10022-2.18284-2.16337-5.57184-4.89533-7.32919-.731638-.47063-1.356967-.9395-1.389613-1.04192-.03265-.10242-.516154-.70038-1.074473-1.32879-.558311-.62842-1.246616-1.44368-1.529566-1.8117-.571318-.74308-3.009375-5.58739-5.058474-10.05097-1.230708-2.68088-3.266467-5.9107-6.483668-10.28663l-1.072564-1.45887c1.848577-1.94065.653751-3.77912-1.344799-4.10762-1.207193.0898-4.524847-2.50445-4.970103-3.50391-.386299-.8981-1.227965-1.01619-2.989574-.4195-1.952671.66141-2.168677 1.19459-.893285 2.20491z" transform="translate(-72.841567,-124.91138)"/><g transform="translate(0.00282858,-0.06569982)" clip-path="url(#clip)"><text fill="#8b0000" font-family="Consolas, Menlo, Monaco, Courier New, monospace, serif" font-size="2.11666656" line-height=".5em" letter-spacing="0" word-spacing="0" x=".084075175" y="1.8496466"><tspan x=".084075175" y="1.8496466">101010</tspan><tspan x=".084075175" y="3.6273158">1011101110</tspan><tspan x=".084075175" y="5.404985">1110111011</tspan><tspan x=".084075175" y="7.1826544">10011100011</tspan><tspan x=".084075175" y="8.9603233">000101111000010101010101010101</tspan><tspan x=".084075175" y="10.737992">00100100110001001001100100110</tspan><tspan x=".084075175" y="12.515662">001001111000010011001110001110</tspan><tspan x=".084075175" y="14.293331">1011101010111010011100011100111100</tspan><tspan x=".084075175" y="16.071001">110110001111011000110110011100111001111</tspan><tspan x=".084075175" y="17.848669">1101110011110111001111001101101111011000111</tspan><tspan x=".084075175" y="19.626339">1010010101011011100110111011001110011111110011</tspan><tspan x=".084075175" y="21.404009">10101101010111101001100110100110</tspan><tspan x=".084075175" y="23.181677">10101010101111011011011011011011010</tspan><tspan x=".084075175" y="24.959347">1110101010100101101001101010011010011</tspan><tspan x=".084075175" y="26.737015">0001010100101111011101011011101101101</tspan><tspan x=".084075175" y="28.514685">1110101001010101011010101101001100110</tspan><tspan x=".084075175" y="30.292355">1011101101101101110110111011011011011</tspan><tspan x=".084075175" y="32.070023">1011011011011001111011011011011001110011</tspan><tspan x=".084075175" y="33.847694">101110110000110010101110110000110010011010111</tspan><tspan x=".084075175" y="35.625362">1011011101011011111101101110101101111110000111</tspan><tspan x=".084075175" y="37.40303">1000110010000011011110001100100000110111111000110</tspan><tspan x=".084075175" y="39.180698">010010011110100101000111011110000001101111110111010</tspan><tspan x=".084075175" y="40.95837">01111100010010010010010000110111011011111100001110</tspan><tspan x=".084075175" y="42.736038">11110100010010000100101101010101010101011101110100110</tspan><tspan x=".084075175" y="44.513706">10100001001001001001010001101011101101101000110111001010</tspan><tspan x=".084075175" y="46.291378">1001000100111001011100101100111011101101101111110000101</tspan><tspan x=".084075175" y="48.069046">0000111000111000110011100100111011111100110100011011100000</tspan><tspan x=".084075175" y="49.846714">101000010001110100101000100110111010001100110111110110000011100</tspan><tspan x=".084075175" y="51.624386">10100001001111000110011001110001110111110110011011101111110000000</tspan><tspan x=".084075175" y="53.402054">10001110101101100100100100101010100101101110111000000000110110000111100</tspan><tspan x=".084075175" y="55.179722">00010001011001110011011100100010010101100000000110101101111011101100111100001</tspan><tspan x=".084075175" y="56.957394">01001001101100010000100100100010111010101101110110101101110111011100111000111101</tspan><tspan x=".084075175" y="58.735062">01110111101110110101101110111011100111011111101111011101101011011101110111001110111</tspan><tspan x=".084075175" y="60.51273">010110111011101110110111011100000111011001111011011101110111011011101110000011101100111</tspan><tspan x=".084075175" y="62.290401">00000011101110111000100000000111110011011001110111110111011100010000000011111001101100111011</tspan><tspan x=".084075175" y="64.068069">00010100010000100100100111110000010110110110011111011100000000111110000010110110110011111011</tspan><tspan x=".084075175" y="65.845741">10010110110110101100110101001011011011010110011010010010011110010110110110101100110100100100111</tspan><tspan x=".084075175" y="67.623405">1010110011010110111000011100011010110011010110111000011100010010010101100110101101110000111000100100</tspan><tspan x=".084075175" y="69.401077">0010000011111011101110000111000100100101011001101011011100001110001011011100001010111010001110110111000</tspan><tspan x=".084075175" y="71.178749">1101101110011100101001011101101101110011011011011011100111001010010101011101000111011011011101100011110110</tspan><tspan x=".084075175" y="72.956413">0101100110101101110000111000100100101011001101011011100001110001001001011011011101101101101110110001111000111</tspan><tspan x=".084075175" y="74.734085">11101101101110011011011011011110110110111001101101101101110011100101001011101101101110011011011011011100111001010010</tspan><tspan x=".084075175" y="76.511757">011101111011101101011011101110111001110111111011110111011010110111011101110011101111010010010010010010100100100100100101010100100010</tspan><tspan x=".084075175" y="78.289421">101011001101011011100001110001101011001101011011100001110001001001010110011010110111000011100010010011010101001000100101010100100010</tspan><tspan x=".084075175" y="80.067093">011101111011101101011011101110111001110111111011110111011010110111011101110011101111010010010010010010010110110110101100110100100100111</tspan><tspan x=".084075175" y="81.830978">01011001101011011100001110001001001010110011010110111000011100010010010110110111011011011011101100011101110110101101110111011100111000111101</tspan></text></g></svg>