<svg xmlns="http://www.w3.org/2000/svg" aria-label="NTGA" role="img" viewBox="0 0 113.061 28.919012"><g transform="translate(-33.365598,-124.61371)"><rect fill="#c80000" width="112.83158" height="28.68959" x="33.480309" y="124.72842" ry="5.1051679" rx="0"/><g fill="#fff"><path d="m37.372395 151.10119v-19.65476h2.88207l9.543899 14.45759v-14.59934h2.882066v19.84375H50.081843L40.065475 136.02939v15.21354z"/><path d="m55.23177 131.30468h10.347097v2.59859h-3.590774v17.19792h-2.83482v-17.15067l-3.909692-.0118z"/><path d="m230.22461 25.496094-29.29297 75.257816h12.12109l7.57618-21.718754h29.54687L258.00391 100.5h12.62695L240.58008 25.496094zm5.49414 15.089844 10.22656 26.958984h-21.46484z" transform="matrix(0.26458333,0,0,0.26458333,33.365598,124.61371)"/><path d="m101.06138 133.38356h42.33334v2.69308h-41.2939z"/><path d="m103.42373 139.90364h39.97099v2.64584h-38.93155z"/><path d="m105.78609 146.28199h37.56138v2.78758h-36.61644z"/><path d="m74.177226 141.23349.09853-12e-5c1.165913-.002 12.286141-.0158 12.286117-.007-.01588 5.71619-4.653626 10.3454-10.373361 10.3454-5.72907.0-10.3734-4.64433-10.373399-10.3734-1e-6-5.72907 4.644329-10.3734 10.373399-10.3734 3.955984.0 7.394764 2.21444 9.144367 5.47136.05179.0964-3.723191-.0318-3.67439.0664-3.750356-4.66426-11.879691-2.88478-12.429876 4.59347-.242401 3.29478 2.232464 7.836 7.204871 7.60585 2.379476-.11014 4.845264-1.01413 6.554697-4.67907l-8.798674.004z"/><path d="m37.339322 127.00521v2.6789H143.47031v-2.64583z"/></g></g></svg>