<svg 
    xmlns="http://www.w3.org/2000/svg" 
    aria-label="Aberystwyth University"
    role="img"
    viewBox="0 0 66.708 66.708"
>
    <defs>
        <linearGradient id="b" x1="1.85" y1="31.46" x2="48.01" y2="31.46" gradientUnits="userSpaceOnUse" gradientTransform="translate(8.43 -1.03)">
            <stop offset="0" stop-color="#f1de9c"/>
            <stop offset=".5" stop-color="#fdf3d2"/>
            <stop offset="1" stop-color="#f7e3a4"/>
        </linearGradient>
        <linearGradient id="c" x1="6.47" y1="50.4" x2="43.3" y2="50.4" gradientUnits="userSpaceOnUse" gradientTransform="translate(8.43 -1.03)">
            <stop offset="0" stop-color="#58a132"/>
            <stop offset=".33" stop-color="#94c04e"/>
            <stop offset=".66" stop-color="#77b140"/>
            <stop offset="1" stop-color="#58a132"/>
        </linearGradient>
        <linearGradient id="a" x1="3.57" y1="30.12" x2="45.39" y2="30.12" gradientUnits="userSpaceOnUse" gradientTransform="translate(8.43 -1.03)">
            <stop offset="0" stop-color="#b1251a"/>
            <stop offset=".5" stop-color="#d7352e"/>
            <stop offset="1" stop-color="#b1251a"/>
        </linearGradient>
        <linearGradient id="d" x1="56.487" y1="152.125" x2="344.148" y2="152.125" href="#a" gradientTransform="matrix(.82866 0 0 1.20676 8.43 -1.03)" gradientUnits="userSpaceOnUse"/>
        <linearGradient id="f" x1="86.612" y1="714.417" x2="1058.283" y2="714.417" href="#a" gradientTransform="matrix(.87869 0 0 1.13806 8.43 -1.03)" gradientUnits="userSpaceOnUse"/>
        <linearGradient id="e" x1="45.995" y1="152.653" x2="334.936" y2="152.653" href="#a" gradientTransform="matrix(.83078 0 0 1.20369 8.43 -1.03)" gradientUnits="userSpaceOnUse"/>
    </defs>
    <g fill="#1d1d1b">
        <path d="M18.86 3.74c-.83.14-1.66.28-2.49.44V2.97l.5-.09A2.71 2.71 0 0019.26.97l1.32-.19v8.44l-1.72.26zm6.65.41a1.53 1.53 0 01-1.38-1.58c0-1.22.89-2.37 3.56-2.55 2.67-.18 3.55.89 3.55 2.1a1.77 1.77 0 01-1.38 1.73 2 2 0 011.75 2.12c0 1-.65 2.55-3.92 2.73-3.27.18-3.92-1.29-3.92-2.24a2.31 2.31 0 011.74-2.31zm2.18 3.28c1.39-.09 2-.67 2-1.48 0-.81-.65-1.4-2-1.31-1.35.09-2 .71-2 1.56 0 .85.6 1.32 2 1.23zm1.74-5.14c0-.71-.6-1.07-1.74-1-1.14.07-1.76.51-1.76 1.22s.6 1 1.76.93c1.16-.07 1.74-.47 1.74-1.15zM33.54.03c2.5 0 5 .12 7.49.33v1.45c-1.6 1.63-3.54 4.16-3.91 6.6l-2.1-.06c.23-2.3 2.64-5.34 4.2-6.71-1.89-.13-3.78-.19-5.68-.19zm9.26 8.79c0-2.11 1.59-3 3.33-3.46 1.74-.46 2.43-.65 2.44-1.58.01-.93-1-1.56-1.71-1.66-1.3-.19-2 .42-2.07 1.5l-1.8-.21c0-2.05 1.6-2.89 3.65-2.59 2.05.3 3.71 1.37 3.71 3.43 0 1.4-1.15 1.87-2.43 2.18-1.28.31-2.66.46-3.11 1.29 1.85.23 3.7.52 5.53.87v1.38c-2.5-.51-5.02-.88-7.54-1.15z"/>
        <path d="M57.15 16.69a14.37 14.37 0 00-4.11-2.51c-5-2.11-12.38-3.15-19.77-3.15a66.44 66.44 0 00-14 1.39 32.75 32.75 0 00-5.65 1.76 13.62 13.62 0 00-4 2.52l-.19.12v18.43a37.06 37.06 0 0012.62 24.22 46 46 0 007.62 5.5c1 .59 1.89 1 2.51 1.32l.73.32.22.09h.23a.26.26 0 00.13 0l.33-.14a44.83 44.83 0 0012-8.23A36.5 36.5 0 0057.28 35.3V16.82zM44.06 58.84a46 46 0 01-7.49 5.41c-1 .58-1.85 1-2.43 1.29l-.69.32h-.11a30.43 30.43 0 01-4.13-2.16 43.58 43.58 0 01-11.25-9.73 37.18 37.18 0 01-3.06-4.5 58.67 58.67 0 0118.36-16.63 57.78 57.78 0 0113.76 11c1.58 1.71 2.8 3.22 3.61 4.29.4.53.71 1 .92 1.26l.18.26a39.13 39.13 0 01-7.67 9.19zm12.37-23.61a34.63 34.63 0 01-4.33 13.74 59.25 59.25 0 00-18.67-16.8l-.17-.09-.16.09a59.13 59.13 0 00-18.56 16.67 34.92 34.92 0 01-4.26-13.65v-18a13.09 13.09 0 013.65-2.22c4.75-2 12-3.09 19.34-3.09a66.53 66.53 0 0113.89 1.38 31.62 31.62 0 015.55 1.71 13.78 13.78 0 013.72 2.23z"/>
        <path d="M45.37 54.72l-3.94-12.08-1.44-1s-.64-.37-1.53-.75a8.34 8.34 0 00-3-.75 2.52 2.52 0 00-1.91.66 1.08 1.08 0 00-.24.31 1.36 1.36 0 00-.25-.31 2.52 2.52 0 00-1.91-.66 8.44 8.44 0 00-3 .75 14.21 14.21 0 00-1.54.74l-1.47 1.04-4 12s-.07 0-.07.07 10.65.26 10.68.29a2.49 2.49 0 003 0l10.63-.3zm-23.55-.3c.23-.12.52-.29.83-.48a10.54 10.54 0 00.92-.62 2.55 2.55 0 00.55-.53l.41-.08a25.54 25.54 0 014.5-.47 8.16 8.16 0 012.83.41 2.32 2.32 0 01.91.59 1.45 1.45 0 01.38.83l-1.23.5c-1.22-1.41-5.08-.25-9.5-.13zm12.86.16l-1.25-.51a1.48 1.48 0 01.39-.9 3 3 0 011.53-.78 9.63 9.63 0 012.21-.22 23.63 23.63 0 013.37.28l1.13.19.42.09a5.47 5.47 0 001.5 1.24c.35.21.68.39.9.5H43.6c-4.17-.24-7.75-1.25-8.92.11zm10.18-.41c-.32-.17-.78-.43-1.22-.72a4.06 4.06 0 01-1-.92v-.15c-.17-.68-.79-3.32-1.37-5.78-.29-1.23-.57-2.41-.77-3.29-.12-.53-.22-1-.28-1.2l1 .73zm-11.08-13.2a2.28 2.28 0 011.65-.53 7.94 7.94 0 012.9.72c.43.18.81.37 1.07.5l.31.17c.06 0 .1 0 .1.06 0 0 .63 2.68 1.25 5.35.32 1.34.63 2.68.87 3.68l.29 1.21c0 .14.06.24.08.31a27 27 0 00-4.8-.52 8.45 8.45 0 00-2.91.42 2.75 2.75 0 00-1 .65l-.12.17v-11.8a1.15 1.15 0 01.31-.39zm-5.23 0a7.47 7.47 0 012.58-.58 2.26 2.26 0 011.69.55 2 2 0 01.21.28v11.97l-.08-.11a3.21 3.21 0 00-1.66-.85 10.14 10.14 0 00-2.26-.26 27 27 0 00-4.8.52c0-.11.06-.26.11-.46.53-2.15 2.18-9.27 2.39-10.2h.1a14.65 14.65 0 011.72-.81zm-3.12 1.89l1-.77c-.07.3-.18.76-.31 1.33-.35 1.54-.89 3.84-1.34 5.76-.23.95-.43 1.82-.58 2.44-.07.31-.13.56-.18.74v.24a2.44 2.44 0 01-.54.54c-.4.3-.93.62-1.35.87l-.43.24z"/>
    </g>
    <path d="M10.28 17.19v18a34.92 34.92 0 004.26 13.65A59.13 59.13 0 0133.1 32.17l.16-.09.17.09a59.25 59.25 0 0118.67 16.8 34.63 34.63 0 004.33-13.74v-18a13.78 13.78 0 00-3.72-2.26 31.62 31.62 0 00-5.55-1.72 66.53 66.53 0 00-13.89-1.38c-7.3 0-14.59 1-19.34 3.09a13.09 13.09 0 00-3.65 2.23z" fill="url(#b)"/>
    <path d="M29.21 63.74a30.43 30.43 0 004.13 2.16h.11l.69-.32c.58-.28 1.42-.71 2.43-1.29a46 46 0 007.49-5.41 39.13 39.13 0 007.67-9.22l-.18-.26a51.475 51.475 0 00-4.53-5.55 57.78 57.78 0 00-13.76-11A58.67 58.67 0 0014.9 49.47a37.18 37.18 0 003.06 4.5 43.58 43.58 0 0011.25 9.77z" fill="url(#c)"/>
    <g fill="#fff">
        <path d="M34.68 54.58c1.17-1.36 4.74-.35 8.92-.16h1.28c-.22-.11-.55-.29-.9-.5a5.47 5.47 0 01-1.55-1.19l-.42-.09-1.13-.19a23.63 23.63 0 00-3.37-.28 9.63 9.63 0 00-2.21.22 3 3 0 00-1.53.78 1.48 1.48 0 00-.39.9z"/>
        <path d="M33.5 53.18l.12-.17a2.75 2.75 0 011-.65 8.45 8.45 0 012.92-.39 27 27 0 014.8.52c0-.07 0-.17-.08-.31l-.29-1.21c-.24-1-.55-2.34-.87-3.68-.62-2.67-1.25-5.35-1.25-5.35l-.1-.06-.32-.22c-.26-.13-.64-.32-1.07-.5a7.94 7.94 0 00-2.9-.72 2.28 2.28 0 00-1.66.53 1.15 1.15 0 00-.28.39z"/>
        <path d="M42.56 52.38v.15a4.06 4.06 0 001 .92c.44.29.9.55 1.22.72l-3.61-11.33-1-.73c.06.25.16.67.28 1.2.2.88.48 2.06.77 3.29.55 2.46 1.21 5.1 1.34 5.78z"/>
        <path d="M21.65 54.25l.43-.24c.42-.25.95-.57 1.35-.87a2.44 2.44 0 00.54-.54v-.24c.05-.18.11-.43.18-.74.15-.62.35-1.49.58-2.44.45-1.92 1-4.22 1.34-5.76.13-.57.24-1 .31-1.33l-1 .77z"/>
        <path d="M24.23 52.53a27 27 0 014.8-.56 10.14 10.14 0 012.26.22 3.21 3.21 0 011.66.85l.08.11V41.27a2 2 0 00-.21-.28 2.26 2.26 0 00-1.69-.55 7.47 7.47 0 00-2.58.58 14.65 14.65 0 00-1.72.8h-.1c-.21.93-1.86 8.05-2.39 10.2-.05.25-.08.4-.11.51z"/>
        <path d="M31.92 54.57l1.23-.5a1.45 1.45 0 00-.38-.83 2.32 2.32 0 00-.91-.59 8.16 8.16 0 00-2.83-.41 25.54 25.54 0 00-4.5.47l-.41.08a2.55 2.55 0 01-.55.53 10.54 10.54 0 01-.92.62c-.31.19-.6.36-.83.48h.6c4.42-.1 8.28-1.26 9.5.15z"/>
    </g>
    <g fill="#a5a5a4">
        <path d="M28.65 51.13a15.32 15.32 0 00-3.55.49s1.08-4.92 1.08-4.89a6.43 6.43 0 012.95-.38s-.5 4.77-.48 4.78z"/>
        <path d="M32.29 49.06a4.55 4.55 0 00-2.9-.21s.64-7.67.64-7.64c.48-.09 1.8-.29 2.42.32z"/>
        <path d="M29.16 46.08a7 7 0 00-2.9.34s.84-4.23.84-4.2a10.1 10.1 0 012.51-.93s-.42 4.79-.45 4.79z"/>
        <path d="M32.29 51.58a8.76 8.76 0 00-3.11-.48l.2-2a4.26 4.26 0 012.91.22z"/>
        <path d="M37.43 47.75a7.08 7.08 0 013.17.41s-1.25-5.84-1.25-5.81a9.73 9.73 0 00-2.57-1.06l.65 6.46z"/>
        <path d="M34.14 43.47a3.4 3.4 0 012.44-.22s-.16-2-.17-2c-.47-.09-1.73-.27-2.27.28z"/>
        <path d="M34.18 51.59a6 6 0 013.09-.46s-.7-7.69-.7-7.66a3.08 3.08 0 00-2.41.21s.05 7.92.02 7.91z"/>
        <path d="M37.79 51.13a21.55 21.55 0 013.53.38s-.66-3.11-.66-3.08a7.53 7.53 0 00-3.18-.46s.28 3.16.31 3.16z"/>
    </g>
    <path d="M50.63 28.77a1 1 0 000 .87c.73-1.09 1.23-.94 1.23-.94-.44 1.63.57 2.57.39 3.12-.31.73-3.12.7-5.52-3.38 0 0-.92-1.52-1.25-1.57 1.23-.38 3.21 1.1 4.44 1.46a4 4 0 013.84-2.36c-.69-1-.68-3.8 1.31-4.31-2.6-1.18-1-4.25-.13-5-1 .07-4.28-1.46-7.73 3.43 2.84 2.77.12 6.41-2 4.33 0-.64.65-1.05.92-1.66a28.07 28.07 0 00-.32-3.18.86.86 0 01.75.3c.09.1-.18-.86-.68-.95a1.7 1.7 0 011.14.21s-.59-1-1.23-1.09c0 0 1.93.05 1.24-2.29a2.22 2.22 0 01-2.27 1.28 11.92 11.92 0 00-2.28-.74c-.4 0-.41.12-.62.25-.21.13-1.15-.48-2.1-.17a5.21 5.21 0 00.64.29 1.75 1.75 0 01.2 1c.81-.63 1.35.36 1.35.36a6.71 6.71 0 01-1.25.44c-.54.1-1.06-.07-1.09-.45-.16.33.22.58.74.68a7.56 7.56 0 001.74-.14.21.21 0 01-.14.28c-.36.19-1.13.05-1.46.16a11.7 11.7 0 010 1.45c.2-.23 1.34-1.31 1.85-1.16a3.16 3.16 0 001.79-.15s-.51.26-1.15.53a4.84 4.84 0 00-2.68 4.07c0 .7-2.07 2.61-3.58.57-.67-.23-1.93 0-1.88 1 0 0 1.78-.66 1.5 0a5.81 5.81 0 00-1.4.52 1.34 1.34 0 00-.18 1.14c.67-.5 1.21-1.18 1.8-.85a1.78 1.78 0 00-.65 1.06 2.12 2.12 0 00.14.8c.33-.89.84-1.6 1.73-1.43.89.17.88-.41 2.3.33-.08-.49-1.19-.84-1.19-.84 1-.33 2.2-.19 3.19-1.56a2.64 2.64 0 01-1.74 1.49c.55 2.53 3 3.75 3.91 4.87-.82 0-2.34-.84-2.77.25a12.43 12.43 0 00.43 2.75c-.41.2-.87-.13-1.3-.18-.85-.69.07-2.8-1.77-2.34l.23.56a4.11 4.11 0 01.82 1.09c-.46 0-.77-.61-1.05-1s-.23-.79-.62-.69c-.25.3-.82-.1-1 .38a4 4 0 011.54 1.31c-.44.11-.74-.5-1.15-.66-.44 0-.95-.1-1.31.13.05.38.59.46.87.66 1.05.87 2.29 1.19 3.13 2.25.34.28.38.47.5 1.53a1.32 1.32 0 00.23-1.19l-.17-.46c1.41.31 4 .84 4 2 .66 0-.64-2.66-.44-3.49 0 0 1.26.42 1.61-.21a1 1 0 00.11-1c.36.52-.07 1-.43 2.29.67.79 2.18.84 2.11 2.09-.24.79.79 1.29-.44 1.47-.64.28-1.64-.08-2 .69.05.35-.15.84.18 1.09a1.06 1.06 0 011.41-.61c-.23.36-.72.5-.82 1a1 1 0 00.72 1.05c-.13-1.06.68-1.28 1.33-1.9h.35a3.86 3.86 0 00-.25 1.77s1.34 1 1.13.77c-.66-.94.52-1.73.21-2.83a2 2 0 012.2-.44c-.13-.69-1.61-.32-2.08-.79 0-.21-.28.46-.28.2.25-.49-.63-.58 0-2 .17-.37 0-.29 1.06-.41a2.56 2.56 0 00-1.41-.3 3.13 3.13 0 00-.47-1.47 4.86 4.86 0 004.65.2 2.14 2.14 0 001-1.52c.39-2.14-1.74-2.6-1.7-4.06a2.16 2.16 0 011.45 1.39 5.5 5.5 0 00-.08-1.76c0-.68.12-1.44.9-1.55-.22-.4-3.22-.14-4.25 1.87zm-7.7-11.19c-.12 0-.07-.44-.07-.44s.13-.19.66.07.58.42.58.42a6.64 6.64 0 00-1.17-.05z" fill="url(#a)"/>
    <path d="M37.01 17.97a.92.92 0 01-1.38 1s.41.76 1.57.18l.36.06a15.22 15.22 0 002.62 4.13 2.25 2.25 0 01.41-1.28 36 36 0 01-2-3.89c.16-.86.88-1.33.29-2.46a.73.73 0 00-1-.4.92.92 0 01.44 1.1c-.28-.33-.15-.79-.88-1.06-.56-.17-.89-.44-1.45-.24.18.33.83.48 1.14.75l.06.71a1.82 1.82 0 00-1.3-.74c-.56 0-.93 0-1 .67 1.64-.36 1.86.57 2.12 1.47z" fill="url(#d)"/>
    <path d="M26.15 22.02a2.22 2.22 0 01.4 1.27 15 15 0 002.62-4.13l.36-.05c1.16.58 1.57-.18 1.57-.18a.92.92 0 01-1.38-.96c.26-.92.48-1.86 2.17-1.54-.06-.67-.43-.66-1-.66a1.72 1.72 0 00-1.3.74l.06-.71c.3-.27 1-.42 1.14-.75-.57-.21-.89.06-1.46.24-.73.26-.59.72-.88 1.06a.92.92 0 01.44-1.1.71.71 0 00-1 .4c-.59 1.13.12 1.59.28 2.46a39.3 39.3 0 01-2.02 3.91z" fill="url(#e)"/>
    <path d="M30.43 25.33c-.27-.63 1.5 0 1.5 0 .06-1-1.21-1.2-1.87-1-1.51 2-3.59.13-3.59-.57a4.85 4.85 0 00-2.68-4.07c-.64-.26-1.15-.52-1.15-.52a3.2 3.2 0 001.79.2c.51-.15 1.65.94 1.85 1.17a11.7 11.7 0 010-1.45c-.33-.11-1.1 0-1.46-.16a.22.22 0 01-.14-.28 8.19 8.19 0 001.74.14c.52-.11.9-.35.74-.68 0 .38-.55.55-1.09.44a6 6 0 01-1.25-.44s.55-1 1.36-.35a1.86 1.86 0 01.19-1 5 5 0 00.65-.3c-1-.3-1.9.31-2.11.18-.21-.13-.22-.25-.61-.25a11.93 11.93 0 00-2.29.73 2.22 2.22 0 01-2.27-1.28c-.69 2.34 1.25 2.3 1.25 2.3-.65.09-1.23 1.09-1.23 1.09a1.72 1.72 0 011.07-.26c-.5.09-.77 1-.68 1a.88.88 0 01.76-.3 27.92 27.92 0 00-.33 3.18c.27.6.9 1 .93 1.65-2.1 2.09-4.82-1.55-2-4.33-3.45-4.89-6.7-3.35-7.73-3.42.87.71 2.47 3.77-.13 4.95 2 .51 2 3.3 1.31 4.31a4 4 0 013.8 2.32c1.23-.35 3.2-1.84 4.43-1.46-.32.06-1.25 1.57-1.25 1.57-2.38 4.08-5.2 4.11-5.51 3.38-.18-.55.83-1.49.39-3.12 0 0 .5-.15 1.23.94a1 1 0 000-.87c-1-2-4-2.27-4.26-1.84.78.12.9.87.9 1.56a5.44 5.44 0 00-.08 1.75 2.13 2.13 0 011.45-1.38c0 1.45-2.08 1.91-1.7 4a2.19 2.19 0 001 1.53 4.83 4.83 0 004.65-.21 3.22 3.22 0 00-.47 1.48 2.53 2.53 0 00-1.4.3c1 .11.88 0 1 .4.68 1.41-.21 1.51 0 2 0 .25-.23-.41-.28-.21-.47.48-1.94.1-2.08.79a2 2 0 012.18.48c-.3 1.09.87 1.88.21 2.82-.21.26 1.13-.76 1.13-.76a3.9 3.9 0 00-.25-1.78h.35c.65.62 1.46.83 1.33 1.9a1 1 0 00.72-1.05c-.1-.53-.59-.67-.82-1a1.06 1.06 0 011.41.61c.33-.25.13-.74.18-1.1-.34-.76-1.33-.41-2-.68-1.24-.18-.21-.69-.44-1.48-.08-1.24 1.43-1.29 2.1-2.08-.36-1.33-.78-1.77-.43-2.3a1.05 1.05 0 00.11 1c.35.63 1.61.21 1.61.21.2.83-1.09 3.44-.44 3.48 0-1.17 2.59-1.7 4-2l-.17.45a1.35 1.35 0 00.23 1.19c.12-1.05.16-1.25.5-1.52.84-1.07 2.08-1.39 3.13-2.25.28-.21.82-.28.87-.67-.36-.22-.87-.07-1.31-.12-.41.15-.71.76-1.15.66a3.87 3.87 0 011.54-1.27c-.18-.48-.75-.08-1-.39-.39-.09-.46.44-.62.69-.16.25-.59 1-1.05 1a4.33 4.33 0 01.82-1.09l.23-.57c-1.84-.45-.92 1.66-1.76 2.34-.44 0-.9.39-1.31.18a11.7 11.7 0 00.43-2.74c-.43-1.1-1.94-.26-2.77-.26 1.09-1.1 3.5-2.33 4.09-4.87a2.66 2.66 0 01-1.75-1.48c1 1.36 2.16 1.22 3.19 1.56 0 0-1.11.35-1.19.84 1.42-.75 1.51-.18 2.3-.34.79-.16 1.4.55 1.74 1.43a2.17 2.17 0 00.13-.8 1.77 1.77 0 00-.65-1.05c.6-.34 1.13.34 1.8.85a1.26 1.26 0 00-.18-1.15 5.81 5.81 0 00-1.39-.5zm-7.18-8.13c.53-.25.66-.06.66-.06s.05.45-.06.44a5.83 5.83 0 00-1.18.05s.02-.17.54-.43z" fill="url(#f)"/>
</svg>
