<svg xmlns="http://www.w3.org/2000/svg" aria-label="Fleet Assist" role="img" viewBox="0 0 153.21449 44.878551"><defs><clipPath id="clip-hand-line=cap" clipPathUnits="userSpaceOnUse"><rect transform="matrix(0.99999967,-8.0807898e-4,0,-1,0,0)" y="-964.099" x="1019.1764" height="33.752934" width="115.28173"/></clipPath></defs><g fill="#0d3141" transform="matrix(1.33333,0,0,-1.33333,-1358.898,1284.364)" clip-path="url(#clip-hand-line=cap)"><path d="m1064.3776 930.32739c1.2 1.3 2 2.9 2.4 4.7l4.6 22a7 7 0 006.8 5.6h55.2v-25.5c0-3.8-3-6.8-7-6.8z" fill="#fff" stroke="#0d3141" stroke-width="1.41921496"/><path d="m1075.1776 946.52739h3.1l1.4 6.8h2.2l.5 2.1h-2.2l.1.6c.2.9.6 1.4 1.4 1.4l1-.1.6 2c-.4.2-.9.3-1.6.3-2.4.0-3.9-1-4.4-3.6l-.1-.6h-2l-.4-2.1h1.9z"/><path d="m1082.0776 946.52739h3.1l2.7 12.9h-3.1z"/><path d="m1091.1776 951.82739c.3 1 1 1.9 2.1 1.9 1.3.0 1.6-.9 1.4-1.9zm5.9-1.7.1.5c.6 2.7-.2 5-3.5 5a5.7 5.7.0 01-5.7-4.6c-.6-3 1.3-4.7 4.2-4.7 1.1.0 2.3.2 3.4.6l.4 2.1c-1-.5-2-.6-2.8-.6-1.5.0-2.4.4-2.3 1.7z"/><path d="m1101.7776 951.82739c.2 1 .9 1.9 2 1.9 1.2.0 1.5-.9 1.3-1.9zm5.7-1.7.2.5c.5 2.7-.2 5-3.5 5a5.7 5.7.0 01-5.8-4.6c-.6-3 1.3-4.7 4.3-4.7 1.1.0 2.3.2 3.4.6l.4 2.1c-1-.5-2-.6-2.9-.6-1.5.0-2.3.4-2.2 1.7z"/><path d="m1114.6776 948.42739h-.5c-1 0-1.2.5-1 1.6l.8 3.3h2.1l.5 2.1h-2.2l.6 3-3.2-1-.4-2h-1.8l-.5-2.1h1.8l-.8-3.7c-.4-2 0-3.3 2.7-3.3.8.0.9.1 1.5.2z"/><path d="m1088.0776 935.42739c-.8.0-1.6.5-1.6 1.3.0 1.8 2 2.1 3.4 2.1h1.3c-.2-1.6-1.3-3.4-3-3.4m-1.6 6.4a6 6 0 002.9.8c1.3.0 2.2-.5 2.2-1.9l-.1-.6h-1.3c-3.2.0-5.6-.7-5.6-3.4.0-1.8 1.4-2.7 3-2.7 1.3.0 2.5.7 3.1 1.8l-.3-1.6h1.7c.2 1.7.6 3.5 1 5.3l.1 1.5c0 2.3-1.8 3-3.7 3-.7.0-1.9-.2-2.7-.5z"/><path d="m1101.7776 943.52739c-.7.3-1.6.5-2.4.5-1.6.0-3.6-.8-3.6-2.8.0-2.4 3.2-2.6 3.2-4.3.0-1-1-1.5-2-1.5-.7.0-1.5.3-2.1.6l-.4-1.5c.7-.3 1.3-.5 2.8-.5s3.6.8 3.6 3c0 2.7-3.2 2.8-3.2 4.4.0 1 1 1.2 1.7 1.2s1.5-.2 2-.5z"/><path d="m1109.1776 943.52739c-.8.3-1.7.5-2.5.5-1.6.0-3.6-.8-3.6-2.8.0-2.4 3.2-2.6 3.2-4.3.0-1-1-1.5-2-1.5-.7.0-1.5.3-2.2.6l-.3-1.5c.7-.3 1.3-.5 2.8-.5s3.6.8 3.6 3c0 2.7-3.3 2.8-3.3 4.4.0 1 1 1.2 1.8 1.2.7.0 1.4-.2 2-.5z"/><path d="m1109.8776 934.22739h1.8l2 9.6h-1.7z"/><path d="m1121.5776 943.52739c-.7.3-1.6.5-2.4.5-1.6.0-3.6-.8-3.6-2.8.0-2.4 3.2-2.6 3.2-4.3.0-1-1-1.5-2-1.5-.8.0-1.5.3-2.2.6l-.3-1.5c.7-.3 1.3-.5 2.8-.5s3.6.8 3.6 3c0 2.7-3.3 2.8-3.3 4.4.0 1 1 1.2 1.8 1.2.7.0 1.4-.2 2-.5z"/><path d="m1122.7776 942.42739h2l-.8-4-.3-2.3c0-1 .6-2 2.3-2l1.7.1.3 1.5c-.4-.2-.9-.3-1.3-.3-.9.0-1.2.4-1.2 1l.2 1.9 1 4h2.6l.3 1.5h-2.7l.6 2.9-1.9-.7-.4-2.2h-2.2z"/><path d="m1019.5776 940.82739v15.2c0 4 3.2 7 7 7h42.3c-1.2-1.4-2.1-3-2.5-4.7l-4.7-22.6a7 7 0 00-7-5.7h-35.1v2.7z" stroke="#0d3141" stroke-width=".81979501"/><g stroke="#fff" stroke-width="1.19884002" transform="translate(-1.2224333,0.12738932)"><path d="m1027.8 955.6c-1.2-.4-1.3-1.4-1.3-1.4v-2.8c0-1 3.5-1.5 3.5-1.5h24.8s3.7.0 5 .7 1 2.4.8 3c-.2.7-4 1.6-6.4 2-2.3.4-3 .8-5.7 2.6-2.8 1.7-4.4 1.6-4.4 1.6h-8.8s-.7.0-1.2-.6c-.6-.4-2.2-3-2.2-3l-4-.6z"/><path d="m1050 949.9a3.2 3.2.0 106.4.0 3.2 3.2.0 00-6.4.0z"/><path d="m1031 949.9a3.25 3.25.0 106.5.0 3.25 3.25.0 00-6.5.0z"/><path d="m1019.8 947.4s3 .9 5.8.9c2.9.0 8.6-2.8 12.6-2.3 3.8.5 9.4 1.5 10-1.4l.4.2s2.3 2 7 2c4.5.0 5.6-2.2 5.6-2.9.0-2.1-3-1.9-5.1-1.8-2.2.0-4.7-1-5.4-2-.8-1-3.6-2.5-6.6-3-4.6-.9-6.8-4.1-9.9-4.1-4.7.0-8 2.7-14.4 2.7m28.5 9v-.8c0-3.7-5.9-2.8-8.2-2.6-2.4.2-5.2.7-13.3-1.6" fill="#0d3141" stroke-linecap="round"/></g></g></svg>