<svg xmlns="http://www.w3.org/2000/svg" aria-label="Latimer Arts College" role="img" viewBox="0 0 388.0392 140.6942"><g fill="#999"><path d="M131.2981 43.328c0 4.09 2.8484 4.5526 4.2604 4.5526.4139.0.706-.0487.706-.0487v-1.485s-.219.0486-.5599.0486c-.9251.0-2.751-.3652-2.751-3.238v-6.2323h3.0675v-1.3877h-3.0675v-3.384h-1.6311v3.384h-1.6312v1.3877h1.6068z"/><path d="M139.0673 47.7832h1.6555V41.916c0-.5843.0487-1.1442.1947-1.6311.56-2.045 2.3615-3.4814 4.4309-3.4814 2.3858.0 2.678 1.7041 2.678 3.6274v5.8672c0 1.0469.4382 1.485 1.485 1.485h1.7285v-1.4363h-1.0225c-.3408.0-.5356-.1704-.5356-.5356v-5.8185c0-3.0188-1.0712-4.7473-4.1143-4.7473-2.751.0-4.3822 1.8746-4.8447 3.0431h-.0487s.0487-.4382.0487-.9981v-5.1856c0-.9981-.4382-1.4363-1.485-1.4363h-1.7286v1.4363h1.0225c.3408.0.5356.1948.5356.5356z"/><path d="M152.7364 41.6725c0 3.7735 2.7754 6.4028 6.4028 6.4028 2.7754.0 4.5526-1.7528 4.5526-1.7528l-.8034-1.2416s-1.4364 1.5094-3.6762 1.5094c-2.5319.0-4.6986-1.7772-4.7473-4.869h9.3973s.0487-.5357.0487-.8278c0-3.0432-1.7529-5.6481-5.1369-5.6481-3.2866.0-6.0376 2.4102-6.0376 6.4271zm1.8016-1.266c.4138-2.4588 2.191-3.7734 4.2117-3.7734 1.8015.0 3.3596 1.2416 3.457 3.7735z"/></g><g><path d="M114.9033 79.508c0 2.264.9477 3.2116 3.2116 3.2116h15.3206c2.264.0 3.2116-.9477 3.2116-3.2116v-3.6853h-3.4748v2.4744c0 .7898-.4212 1.1583-1.1583 1.1583h-12.267c-.7371.0-1.1583-.3685-1.1583-1.1583V48.9193c0-2.2638-.9477-3.2115-3.2116-3.2115h-3.896v3.2642h2.264c.737.0 1.1582.3685 1.1582 1.1583z"/><path d="M139.2425 75.5068c0 5.2648 4.5804 7.8446 9.0029 7.8446 6.6337.0 8.8449-5.7387 8.7922-5.7387h.1053s-.0526.7897-.0526 1.948c0 2.1586.895 3.1589 3.1589 3.1589h3.6327v-3.1063h-2.2112c-.737.0-1.1583-.3685-1.1583-1.1582V65.7668c0-5.686-2.0006-10.1611-10.3717-10.1611-2.3165.0-8.6343.7897-8.6343 4.475v2.5272h3.4221v-1.6847c0-1.948 3.8433-2.3166 5.1596-2.3166 4.8436.0 6.8442 1.948 6.8442 7.4761v.3159h-1.4741c-4.5804.0-16.2157.3159-16.2157 9.1082zm3.6854-.2106c0-5.9493 8.3184-6.0546 12.4776-6.0546h1.5268v1.211c0 4.5803-3.0536 9.8452-8.1078 9.8452-3.9486.0-5.8966-2.5271-5.8966-5.0016z"/><path d="M169.8995 73.085c0 8.8449 6.1598 9.8452 9.2134 9.8452.895.0 1.5268-.1053 1.5268-.1053v-3.2116s-.4738.1053-1.2109.1053c-2.0006.0-5.9492-.7897-5.9492-7.0022v-13.478h6.6337v-3.001h-6.6337v-7.318h-3.5275v7.318h-3.5274v3.001h3.4748z"/><path d="M187.428 50.2356h3.4749v-4.5278h-3.4748zm.1054 29.2724c0 2.264.9477 3.2116 3.2115 3.2116h3.738v-3.1063h-2.2112c-.737.0-1.1582-.3685-1.1582-1.1582V59.449c0-2.264-.9477-3.2116-3.2116-3.2116h-3.738v3.1062h2.2112c.737.0 1.1583.4212 1.1583 1.1583z"/><path d="M200.535 82.7196h3.5802V70.1893c0-1.211.1052-2.4218.4211-3.5275 1.1057-4.0539 4.3172-7.792 8.6344-7.792 5.0016.0 5.5807 3.896 5.5807 7.8973v15.9525h3.58V70.1893c0-1.4215.1054-2.685.474-3.8433 1.0529-3.896 4.3697-7.4761 8.371-7.4761 4.8437.0 5.7387 3.58 5.7387 7.8972v12.741c0 2.2638.9477 3.2115 3.2115 3.2115h3.738v-3.1063h-2.2112c-.737.0-1.1582-.3685-1.1582-1.1582V65.872c0-6.5284-2.3692-10.2664-8.7923-10.2664-4.4751.0-8.3184 3.0536-9.74 6.6337h-.1052c-.7898-4.3698-3.3169-6.6337-8.2132-6.6337-4.1066.0-8.2658 3.1062-9.582 6.6863h-.1053s.1053-.8423.1053-1.8953v-1.211c0-2.0006-1.0003-2.9482-3.2115-2.9482h-3.6854v3.1062h2.2112c.737.0 1.1583.4212 1.1583 1.1583z"/><path d="M247.11 69.5049c0 8.1605 6.0019 13.8465 13.8465 13.8465 6.0019.0 9.8452-3.7907 9.8452-3.7907l-1.7374-2.685s-3.1062 3.2641-7.9499 3.2641c-5.4754.0-10.1611-3.8433-10.2664-10.5296h20.3223s.1053-1.1583.1053-1.7901c0-6.581-3.7907-12.2144-11.1089-12.2144-7.1075.0-13.0567 5.2122-13.0567 13.8992zm3.896-2.7378c.895-5.3174 4.7383-8.1605 9.1081-8.1605 3.896.0 7.2655 2.6851 7.476 8.1605z"/><path d="M278.4793 82.7196h3.5801V71.558c0-1.6847.2106-3.4748.7371-5.1595 1.1583-3.896 3.9486-6.8443 7.6867-6.8443.6844.0 1.3162.1053 1.3162.1053v-3.5274s-.6845-.158-1.4215-.158c-4.1593.0-7.1076 3.0536-8.3711 7.0549h-.1053s.1053-.895.1053-2.0006v-1.79c0-2.106-1.0003-3.001-3.2116-3.001h-3.6854v3.1062h2.2113c.737.0 1.1582.4212 1.1582 1.1583z"/></g><g fill="#a5372a"><path d="M295.5328 82.5449h1.7374c2.6325.0 3.3695-.5265 4.3172-3.0536l3.2642-8.7396h14.689l3.2115 8.7396c.9476 2.5271 1.7374 3.0536 4.3698 3.0536h1.6847v-3.2642h-.6318c-1.0003.0-1.5268-.158-1.8953-1.1583l-12.1091-32.5893h-3.9487l-12.109 32.5893c-.3686 1.0004-.9478 1.1583-1.8954 1.1583h-.6845zM305.852 67.54l4.8437-13.2147c.6318-1.7374 1.4215-4.791 1.4215-4.791h.1053s.7897 3.0536 1.4215 4.791l4.8963 13.2147z"/><path d="M334.032 82.5449h3.58V71.3834c0-1.6847.2107-3.4747.7371-5.1595 1.1583-3.896 3.9487-6.8443 7.6867-6.8443.6844.0 1.3162.1053 1.3162.1053v-3.5274s-.6844-.158-1.4215-.158c-4.1592.0-7.1075 3.0536-8.371 7.0549h-.1054s.1053-.895.1053-2.0006v-1.79c0-2.106-1.0003-3.001-3.2115-3.001h-3.6854v3.1062h2.2112c.737.0 1.1583.4212 1.1583 1.1583z"/><path d="M353.3712 72.9102c0 8.845 6.1599 9.8453 9.2135 9.8453.895.0 1.5268-.1053 1.5268-.1053v-3.2116s-.4739.1053-1.211.1053c-2.0006.0-5.9492-.7897-5.9492-7.0022v-13.478h6.6337v-3.001h-6.6337v-7.318h-3.5275v7.318h-3.5274v3.001h3.4748z"/><path d="M367.6883 78.5436s3.2642 4.633 10.1611 4.633c5.2648.0 9.2661-3.0009 9.2661-7.4233.0-8.7923-14.8468-7.4235-14.8468-13.3727.0-2.5798 2.2112-3.8434 5.8966-3.8434 1.7374.0 4.5804.7371 4.5804 2.6851v1.2636h3.3695v-2.264c0-3.738-5.3701-4.791-8.0552-4.791-5.3175.0-9.424 2.3693-9.424 7.1603.0 8.529 14.8468 7.476 14.8468 13.2674.0 2.7903-2.6324 4.2118-5.5807 4.2118-5.2122.0-8.1605-4.0013-8.1605-4.0013z"/></g><g fill="#999"><path d="M273.0631 100.7961c0 6.9917 4.9454 12.585 11.9712 12.585 5.9344.0 9.2426-3.888 9.2426-3.888l-1.3642-1.7394s-2.899 3.3765-7.8443 3.3765c-5.457.0-9.5156-4.6043-9.5156-10.334.0-5.798 4.0927-9.959 9.4132-9.959 2.7626.0 6.6507 1.2278 6.6507 3.4788v1.3301h2.251V93.668c0-3.6152-5.5593-5.0818-8.9699-5.0818-6.753.0-11.8347 5.2864-11.8347 12.21z"/><path d="M296.779 104.309c0 5.1841 4.0585 9.0722 9.072 9.0722 4.9795.0 9.0381-3.8881 9.0381-9.0722.0-5.0817-4.0586-8.9016-9.0721-8.9016-4.9795.0-9.038 3.8199-9.038 8.9016zm2.3873.0c0-3.888 3.0013-6.787 6.6848-6.787 3.6493.0 6.6506 2.899 6.6506 6.787.0 3.9904-3.0013 6.9917-6.6506 6.9917-3.6835.0-6.6848-3.0013-6.6848-6.9917z"/><path d="M318.8646 110.8914c0 1.4666.6139 2.0805 2.0804 2.0805h2.4215v-2.0122h-1.4324c-.4775.0-.7503-.2388-.7503-.7504V91.076c0-1.4666-.614-2.0805-2.0805-2.0805h-2.4215v2.0122h1.4324c.4775.0.7504.2729.7504.7504z"/><path d="M327.1912 110.8914c0 1.4666.6139 2.0805 2.0804 2.0805h2.4216v-2.0122h-1.4325c-.4775.0-.7503-.2388-.7503-.7504V91.076c0-1.4666-.614-2.0805-2.0805-2.0805h-2.4215v2.0122h1.4325c.4774.0.7503.2729.7503.7504z"/><path d="M333.949 104.4113c0 5.2864 3.888 8.9699 8.9698 8.9699 3.888.0 6.3778-2.4556 6.3778-2.4556l-1.1255-1.7394s-2.0123 2.1145-5.15 2.1145c-3.547.0-6.5824-2.4897-6.6506-6.8211h13.1648s.0682-.7504.0682-1.1596c0-4.2633-2.4556-7.9126-7.1963-7.9126-4.6043.0-8.4583 3.3765-8.4583 9.004zm2.5238-1.7735c.5798-3.4447 3.0695-5.2864 5.9003-5.2864 2.5238.0 4.7066 1.7394 4.843 5.2864z"/><path d="M352.7354 104.0703c0 5.15 3.0354 8.7993 7.6397 8.7993 2.6602.0 4.3655-1.0914 5.3887-2.9672h.0682s-.034.5798-.034 1.2278v1.5006c0 3.8199-2.6603 5.3888-6.0027 5.3888-2.5238.0-4.6384-1.1937-4.6384-1.1937l-.8868 1.944c1.6712.8526 3.6494 1.3642 5.5934 1.3642 4.2291.0 8.2536-2.1145 8.2536-7.5715V98.5792c0-.5115.2729-.7503.7503-.7503h1.3984v-2.0122h-2.3874c-1.3984.0-1.944.648-1.944 1.8758v.648h-.0683s-1.0914-2.9331-5.6956-2.9331c-4.6043.0-7.4351 3.5129-7.4351 8.6629zm7.9808 6.7188c-3.3765.0-5.5934-2.6602-5.5934-6.753.0-4.0926 1.944-6.5141 5.2864-6.5141 3.0354.0 5.4228 1.5347 5.4228 6.5483.0 5.0476-2.3874 6.7188-5.1158 6.7188z"/><path d="M372.3846 104.4113c0 5.2864 3.888 8.9699 8.9698 8.9699 3.8881.0 6.3778-2.4556 6.3778-2.4556l-1.1255-1.7394s-2.0122 2.1145-5.15 2.1145c-3.547.0-6.5824-2.4897-6.6506-6.8211h13.1649s.0682-.7504.0682-1.1596c0-4.2633-2.4557-7.9126-7.1964-7.9126-4.6043.0-8.4582 3.3765-8.4582 9.004zm2.5238-1.7735c.5798-3.4447 3.0696-5.2864 5.9003-5.2864 2.5239.0 4.7067 1.7394 4.843 5.2864z"/></g><path fill="#a5372a" d="M47.872 140.1143c-1.146-.7724-2.1669-2.7814-2.3139-4.5538l-.1165-1.4049 2.8745-.1086c4.2663-.1613 6.4703-1.3684 7.924-4.3396.634-1.2958.693-1.6608.5855-3.62-.1659-3.0217-1.283-5.0636-3.747-6.8484l-1.0413-.7544.7673.006c3.003.0228 5.629 3.4674 5.8744 7.7053.1826 3.1556-.6006 5.42-2.5476 7.365-1.8899 1.8879-3.2358 2.3864-6.443 2.3864-1.2838.0-2.3342.0634-2.3342.1408.0.9397 1.6259 2.9379 3.093 3.801.416.2449.4268.3167.082.5472-.6555.4384-1.7205.3094-2.6571-.3218zM37.0147 114.708c-1.7599-1.186-2.8189-3.7818-2.4596-6.0288.166-1.0378-.072-1.0425-.072-1.0425 4.1507.0484 8.8001-.2803 13.5004-.36 4.173.06 8.4075-.1656 12.5115-.372l-1.656-2.1789c-3.7625-5.3972-6.8507-10.4138-8.9094-16.4174-.1115-.007-1.8663.5305-3.8995 1.195-11.776 3.8487-19.352 4.3418-28.177 1.8339-5.105-1.4508-9.019-3.956-9.6924-6.2038-.6169-2.0589 1.2723-4.3188 5.2875-6.3254.9242-.462 1.744-.7762 1.8218-.6985.2968.2968-.783 1.5025-2.1145 2.3609-2.1248 1.3698-2.432 1.8225-2.4071 3.547.016 1.1112.142 1.5686.5045 1.8338 1.7075 2.1383 6.5681 2.543 8.7952 2.735.133.0 1.7771.1248 3.6536.2775 3.9156.3185 9.2821.0167 14.3132-.805 3.2388-.529 10.6492-2.2911 10.988-2.6128.1065-.101-.1412-1.8174-.5505-3.814-.4093-1.9968-.8157-3.5588-.9032-3.4713s-.0995-.0688-.0266-.3474-.0507-1.749-.2746-3.2674c-.8673-5.882-1.2132-10.6744-1.3943-19.3188l-.1639-7.8268 2.7505-.5893c10.0286-2.1487 21.7165-3.4685 30.7168-3.4685h4.7097v1.8623c0 4.4107-1.1028 17.698-1.7613 21.2216l-.1608.8609 1.3744-1.5255c2.813-3.4187 5.5658-6.3042 7.575-10.3483 1.822-3.8545 2.3567-6.2552 2.3346-10.4835-.0162-3.0937-.115-3.8897-.7375-5.946-1.0148-3.3518-2.069-5.1733-4.1065-7.0953-2.0121-1.8981-4.6882-3.3328-7.8406-4.2035-2.8278-.781-9.8863-.855-12.5523-.1315-4.445 1.2063-7.5216 2.937-10.0768 5.6686-1.453 1.5532-1.6268 1.6703-1.4561.981.869-3.5087 4.3285-7.5008 8.0933-9.3391 3.5706-1.7435 4.9962-2.027 10.1864-2.026 3.8722 8e-4 4.8109.086 6.747.6122 6.3732 1.7323 11.658 5.668 13.8252 10.296 1.2898 2.7543 1.514 4.0492 1.5174 8.7633.003 4.0984-.0383 4.4502-.7822 6.6705-.4319 1.2892-1.1934 3.1522-1.6924 4.1401-2.177 4.3107-6.5 9.907-10.8448 14.039-1.332 1.2668-2.0244 2.1256-2.0264 2.5136-.006 1.1149-1.558 7.3194-2.6599 10.6327l-1.2563 3.343-.9404-.0269c-2.072-.003-6.2821-.7847-8.5798-1.5932-1.2667-.4458-2.5413-.8717-2.8324-.9466-.3361-.0865-1.639.4625-3.5718 1.505-1.6735.9026-3.095 1.6862-3.1588 1.7414-.4154.3591 3.3625 6.5947 4.9342 8.1443 1.2986 1.2802 4.2536 2.9231 5.7692 3.2074l.8104.1292-1.6888 2.1844c-.9743 1.1803-3.1308 3.623-4.7922 5.4285l-3.0208 3.2825 1.9625-.1787c8.1355-.741 14.2309-2.611 17.0845-5.2415 1.9172-1.7672 2.5529-3.0946 2.6847-5.6064.1379-2.6265-.3443-4.6936-1.7719-7.597l-1.021-2.0764 1.092.002c1.551.002 2.8933.4296 3.702 1.179.671.622.6971.7537.6927 3.5032-.0133 8.293-3.393 13.226-10.7254 15.6549-4.4464 1.4729-10.822 2.1373-20.6231 2.1492-7.961.01-16.2372.7502-17.5667 1.5719-.7448.4603 1.2093 2.8519 3.1504 3.8557.8798.4549.9999.7871.3717 1.0282-.7933.3044-1.6224.1589-2.5126-.441zm22.1467-32.9c.8548-.3814 2.0753-.9194 2.7121-1.1956l1.158-.5022-1.5548-1.0096c-.8551-.5553-2.2079-1.5697-3.0061-2.2543-1.3256-1.1367-1.4803-1.2049-1.786-.787-.4583.6269-.421 3.2158.0668 4.6228.6161 1.7777.6332 1.8192.748 1.8192.0593.0.8072-.312 1.662-.6933zM69.1824 63.6c4.2832-1.0812 5.2873-1.1364 7.5831-.4167 2.3743.7442 2.6033.7128 2.6033-.3578.0-1.7923-1.9533-3.2572-5.559-4.169-2.929-.7406-8.4487-.6138-11.1323.2558-4.2293 1.3704-6.0026 4.2743-3.3507 5.487 1.4004.6404 5.4547.3116 9.8555-.7993zM9.713 62.009c-2.7088-.8075-6.1424-2.4918-7.5132-3.6856C.6948 57.0127-.0078 55.476.0 53.512c.0125-3.1339 1.9307-6.3296 6.588-10.9757 4.8464-4.8346 9.5077-8.4186 24.2296-18.6294 10.2135-7.0839 13.512-9.5596 16.2399-12.1886l2.2168-2.1367-.4258-1.4648c-.8183-2.8149-3.5635-5.0156-7.3787-5.915-3.1405-.7405-8.0383-.3543-10.293.8117-1.0814.5592-1.187.3512-.3356-.6608C32.5843.2813 36.0261-.503 39.7438.3241c3.6383.8095 8.1597 3.4966 9.6355 5.7266.7017 1.0604.7105 1.1226.3836 2.7184-.9711 4.7402-4.756 9.3519-11.5368 14.0572-3.2146 2.2307-5.3978 3.5255-13.626 8.0813-3.8564 2.1352-8.1093 4.5615-9.451 5.3918-5.3787 3.3284-8.908 6.4923-10.5251 9.4354-.7327 1.3335-.7938 1.648-.7938 4.0904.0 2.551.0356 2.7124.9921 4.5015 1.1174 2.09 3.3897 4.7275 5.9282 6.8812.9399.7973 1.5532 1.4415 1.363 1.4316-.1902-.01-1.2703-.2935-2.4004-.6304z"/><path fill="#1b1917" d="M46.1117 118.126c-3.4218-2.519-10.073-7.8393-9.742-8.1438.885-.7316 9.6436-1.2483 18.8905-1.3508l6.3103-.1808-2.2092 2.052c-4.831 4.4874-10.3084 8.7758-11.2257 8.7758-.2522.0-1.163-.5185-2.0239-1.1523zm-14.0119-13.2013c-4.5275-5.1523-9.8053-12.4323-9.218-12.628l1.8341.3191s6.1973 8.2145 9.2963 11.6475l3.0453 3.3734H34.483zm4.9581 2.727c0-.1109.9952-1.4486 1.9156-2.489 3.6282-4.1011 9.401-12.224 10.6051-14.9224.276-.6184.5734-1.1244.661-1.1244.0874.0.2436.8932.7753 1.7859 1.8841 3.1627 4.7778 8.7392 7.9895 13.6095l1.5609 2.4443c-.3506.1878-16.2535 2.7404-23.5074.6962zm26.1508-3.802c5.2736-5.6816 8.7751-10.0602 11.8959-15.1734 2.5744-4.218 4.3666-9.7149 5.763-16.4872.6419-3.1134.903-3.2758 1.8612-4.1077.553-.4802 1.0299-1.0989 1.0544-1.0767.1138.1026-1.0039 5.9838-1.6383 8.5178-1.6857 6.732-3.584 11.103-7.2412 16.6732-4.102 6.2477-12.0478 14.9615-12.3464 14.655-4.067 1.4158-2.2811.1583.6514-3.001zM20.1957 88.647l-1.1252-2.446c-3.4411-7.48-5.5852-18.7483-6.3758-33.9946-.1434-2.765-.2618-6.7157-.2631-8.7796-.002-3.345.0479-3.7678.4606-3.8934.9014-.2743 7.1234-1.473 10.4138-2.0064 16.373-2.6537 31.7053-2.6901 49.845-.1185 4.1006.5813 10.2082 1.6525 12.2708 2.152l.629.1525-.1832 4.9238c-.2174 5.8442-.7955 13.4391-1.3362 17.5545-.385 2.9298-.2351 3.5797-1.4847 4.0286l-1.1577 1.1918.0378-1.0841c.1284-3.6862 1.499-16.7238 1.8076-21.106l.1323-1.8788h-4.7096c-2.5903.0-6.2862.289-8.2434.44-3.7416.2887-13.467 1.626-13.467 1.626s.0469-1.8014.094-2.6912l-1.1254-.3323c-1.7163-.5068-11.8136-2.1549-16.8663-2.7529-9.3974-1.1123-11.021-1.0466-20.6759.8363l-4.2717.833-.1532.9584c-.227 1.4196.2904 14.3499.7633 19.0744.6413 6.4076 2.1529 15.3992 2.7516 16.368.5668.917 10.3301 1.0443 14.1182.184 4.41-1.0015 8.9941-3.2703 12.354-6.1141 1.168-.9886 1.784-1.3508 1.9968-1.1742.1693.1405.8855 1.686 1.0133 3.593l.2377 3.548-.892 1.4789c-.8092 1.3415-6.9397 8.3385-7.7217 8.7734-6.7537 1.8058-13.0823 1.8006-18.8737.6555zm18.0304-29.4576c-.8731-.1257-2.9829-.5874-4.6883-1.026-3.6332-.9346-5.106-.9887-7.3928-.2719-.9225.2892-1.8133.5273-1.9797.5292-.5175.006-.6345-.7812-.2522-1.6963.9562-2.2883 5.2581-3.8618 10.5315-3.852 4.701.009 9.063 1.5103 10.1232 3.4846 1.3412 2.4977-1.0982 3.5872-6.3417 2.8324z"/></svg>