<svg
    xmlns="http://www.w3.org/2000/svg"
    aria-label="APC"
    role="img"
    viewBox="0 0 588 280.4"
>
    <g fill="#00a650">
        <path d="M6.6 259.3c0 3.7 2.9 6.3 6.6 6.3 4 0 6.7-3.2 6.7-7.7 0-4.7-2.7-7.8-6.7-7.8a6.8 6.8 0 00-6.6 4.3zm0 8.2c0 2.7-1.4 3.6-3.3 3.6h-.9c-2 0-3.4-.8-3.4-3.6v-33.2c0-.2 1.3-.8 2.9-.8 2.2 0 4.7 1.2 4.7 6v8.8c1.9-2.6 4.8-4.3 8.5-4.3 7 0 12.2 5.4 12.2 13.8 0 8.1-5 13.8-12.3 13.8-4 0-7-2-8.4-4.5"/>
        <path d="M29.2 271.8c1.3.6 2.5 1 3.6 1.2 2 .3 4.2.3 5.7-1.2.8-.9 1.2-1.6 1.3-2 .1-.3.2-.5.1-.6-1.2-.2-2-.6-2.4-1.7l-9-21c-.2-.4 1.8-2.2 4-2.2 1.8 0 3.3.7 4.3 3.8l5.7 15 5-15c1-3 2.6-3.8 4.3-3.8 2.1 0 4.2 1.7 4 2.1l-9.5 25c-1.1 2.9-3.2 6.6-8.2 7.9-4.2 1-14.3-1.3-8.9-7.5"/>
    </g>
    <g fill="#373535">
        <path d="M100.1 260.3a10 10 0 01-6.6 9.7c-2 .9-4.4 1.3-7.1 1.3a31.9 31.9 0 01-12.8-2.8v-9c1.9 1.2 3.6 2.1 5.4 2.9 1.8.7 3.7 1.1 5.7 1.1 1.9 0 3-.3 3.6-1 .6-.6.8-1.1.8-1.7 0-1-.4-1.8-1.4-2.5a20 20 0 00-4-2c-2-.9-3.8-1.8-5.3-2.8-1.5-1-2.7-2.2-3.7-3.7a9.6 9.6 0 01-1.4-5.3 9.9 9.9 0 015.8-9.1c2-1 4.4-1.5 7.3-1.5a25.7 25.7 0 0112.2 3.1v8.6c-1.5-1.1-3.2-2-5-2.9-1.8-.8-3.8-1.3-5.9-1.3-1.3 0-2.3.3-3 .8a2.5 2.5 0 000 3.9L88 248c2.8 1.3 5 2.5 6.8 3.5 1.6 1 3 2.3 4 3.7.9 1.3 1.3 3 1.3 5.1"/>
        <path d="M129 269.6a32.9 32.9 0 01-5.5 1.5c-1 .2-2.3.2-3.6.2-2.9 0-5.4-.5-7.4-1.4-2-1-3.6-2.3-4.7-3.8a14 14 0 01-2.2-4.6c-.5-1.5-.7-2.9-.7-4a15.7 15.7 0 013-8.7c1-1.5 2.5-2.7 4.6-3.7a22.9 22.9 0 0116 0v7.5c-3-1-5.4-1.4-7.2-1.4-1.6 0-3.1.5-4.4 1.5-1.3 1-2 2.6-2 4.7 0 1.4.3 2.6 1 3.6a6 6 0 002.4 2.2c1 .4 2 .6 3 .6s2-.1 3.3-.4l4.4-1.2"/>
        <path d="M162.1 270.9h-9.4V257v-.3a8.6 8.6 0 00-.8-4.1c-.5-1.1-1.6-1.6-3.1-1.6-1.2 0-2.2.4-3.2 1.2-.9.7-1.7 1.8-2.5 3v15.7h-9.5v-36.4h9.5V248c1.5-1.7 3-2.8 4.6-3.4 1.5-.6 3.1-1 4.8-1 6.4 0 9.6 3.7 9.6 10.8"/>
        <path d="M196.4 270.9h-9.5v-14.5c0-1.4-.2-2.7-.7-3.8-.5-1-1.5-1.6-3.2-1.6-.7 0-1.4.1-2 .4l-1.6 1.1-1.1 1.3-1 1.4v15.7h-9.5V244h9.5v3.9c1.5-1.6 3-2.8 4.5-3.4 1.5-.6 3.1-1 5-1 6.4 0 9.6 3.9 9.6 11.6"/>
        <path d="M220.6 255.1c0-1.7-.4-3-1.2-4-.9-1.1-2.1-1.6-3.7-1.6a5 5 0 00-3.9 1.5c-1 1-1.4 2.4-1.4 4.1zm8.9 4.7h-18.9c.4 1.6 1.3 3 2.7 4 1.5 1 3.1 1.5 5 1.5 3.1 0 6.7-.9 10.5-2.7v5.9a26.9 26.9 0 01-12.6 2.8c-3.2 0-6-.6-8.4-1.8-2.3-1.2-4-2.9-5.2-5a14.6 14.6 0 01-1.7-7.1c0-2.7.6-5 1.7-7a12 12 0 015.2-5 18.3 18.3 0 0114.7-.3c2 .9 3.7 2.4 5 4.5 1.3 2.2 2 4.9 2 8.3"/>
        <path d="M243.3 238c0 1-.4 2-1.2 2.7-.8.8-1.7 1.2-2.8 1.2a3.9 3.9 0 01-3.4-2 4 4 0 01-.5-2c0-1 .4-2 1.1-2.8.8-.8 1.7-1.2 2.8-1.2 1.1 0 2 .4 2.8 1.2.8.8 1.2 1.7 1.2 2.8m.8 33h-9.5V244h9.5zm0 0"/>
        <path d="M269.5 262.4V252l-2.6-1.3c-.7-.2-1.4-.4-2.2-.4-1.5 0-2.8.7-3.8 2-1 1.2-1.5 3-1.5 5 0 2.5.6 4.2 1.6 5.3a5 5 0 003.7 1.6 6 6 0 002.7-.6c.7-.3 1.4-.8 2-1.3m9.5 8.5h-9.4v-2.4a10.8 10.8 0 01-7.8 2.9c-2 0-3.9-.5-5.8-1.5s-3.4-2.5-4.6-4.5a15 15 0 01-1.8-7.7c0-2.5.4-4.7 1.3-6.9a11.9 11.9 0 0111.5-7.1c1.7 0 3.2.1 4.3.5 1 .4 2 1 2.9 1.5v-11.2h9.4"/>
        <path d="M303.5 255.1c0-1.7-.4-3-1.3-4-.9-1.1-2-1.6-3.7-1.6a5 5 0 00-3.8 1.5c-1 1-1.5 2.4-1.5 4.1zm8.8 4.7h-18.8c.3 1.6 1.2 3 2.7 4 1.4 1 3 1.5 4.9 1.5 3.2 0 6.7-.9 10.6-2.7v5.9a26.8 26.8 0 01-12.6 2.8 18 18 0 01-8.4-1.8c-2.3-1.2-4-2.9-5.2-5a14.6 14.6 0 01-1.7-7.1c0-2.7.5-5 1.7-7a12 12 0 015.2-5 18.3 18.3 0 0114.7-.3c2 .9 3.7 2.4 5 4.5 1.3 2.2 2 4.9 2 8.3"/>
        <path d="M340.5 245.6L337 255c-1.4-1.4-2.9-2-4.4-2a5 5 0 00-3.4 1.3c-1 1-2 2.6-2.8 5V271h-9.5V244h9.5v6.5a13 13 0 013.1-4.7 7.7 7.7 0 018.1-1.8c.8.3 1.8.8 2.9 1.5"/>
        <path d="M366.1 239.8h17.6v4h-13.1v9.5h12.7v4h-12.7v9.6H384v4h-18"/>
        <path d="M397 270.9h4.1v-31h-4zm0 0"/>
        <path d="M418.7 258.6H429a5.8 5.8 0 00-1.4-3.8c-.9-.9-2-1.3-3.5-1.3a5 5 0 00-3.6 1.3c-.9.9-1.5 2.2-1.8 3.8M433 261h-14.3c0 2 .7 3.5 2 4.7a6.4 6.4 0 004.6 1.7c2.6 0 5-.8 7.3-2.4v4a13.6 13.6 0 01-8 2.2c-2.2 0-4-.5-5.4-1.4-1.4-1-2.5-2.2-3.4-3.8-.8-1.6-1.2-3.4-1.2-5.5 0-3 .9-5.6 2.6-7.6 1.8-2 4-3 7-3a8 8 0 016.4 3c1.6 1.8 2.4 4.4 2.4 7.6"/>
        <path d="M461.4 266.2v4c-2 .7-4 1-6 1-3.2 0-5.8-.9-7.7-2.8-1.9-1.9-2.8-4.4-2.8-7.6 0-3.3.9-5.9 2.8-7.8 1.8-2 4.3-3 7.3-3a12.7 12.7 0 016 1.4v4.3c-2-1.3-4-2-5.7-2-1.9 0-3.4.7-4.6 2a7 7 0 00-1.8 5c0 2 .7 3.7 2 5a7 7 0 005.1 1.8c1.6 0 3.4-.4 5.4-1.3"/>
        <path d="M471.8 253.7l7.6-7.5v4.2h6.4v3.7h-6.4v10c0 2.4 1 3.5 2.9 3.5a9 9 0 004.5-1.4v3.8c-1.5.8-3.2 1.3-5 1.3-1.9 0-3.4-.6-4.6-1.7l-1-1-.6-1.7c-.2-.6-.3-1.9-.3-3.7V254h-3.5"/>
        <path d="M502.8 250.4v4.7l.2-.4c2-3.1 4-4.7 5.9-4.7 1.5 0 3.1.8 4.8 2.3l-2.2 3.6c-1.4-1.4-2.7-2-3.9-2-1.3 0-2.4.6-3.4 1.8a7 7 0 00-1.4 4.5v10.7h-4.1v-20.5"/>
        <path d="M525.2 250.4h4.1V271h-4zm2-8.6c.7 0 1.3.3 1.8.7.5.5.7 1 .7 1.7s-.2 1.2-.7 1.7a2.3 2.3 0 01-3.4 0 2.3 2.3 0 010-3.3c.5-.5 1-.8 1.7-.8"/>
        <path d="M559.1 266.2v4c-2 .7-4 1-6 1-3.2 0-5.7-.9-7.6-2.8-2-1.9-3-4.4-3-7.6 0-3.3 1-5.9 2.9-7.8 1.9-2 4.3-3 7.4-3a12.7 12.7 0 016 1.4v4.3c-2.1-1.3-4-2-5.8-2a6 6 0 00-4.6 2 7 7 0 00-1.7 5c0 2 .6 3.7 1.9 5a7 7 0 005.1 1.8c1.6 0 3.4-.4 5.4-1.3"/>
        <path d="M1.2 195.3h558v-3H1.1zm0 0"/>
    </g>
    <g fill="#ed1c24">
        <path d="M99.8 153L80 117.4h71.7l-36-76.3L62.8 153H-.3L82.4 2.1h66.5L231 153"/>
        <path d="M231.4 65.3H310c19.9 0 27.8-1.2 27.8-15.2 0-13.5-6.4-15-26.9-15h-80L213.3 2h111.1c52.6 0 72 23 72 47.3 0 23.6-18 49.5-75.6 49.5h-26.3v54H231V65.3"/>
        <path d="M561 141.6c-18.9 8.9-42.4 13.2-67.4 13.2-75.7 0-101.7-42.2-101.7-77C392 33.8 430.4 0 496.6 0a177 177 0 0162.9 10.4V54c-18.3-9.7-34.2-14-52.8-14-31.8 0-57.7 14.3-57.7 37.2 0 22.6 26.6 37.3 58.3 37.3 18.3 0 33.3-3.7 53.7-13.2"/>
    </g>
    <path fill="#231f20" d="M578.4 22.7c1.4 0 2.6 0 2.6-1.8 0-1.3-1.2-1.6-2.4-1.6h-2.2v3.4zm-2 6.2h-1.7v-11h4.2c2.6 0 3.9 1 3.9 3.1 0 2-1.3 2.9-2.9 3L583 29h-1.8l-3-4.8h-1.8zm2 2.4c4.3 0 7.7-3.3 7.7-8 0-4.4-3.4-7.8-7.7-7.8a7.7 7.7 0 00-7.8 7.9c0 4.6 3.4 8 7.8 8zm-9.7-8c0-5.4 4.4-9.4 9.7-9.4 5.2 0 9.6 4 9.6 9.5s-4.4 9.5-9.6 9.5c-5.3 0-9.7-4-9.7-9.5"/>
</svg>