<svg 
    xmlns="http://www.w3.org/2000/svg" 
    aria-label="APC" 
    role="img"
    viewBox="0 0 561.29999 500.82628"
>
    <g
        fill="#ed1c24"
        transform="translate(0.3,170.02625)"
    >
        <path d="M 99.8,153 80,117.4 h 71.7 L 115.7,41.1 62.8,153 H -0.3 L 82.4,2.1 h 66.5 L 231,153"/>
        <path d="M 231.4,65.3 H 310 c 19.9,0 27.8,-1.2 27.8,-15.2 0,-13.5 -6.4,-15 -26.9,-15 h -80 L 213.3,2 h 111.1 c 52.6,0 72,23 72,47.3 0,23.6 -18,49.5 -75.6,49.5 h -26.3 v 54 H 231 V 65.3"/>
        <path d="m 561,141.6 c -18.9,8.9 -42.4,13.2 -67.4,13.2 -75.7,0 -101.7,-42.2 -101.7,-77 C 392,33.8 430.4,0 496.6,0 a 177,177 0 0 1 62.9,10.4 V 54 C 541.2,44.3 525.3,40 506.7,40 474.9,40 449,54.3 449,77.2 c 0,22.6 26.6,37.3 58.3,37.3 18.3,0 33.3,-3.7 53.7,-13.2"/>
    </g>
</svg>
