<svg 
    xmlns="http://www.w3.org/2000/svg"
    aria-label="Docker" 
    role="img"
    viewBox="0 0 405.47122 282"
>
    <path 
        stroke="#066da5" 
        stroke-width="38" 
        d="m 229.47123,111 h 42 m -92,0 h 42 m -91,0 h 42 m -90.999997,0 h 40.999997 m -90.999997,0 h 42 m 8,-46 h 40.999997 m 8,0 h 42 m 7,0 h 42 m -42,-46 h 42"
    />
    <path 
        fill="#066da5" 
        d="m 405.47123,113 c 0,0 -18,-17 -55,-11 -4,-29 -35,-46 -35,-46 0,0 -29,35 -8,74 -6,3 -16,7 -31,7 H 1.4712327 c -5,19 -5,145 132.9999973,145 99,0 173,-46 208,-130 52,4 63,-39 63,-39"
    />
</svg>
