<svg 
   xmlns="http://www.w3.org/2000/svg"
   aria-label="EF Core" 
   role="img"
   viewBox="0 0 12.732276 12.732276"
>
   <g transform="translate(-134.98653,-78.869843)">
      <rect
         fill="#68217a"
         width="12.732277"
         height="12.732277"
         x="134.98653"
         y="78.869843" 
      />
      <path
         fill="#ffffff"
         d="m 140.29108,90.698591 c 0.47724,-0.09754 0.93117,-0.326252 1.30053,-0.655266 l 0.10438,-0.09298 -0.10963,-0.110912 -0.10962,-0.110911 -0.0561,0.04553 c -0.0309,0.02504 -0.11724,0.09562 -0.19191,0.156849 -0.18808,0.154193 -0.59643,0.352359 -0.87803,0.426089 -0.19748,0.05171 -0.28194,0.06087 -0.56828,0.06165 -0.37899,0.001 -0.54261,-0.0274 -0.87421,-0.151956 -0.71366,-0.26806 -1.25865,-0.876313 -1.46103,-1.630609 -0.0561,-0.209067 -0.0622,-0.27172 -0.0634,-0.648925 -0.001,-0.35752 0.006,-0.446762 0.0502,-0.621039 0.19538,-0.772336 0.75448,-1.396573 1.4919,-1.665699 0.31195,-0.113847 0.48657,-0.143357 0.84493,-0.142794 0.27105,4.27e-4 0.36144,0.01013 0.5468,0.05868 0.41548,0.108836 0.75651,0.286073 1.03882,0.539894 l 0.12033,0.108191 0.098,-0.11137 c 0.0539,-0.06125 0.098,-0.117843 0.098,-0.125755 0,-0.03064 -0.26293,-0.245742 -0.44723,-0.365875 -0.63005,-0.410685 -1.44006,-0.537196 -2.18233,-0.340844 -1.00953,0.267053 -1.75862,1.081525 -1.96668,2.138339 -0.0542,0.275116 -0.0532,0.829014 0.002,1.084959 0.0822,0.381577 0.22756,0.730588 0.43132,1.035302 0.14665,0.219321 0.55784,0.612355 0.79223,0.757256 0.58934,0.364336 1.32399,0.498109 1.98904,0.362186 z m 4.59704,-1.382182 c 0.0845,-0.03143 0.20188,-0.08547 0.26095,-0.120094 l 0.1074,-0.06294 v -0.161389 c 0,-0.08876 -0.006,-0.16139 -0.0129,-0.16139 -0.007,0 -0.0827,0.04213 -0.16808,0.09361 -0.39895,0.24062 -0.8661,0.25896 -1.16068,0.04557 -0.18217,-0.131961 -0.31281,-0.393669 -0.34284,-0.686771 l -0.0152,-0.148273 h 0.934 0.93401 l -0.0168,-0.236876 c -0.0326,-0.459229 -0.13507,-0.722237 -0.36419,-0.934364 -0.16339,-0.151266 -0.33023,-0.218526 -0.58659,-0.236479 -0.47549,-0.0333 -0.89379,0.223119 -1.10453,0.677067 -0.11106,0.239231 -0.13743,0.372227 -0.13743,0.693291 0,0.653879 0.27123,1.108186 0.75747,1.268757 0.20305,0.06706 0.69859,0.05097 0.91537,-0.02972 z m -1.29922,-1.595592 c 0.0712,-0.316684 0.23702,-0.546104 0.47301,-0.654257 0.0918,-0.04205 0.15716,-0.0532 0.31314,-0.05338 0.17536,-2.09e-4 0.21088,0.0074 0.32121,0.06848 0.0764,0.04234 0.15123,0.108221 0.19488,0.171664 0.0832,0.120913 0.15657,0.340794 0.15657,0.469149 v 0.09071 h -0.73978 -0.73979 z m -1.57367,0.828829 c 0.0105,-0.853468 0.0172,-0.907019 0.14377,-1.16581 0.26342,-0.305686 0.50123,-0.411099 0.80115,-0.265308 l -0.009,-0.381688 c -0.0459,-0.0051 -0.10817,-0.01322 -0.25875,-0.01351 -0.27192,-5.26e-4 -0.47889,0.137418 -0.62598,0.4172 l -0.0549,0.104379 -10e-4,-0.237752 -0.001,-0.237753 h -0.17397 -0.17396 v 1.287341 1.287341 h 0.17211 0.1721 z"
      />
      <g
         fill="#ffffff"
         transform="translate(-15.378906,-1.6867187)"
      >
         <path d="m 153.55637,81.616896 h 3.02735 v 0.545179 h -2.37954 v 1.417471 h 2.28016 v 0.545178 h -2.28016 v 1.73496 h 2.43726 v 0.545178 h -3.08507 z"/>
         <path d="m 157.71598,81.616896 h 2.76497 v 0.547841 h -2.114 v 1.417953 h 1.9078 v 0.547841 h -1.9078 v 2.297718 h -0.65097 z"/>
      </g>
      <circle
         fill="#40ccf4"
         cx="139.67519"
         cy="87.921288"
         r="0.9343099" 
      />
   </g>
</svg>
