<svg 
    xmlns="http://www.w3.org/2000/svg"
    aria-label="HPE"
    role="img"
    viewBox="0 0 530.5 221.5"
>
    <path fill="#00b188" d="M170.4 41H11.6V11.4h158.8zM181.8 0H.3v52.1h181.5z"/>
    <g fill="#040404">
        <path d="M11.6 138.4H.3V86.3h11.3v20.6H32V86.3h11.3v52.1H32v-21.6H11.6v21.6"/>
        <path d="M60.5 115.4H74c-.2-3.8-1.8-6.5-6.2-6.5-3.3 0-6.3 1.4-7.3 6.5zm8.6 23.7c-11.5 0-19.3-7.2-19.3-19.2 0-11.6 7.6-19.6 17.8-19.6 11.1 0 16.6 7.5 16.6 18.6v4.1H60.5c1.4 5.8 5.9 7.3 10.4 7.3 3.9 0 6.7-.9 10.2-3h.5v8.6c-3 2.1-7.3 3.2-12.5 3.2"/>
        <path d="M113.8 116.6l-5.9 21.8H98l-11.3-36.7v-.4h10.9l6.2 22 5.8-22h8.8l6 22 6.2-22H141v.4l-11.4 36.7h-10l-5.8-21.8"/>
        <path d="M159.2 139c-9 0-12.7-3.6-12.7-12V86h11v40.3c0 2.5 1 3.5 3.2 3.5.8 0 1.9-.3 2.5-.5h.2v9c-1 .4-2.5.7-4.2.7"/>
        <path d="M177.3 115.4H191c-.3-3.8-1.9-6.5-6.3-6.5-3.3 0-6.3 1.4-7.3 6.5zm8.6 23.7c-11.5 0-19.3-7.2-19.3-19.2 0-11.6 7.7-19.6 17.8-19.6 11.1 0 16.6 7.5 16.6 18.6v4.1h-23.7c1.4 5.8 5.9 7.3 10.4 7.3 4 0 6.7-.9 10.2-3h.5v8.6c-3 2.1-7.3 3.2-12.5 3.2"/>
        <path d="M246.4 101.3h8.2v8.9h-8.2v15c0 3.3 1.2 4.8 4.6 4.8.9 0 2 0 3.3-.5h.3v8.7c-1.4.5-3.6 1-6.8 1-9 0-12.4-4-12.4-13.4v-15.6h-14.1v15c0 3.3 1.2 4.8 4.6 4.8.9 0 2 0 3.3-.5h.3v8.7c-1.5.5-3.6 1-6.8 1-9 0-12.4-4-12.4-13.4v-15.6h-5.7v-8.9h5.7V91.2h11v10.1h14V91.2h11v10.1"/>
        <path d="M291.6 111.7c5.7 0 8.5-3.3 8.5-8 0-4.8-2.8-8-8.5-8h-7.2v16zm20-8c0 11.4-7.6 17.6-19.1 17.6h-8.1v17H273V86h19.4c11.5 0 19 6.1 19 17.6"/>
        <path d="M335.9 126.7v-3.2c-1.7-1-3.9-1.3-6.1-1.3-3.6 0-5.8 1.4-5.8 4.4 0 3 2.2 4.4 5.4 4.4 3.1 0 5.5-1.6 6.5-4.3zm.3 8c-2.4 2.9-6 4.3-9.8 4.3-7.3 0-13.2-4.4-13.2-12.3 0-7.2 6-12 14.4-12 2.7 0 5.4.4 8.3 1.2v-.7c0-4-2.3-5.7-8.2-5.7-3.8 0-7.3 1-10.4 2.8h-.4v-8.8c2.8-1.7 7.8-3.1 12.7-3.1 11.2 0 17.3 5.3 17.3 14.7v23.2h-10.7v-3.6"/>
        <path d="M352.3 119.7c0-11.9 8.4-19.4 19.4-19.4 4 0 7.6.8 10.4 2.8v9.5h-.5c-2.4-1.9-5.2-3-8.5-3-5.5 0-9.6 3.8-9.6 10.1s4.1 10 9.6 10c3.3 0 6.1-1 8.5-2.9h.5v9.5c-2.8 2-6.5 2.8-10.4 2.8-11 0-19.4-7.4-19.4-19.4"/>
        <path d="M400 121.5v16.8h-11V86.2h11v29.7l11.1-14.7h12.5v.4l-13.3 16.8 13.3 19.5v.4H411l-11-16.8"/>
        <path d="M448.4 126.7v-3.2c-1.7-1-3.9-1.3-6.1-1.3-3.6 0-5.8 1.4-5.8 4.4 0 3 2.2 4.4 5.4 4.4 3.1 0 5.5-1.6 6.5-4.3zm.3 8c-2.4 2.9-6 4.3-9.8 4.3-7.3 0-13.2-4.4-13.2-12.3 0-7.2 5.9-12 14.4-12 2.7 0 5.4.4 8.3 1.2v-.7c0-4-2.3-5.7-8.2-5.7-3.8 0-7.4 1-10.4 2.8h-.5v-8.8c2.9-1.7 7.9-3.1 12.8-3.1 11.2 0 17.3 5.3 17.3 14.7v23.2h-10.7v-3.6"/>
        <path d="M478 107c2-4 5-6.3 9-6.3 1.5 0 3 .3 3.6.6v10.5h-.4c-1.3-.5-2.8-.8-4.9-.8-3.4 0-6 2-7 5.8v21.4h-11v-37.1H478v6"/>
        <path d="M519.7 125.8v-12a8.1 8.1 0 00-7-3.8c-4.8 0-8 3.5-8 9.9s3.2 9.7 8 9.7c2.8 0 5.2-1.1 7-3.8zm.4 8.7c-2.4 3-6 4.7-11 4.7-9.6 0-15.7-8.7-15.7-19.3s6.1-19.5 15.6-19.5c4.9 0 8.4 1.5 10.7 4.3V86.3h11v52h-10.6v-3.8"/>
        <path d="M.4 155.4h32.2v6.4h-25v15.9h22.7v6.2H7.7v17.3h24.9v6.3H.4v-52"/>
        <path d="M59 170.1c8.3 0 13 5.4 13 14.3v23.1h-7v-22.9c0-4.7-2.4-8.2-7.7-8.2-4.3 0-8 2.8-9.2 6.7v24.4h-7V171h7v5.3c2.1-3.4 5.8-6 11-6"/>
        <path d="M90.5 170.7h9.4v5.9h-9.4v19.8c0 4.1 2.1 5.5 6 5.5 1.1 0 2.3-.1 3.1-.5h.3v6c-1 .4-2.4.7-4.4.7-8.6 0-12-3.9-12-11v-20.5h-6.3v-6h6.3V161h7v9.8"/>
        <path d="M111.5 185.6h18.2c-.2-5.4-2.9-9.6-8.6-9.6-5.2 0-8.6 4-9.6 9.6zm10.9 22.7c-10.8 0-18.1-7.2-18.1-18.7s6.8-19.5 16.8-19.5 15.3 7.3 15.3 18v3.2h-25.2c.8 7.4 5.5 11 12.1 11 4 0 7-.9 10.3-3.3h.2v6c-3 2.4-7 3.3-11.4 3.3"/>
        <path d="M151.7 176.4c1.6-3.9 5.1-6.2 9.1-6.2 1.6 0 3 .2 3.6.6v6.8h-.2c-1-.5-2.7-.8-4.4-.8-3.7 0-6.9 2.5-8 6.7v24h-7v-36.7h7v5.6"/>
        <path d="M186.5 202c6.9 0 10.9-5.4 10.9-12.8s-4-12.9-10.9-12.9c-3.7 0-7.2 2.3-9 5.9v14c1.8 3.7 5.3 5.8 9 5.8zm1.2-32c11 0 16.8 9 16.8 19.2s-5.9 19-16.8 19c-4.5 0-8.3-2.2-10.2-4.8v18.2h-7V171h7v4.1c1.9-2.6 5.7-4.9 10.2-4.9"/>
        <path d="M219.6 176.4c1.6-3.9 5.1-6.2 9.1-6.2 1.6 0 3 .2 3.6.6v6.8h-.2c-1-.5-2.7-.8-4.4-.8-3.7 0-6.9 2.5-8 6.7v24h-7v-36.7h7v5.6"/>
        <path d="M242.4 156c2.4 0 4.4 2 4.4 4.3s-2 4.4-4.4 4.4c-2.4 0-4.5-2-4.5-4.4s2.1-4.3 4.5-4.3"/>
        <path d="M239 207.5h6.8v-36.7H239z"/>
        <path d="M270.6 186c5.2 1.6 11 3.8 11 10.8 0 7.5-6.1 11.3-14 11.3-4.9 0-9.7-1.2-12.5-3.3v-6.6h.4c3 2.8 7.6 4 12 4 3.9 0 7.4-1.4 7.4-4.6 0-3.3-3-4-8.7-6-5.2-1.6-11-3.5-11-10.4 0-7.1 6-11.3 13.4-11.3 4.3 0 8.1 1 11.2 3v6.7h-.2c-3-2.4-6.5-3.9-10.9-3.9s-6.7 2-6.7 4.5c0 3 2.6 3.8 8.6 5.7"/>
        <path d="M294.7 185.6H313c-.3-5.4-3-9.6-8.6-9.6-5.3 0-8.7 4-9.7 9.6zm11 22.7c-10.8 0-18.1-7.2-18.1-18.7s6.8-19.5 16.7-19.5c10.1 0 15.4 7.3 15.4 18v3.2h-25.2c.7 7.4 5.5 11 12 11 4.2 0 7-.9 10.3-3.3h.3v6c-3 2.4-7 3.3-11.4 3.3"/>
    </g>
</svg>
