<svg 
    xmlns="http://www.w3.org/2000/svg" 
    aria-label="Juniper" 
    role="img"
    viewBox="0 0 88.8 24.26"
>
    <g fill="#80b13e">
        <path d="M46.915 19.5508v3.8765l-2.8103-3.8765h-.5457v4.701h.482v-3.9915l2.8999 3.9915h.4568v-4.701h-.4828"/>
        <path d="M48.5917 19.5508v4.701h3.1338v-.4566h-2.6328v-1.7446h2.5438v-.4703h-2.5438v-1.5539h2.6075v-.4757h-3.1085"/>
        <path d="M52.4657 19.5508v.4757h1.7632v4.2253h.5014v-4.2253h1.7639v-.4757h-4.0287"/>
        <path d="M63.0467 19.5508l-1.243 3.8891-1.2563-3.889h-.4313l-1.2629 3.889-1.237-3.889h-.5142l1.5167 4.7328h.4373l1.2629-3.9144 1.269 3.9144h.4312l1.51-4.7329h-.4826"/>
        <path d="M68.2216 21.9214c0-1.2689-.59-1.9538-1.8721-1.9538-1.275 0-1.8589.685-1.8589 1.9538 0 1.2756.5836 1.9605 1.8589 1.9605 1.2822 0 1.8721-.6856 1.8721-1.9605m-4.2319-.0061c0-1.6755.8563-2.4236 2.3598-2.4236 1.51 0 2.373.748 2.373 2.4236 0 1.6814-.863 2.4295-2.373 2.4295-1.5035 0-2.3598-.7487-2.3598-2.4295"/>
        <path d="M71.7775 21.8925c.6664 0 1.079-.2028 1.079-.9454 0-.7294-.4002-.9194-1.0976-.9194h-1.5293v1.8648zm-.1395.4566h-1.409v1.916h-.488v-4.701h2.0303c1.0909 0 1.5858.4376 1.5858 1.37 0 .8118-.387 1.2875-1.2051 1.3958l1.1354 1.9352h-.5334l-1.1161-1.916"/>
        <path d="M75.8539 21.7769l-.9394 1.0277v1.4656h-.4883v-4.701h.4883v2.595l2.379-2.595h.5768l-1.6868 1.8463 1.916 2.8547h-.5644l-1.6815-2.4933"/>
        <path d="M78.5136 23.8006l.2539-.3799c.564.3542 1.1168.4753 1.6808.4753.9713 0 1.4025-.273 1.4025-.9201 0-.6664-.5581-.7614-1.4025-.9135-1.0151-.1783-1.7007-.3496-1.7007-1.3008 0-.9075.5835-1.263 1.7007-1.263.7361 0 1.263.1651 1.637.419l-.2663.4059c-.3368-.2223-.8378-.3686-1.3706-.3686-.8437 0-1.2051.2355-1.2051.7932 0 .5972.4887.711 1.326.8624 1.0278.1844 1.7699.337 1.7699 1.3453 0 .9334-.5963 1.3825-1.8781 1.3825-.7102 0-1.3513-.1452-1.948-.5388"/>
    </g>
    <g fill="#231f20">
        <path d="M87.2444.1233c-6.6083 0-6.8893 2.961-6.8893 7.1351V17.516h1.5579V7.2584c0-3.1477-.1244-5.6735 5.3314-5.6735.5852 0 1.1035.0307 1.5705.0848V.1849c-.4815-.0422-1.0012-.0654-1.5705-.0654"/>
        <path d="M10.1703 10.8489V.4651h1.5898v10.4104c0 2.9929-.031 5.518 5.4557 5.518 5.455 0 5.3307-2.5245 5.3307-5.6735V.4624h1.5586V10.72c0 4.1781-.281 7.1418-6.8893 7.1418-6.6402 0-7.0421-2.961-7.0421-7.0156"/>
        <path d="M40.6704 7.1484v10.3772h-1.5905V7.1152c0-2.9929.0312-5.5181-5.4556-5.5181-5.4557 0-5.3308 2.5252-5.3308 5.6736v10.2576H26.735V7.2707c0-4.1781.281-7.1418 6.8894-7.1418 6.6402 0 7.0421 2.961 7.0421 7.0155"/>
        <path d="M43.5614 17.5271h1.5253V.5078h-1.5253z"/>
        <path d="M55.9349 10.0972c2.753 0 4.121-1.3413 4.121-4.0525 0-2.7092-1.4762-3.996-4.1888-3.996h-6.3977v8.0519zM47.9427.524h7.9656c3.9516 0 5.7433 1.9645 5.7433 5.455 0 3.5144-1.7685 5.6517-5.7652 5.6517H49.466v5.9134h-1.5254V.5233"/>
        <path d="M64.9837 7.8134h11.5996c-.1555-3.3975-.374-6.2968-5.3308-6.2968-4.7694 0-6.0781 2.5877-6.2655 6.2968m-1.5592 1.154c0-5.0192 1.4343-8.8825 7.8593-8.8825 6.6402 0 6.856 4.4572 6.8295 9.1615H64.9624c.0311 4.1462 1.059 7.2347 6.4529 7.2347 2.868 0 4.1781-.7799 5.5799-1.8083l.873 1.1533c-1.5586 1.1533-3.3976 2.0568-6.453 2.0568-6.7364 0-7.9788-3.8964-7.9788-8.9156"/>
        <path d="M.6011 21.2276c6.609 0 6.8894-2.9617 6.8894-7.1418V.4798H5.9319v13.606c0 3.1477.1248 5.6742-5.3308 5.6742-.206 0-.4021-.0055-.5926-.0129v1.4696c.1917.0051.389.0082.5926.0082"/>
        <path d="M85.3363 15.5901c-.5174 0-.938.4201-.938.9368 0 .5162.4205.9367.938.9367.5158 0 .9361-.4204.9361-.9367 0-.5166-.4201-.9368-.936-.9368m0 2.0124c-.5936 0-1.077-.4828-1.077-1.0763s.4831-1.0762 1.077-1.0762c.5927 0 1.0749.483 1.0749 1.0762s-.4824 1.0763-1.075 1.0763"/>
        <path d="M85.452 16.5153c.1686 0 .2655-.049.2655-.2293 0-.1783-.0933-.22-.2703-.22h-.3787v.4493zm-.0383.1545h-.3452v.4753h-.165v-1.2357h.5505c.3133 0 .434.1281.434.3718 0 .1997-.0852.3379-.2981.3772l.279.4866h-.179l-.2762-.4753"/>
    </g>
</svg>