<svg 
    xmlns="http://www.w3.org/2000/svg"
    aria-label="Papertrail" 
    role="img"
    viewBox="0 0 85.8 85.800005"
>
    <g transform="translate(-261.9,16.899998)">
        <g transform="translate(0,-8)" fill="#f99d1c">
            <path d="m 302.8,32.3 c 0.3,-0.1 0.5,-0.1 0.7,-0.2 5.5,-1.6 10.8,-3.7 16.2,-5.9 C 324.9,24 330,21.4 334.6,17.7 339.2,13.9 342.9,9 345,3 345.3,2.2 345.9,0.9 345.9,0 338.7,9.9 310,10.9 310,10.9 l 6.8,-6.2 c -27.2,0.1 -46.2,11.6 -54.9,17.8 11.1,1.2 21.2,5.9 29.1,13 3.9,-1.2 7.9,-2.1 11.8,-3.2 z"/>
            <path d="m 347.7,31.3 c 0,0 -26.4,-2 -53.9,6.8 3.6,3.8 6.7,8.2 9.1,12.9 14.4,-7.9 34.5,-18.2 44.8,-19.7 z" />
            <path d="m 304.7,55.2 c 1.7,4.3 2.8,8.9 3.3,13.7 L 333.2,43 Z"/>
        </g>
    </g>
</svg>
