<svg
    xmlns="http://www.w3.org/2000/svg"
    aria-label="VBA"
    role="img"
    viewBox="0 0 170.82001 94.005998"
>
    <path d="M 100.887,71.65 V 43.566 l 36.11,17.196 v 30.38 l -36.11,-19.49"/>
    <path d="M 100.887,43.565 135.28,28.66 170.246,45.283 138.716,61.907 100.886,43.565"/>
    <path d="m 136.427,61.334 0.57,29.807 33.823,-16.62 -0.575,-29.23 -33.82,16.05"/>
    <g fill="#952781">
        <path d="M 103.754,69.36 V 47.003 l 32.098,15.478 v 24.08 l -32.098,-17.2"/>
        <path d="m 106.618,44.138 28.09,-12.04 29.805,13.76 -26.94,13.756 -30.955,-15.476"/>
        <path d="M 139.865,62.48 V 86.555 L 167.38,72.8 V 48.15 l -27.515,14.33"/>
    </g>

    <path d="M 49.3,42.417 V 14.33 l 36.11,17.198 v 30.38 L 49.3,42.418"/>
    <path d="M 49.3,14.33 83.687,0 118.655,16.05 87.13,32.674 49.3,14.33"/>
    <path d="m 84.836,32.1 0.573,29.807 33.82,-16.624 -0.58,-29.232 L 84.83,32.1"/>
    <g fill="#6483c0">
        <path d="M 52.165,40.125 V 17.77 l 32.098,15.477 v 24.65 L 52.165,40.124"/>
        <path d="M 55.027,14.904 83.117,2.867 112.925,16.623 85.983,30.38 55.027,14.905"/>
        <path d="M 88.276,33.247 V 57.322 L 115.79,43.565 V 19.49 L 88.276,33.246"/>
    </g>

    <path d="M 0,69.932 V 41.845 L 35.54,59.04 36.113,89.425 0,69.932"/>
    <path d="M 0,41.845 34.392,26.942 69.36,43.565 37.26,60.19 0,41.844"/>
    <path d="M 34.915,59.442125 36.113,89.424 69.933,72.8 69.359,43.565"/>
    <g fill="#d87b30">
        <path d="M 2.866,67.64 V 45.282 l 32.1,15.478 v 24.08 l -32.1,-17.2"/>
        <path d="M 5.16,42.417 33.82,30.38 63.628,44.14 36.685,57.896 5.16,42.416"/>
        <path d="M 38.405,60.76 38.98,84.838 66.494,71.078 65.921,46.43 38.411,60.76"/>
    </g>

    <path d="M 52.165,73.944 V 45.858 l 35.537,17.196 0.574,30.95 -36.11,-20.06"/>
    <path d="M 52.165,45.858 86.555,31.528 121.523,47.576 89.423,64.2 52.165,45.858"/>
    <path d="M 87.182124,63.603397 88.276,94.006 121.523,76.81 V 47.576 L 86.903853,63.226426"/>
    <g fill="#e0d400">
        <path d="M 55.027,72.226 V 49.296 L 87.13,64.774 v 24.65 L 55.026,72.227"/>
        <path d="M 57.322,47.003 85.982,34.966 115.79,48.723 88.276,61.907 57.322,47.003"/>
        <path d="M 90.57,64.774 91.14,88.848 118.656,75.664 118.083,51.016 90.57,64.774"/>
    </g>
</svg>
