<svg
   xmlns="http://www.w3.org/2000/svg"
   aria-label="VBA"
   role="img"
   viewBox="0 0 170.82001 170.82001"
>
   <path d="m 100.887,106.46402 v -28.084 l 36.11,17.196 v 30.38 l -36.11,-19.49"/>
   <path d="m 100.887,78.37902 34.393,-14.905 34.966,16.623 -31.53,16.624 -37.83,-18.342"/>
   <path d="m 136.427,96.14802 0.57,29.807 33.823,-16.62 -0.575,-29.23 -33.82,16.05"/>
   <g
      style="fill:#952781"
      transform="translate(0,34.814019)">
      <path d="M 103.754,69.36 V 47.003 l 32.098,15.478 v 24.08 l -32.098,-17.2"/>
      <path d="m 106.618,44.138 28.09,-12.04 29.805,13.76 -26.94,13.756 -30.955,-15.476"/>
      <path d="M 139.865,62.48 V 86.555 L 167.38,72.8 V 48.15 l -27.515,14.33"/>
   </g>
      <path d="M 49.3,77.23101 V 49.144019 L 85.41,66.34201 v 30.38 l -36.11,-19.49"/>
      <path d="m 49.3,49.144019 34.387,-14.33 34.968,16.05 L 87.13,67.48801 49.3,49.144019"/>
      <path d="m 84.836,66.91401 0.573,29.807 33.82,-16.624 -0.58,-29.231991 L 84.83,66.91401"/>
   <g
      fill="#6483c0"
      transform="translate(0,34.814019)"
   >
      <path d="M 52.165,40.125 V 17.77 l 32.098,15.477 v 24.65 L 52.165,40.124"/>
      <path d="M 55.027,14.904 83.117,2.867 112.925,16.623 85.983,30.38 55.027,14.905"/>
      <path d="M 88.276,33.247 V 57.322 L 115.79,43.565 V 19.49 L 88.276,33.246"/>
   </g>
      <path d="m 0,104.74602 v -28.087 l 35.54,17.195 0.573,30.385 L 0,104.74602"/>
      <path d="m 0,76.65902 34.392,-14.903 34.968,16.623 -32.1,16.625 L 0,76.65802"/>
      <path d="m 34.915,94.25615 1.198,29.98187 33.82,-16.624 -0.574,-29.235"/>
   <g
      fill="#d87b30"
      transform="translate(0,34.814019)"
   >
      <path d="M 2.866,67.64 V 45.282 l 32.1,15.478 v 24.08 l -32.1,-17.2"/>
      <path d="M 5.16,42.417 33.82,30.38 63.628,44.14 36.685,57.896 5.16,42.416"/>
      <path d="M 38.405,60.76 38.98,84.838 66.494,71.078 65.921,46.43 38.411,60.76"/>
   </g>
      <path d="m 52.165,108.75802 v -28.086 l 35.537,17.196 0.574,30.95 -36.11,-20.06"/>
      <path d="m 52.165,80.67202 34.39,-14.33 34.968,16.048 -32.1,16.624 -37.258,-18.342"/>
      <path d="m 87.182124,98.41742 1.093876,30.4026 33.247,-17.196 v -29.234 L 86.903853,98.04045"/>
   <g
      fill="#e0d400"
      transform="translate(0,34.814019)"
   >
      <path d="M 55.027,72.226 V 49.296 L 87.13,64.774 v 24.65 L 55.026,72.227"/>
      <path d="M 57.322,47.003 85.982,34.966 115.79,48.723 88.276,61.907 57.322,47.003"/>
      <path d="M 90.57,64.774 91.14,88.848 118.656,75.664 118.083,51.016 90.57,64.774"/>
   </g>
</svg>
