<svg
    xmlns="http://www.w3.org/2000/svg"
    aria-label="Outline of a person performing a crashdive filled with binary code" 
    role="img"
    viewBox="0 0 77.966888 79.366653"
>
    <defs>
        <path
            id="person"
            d="m0.9303 2.707c1.4833 1.175 3.0204 3.3199 3.67 5.1213 0.24698 0.68495 0.63961 1.4346 0.87245 1.6658 0.23283 0.23125 1.0828 1.8348 1.8888 3.5634 1.1671 2.503 2.2144 5.4768 5.1438 14.606 3.5491 11.06 4.7561 14.418 5.3289 14.824 1.6633 2.4261 3.8982 4.5 5.3752 7.2461 0.2096 0.1406 0.7839 0.9822 1.3557 1.7164 0.5718 0.7341 1.8835 2.128 2.9149 3.0975s2.5631 2.492 3.4039 3.3833c1.0553 1.1189 1.9517 1.7891 2.8954 2.1647 0.7518 0.2993 2.6258 1.2126 4.1643 2.0297 2.2254 1.1817 3.2664 1.5529 5.0911 1.8154 0.8871 0.3788 2.5127 0.3063 3.1899 0.4848 0.3672 0.1028 0.3631 0.2456-0.024 0.8374-0.2568 0.3924-0.6134 0.9397-0.7926 1.2162-0.397 0.6128-0.0632 1.7716 0.742 2.5752 0.3283 0.3278 0.8026 1.0085 1.0541 1.5127 0.3765 0.7551 0.6261 0.9315 1.4158 1.0005 0.9324-0.0928 1.0692 0.2758 1.4003 0.8517 0.2428 0.4223 0.8577 1.0845 1.285 1.4065 2.8667 1.3256 8.8261 0.4795 8.7939-3.5276 4.1039 3.1232 9.8579 4.4175 13.317 7.514 0.8689 0.9122 0.9863 1.2079 1.7989 1.4075 0.5197-0.5736-0.6876-0.7101-0.3354-1.3076 0.9805-0.2943 2.3421 1.0449 2.8278 0.0138 0.139-0.3055 0.1644-0.8327 0.0564-1.1715-0.2023-0.6347-2.1435-2.0657-2.6034-1.9191-5.155-1.5278-9.4967-5.4281-13.218-9.2169-1.7575-5.5508-6.3035-4.0425-8.686-6.5965-1.2622-1.308-2.6439-2.5835-3.0703-2.8344-1.173-0.6902-3.4709-2.2202-4.6446-3.0925-0.5752-0.4276-3.2417-1.8895-5.9254-3.2487s-5.1966-2.7927-5.5843-3.1856c-0.7917-0.8022-1.4759-3.1583-1.3997-4.8197 0.1003-2.1828-2.1633-5.5718-4.8953-7.3292-0.7316-0.4706-1.357-0.9395-1.3896-1.0419-0.0327-0.1024-0.5162-0.7004-1.0745-1.3288s-1.2466-1.4436-1.5295-1.8117c-0.5714-0.743-3.0094-5.5874-5.0585-10.051-1.2307-2.6809-3.2665-5.9107-6.4837-10.287l-1.0725-1.4589c1.8485-1.9406 0.6537-3.7791-1.3448-4.1076-1.2072 0.0898-4.5248-2.5044-4.9701-3.5039-0.3863-0.8981-1.228-1.0162-2.9896-0.4195-1.9527 0.66141-2.1687 1.1946-0.89329 2.2049z"
        />
        <clipPath id="clip">
            <use href="#person"/>
        </clipPath>
    </defs>
    <use 
        href="#person"
        fill="none"
        stroke="#8B0000"
        stroke-width="0.5"
    />
    <g clip-path="url(#clip)">
        <text
            fill="#8b0000"
            font-family="Consolas, Menlo, Monaco, Courier New, monospace, serif"
            font-size="2.2px"
        >
            <tspan x="0" dy="0.8em">101010</tspan>
            <tspan x="0" dy="0.8em">1011101110</tspan>
            <tspan x="0" dy="0.8em">1110111011</tspan>
            <tspan x="0" dy="0.8em">10011100011</tspan>
            <tspan x="0" dy="0.8em">000101111000010101010101010101</tspan>
            <tspan x="0" dy="0.8em">00100100110001001001100100110</tspan>
            <tspan x="0" dy="0.8em">001001111000010011001110001110</tspan>
            <tspan x="0" dy="0.8em">1011101010111010011100011100111100</tspan>
            <tspan x="0" dy="0.8em">110110001111011000110110011100111001111</tspan>
            <tspan x="0" dy="0.8em">1101110011110111001111001101101111011000111</tspan>
            <tspan x="0" dy="0.8em">1010010101011011100110111011001110011111110011</tspan>
            <tspan x="0" dy="0.8em">10101101010111101001100110100110</tspan>
            <tspan x="0" dy="0.8em">10101010101111011011011011011011010</tspan>
            <tspan x="0" dy="0.8em">1110101010100101101001101010011010011</tspan>
            <tspan x="0" dy="0.8em">0001010100101111011101011011101101101</tspan>
            <tspan x="0" dy="0.8em">1110101001010101011010101101001100110</tspan>
            <tspan x="0" dy="0.8em">1011101101101101110110111011011011011</tspan>
            <tspan x="0" dy="0.8em">1011011011011001111011011011011001110011</tspan>
            <tspan x="0" dy="0.8em">101110110000110010101110110000110010011010111</tspan>
            <tspan x="0" dy="0.8em">1011011101011011111101101110101101111110000111</tspan>
            <tspan x="0" dy="0.8em">1000110010000011011110001100100000110111111000110</tspan>
            <tspan x="0" dy="0.8em">010010011110100101000111011110000001101111110111010</tspan>
            <tspan x="0" dy="0.8em">01111100010010010010010000110111011011111100001110</tspan>
            <tspan x="0" dy="0.8em">11110100010010000100101101010101010101011101110100110</tspan>
            <tspan x="0" dy="0.8em">10100001001001001001010001101011101101101000110111001010</tspan>
            <tspan x="0" dy="0.8em">1001000100111001011100101100111011101101101111110000101</tspan>
            <tspan x="0" dy="0.8em">0000111000111000110011100100111011111100110100011011100000</tspan>
            <tspan x="0" dy="0.8em">101000010001110100101000100110111010001100110111110110000011100</tspan>
            <tspan x="0" dy="0.8em">10100001001111000110011001110001110111110110011011101111110000000</tspan>
            <tspan x="0" dy="0.8em">10001110101101100100100100101010100101101110111000000000110110000111100</tspan>
            <tspan x="0" dy="0.8em">00010001011001110011011100100010010101100000000110101101111011101100111100001</tspan>
            <tspan x="0" dy="0.8em">01001001101100010000100100100010111010101101110110101101110111011100111000111101</tspan>
            <tspan x="0" dy="0.8em">01110111101110110101101110111011100111011111101111011101101011011101110111001110111</tspan>
            <tspan x="0" dy="0.8em">010110111011101110110111011100000111011001111011011101110111011011101110000011101100111</tspan>
            <tspan x="0" dy="0.8em">00000011101110111000100000000111110011011001110111110111011100010000000011111001101100111011</tspan>
            <tspan x="0" dy="0.8em">00010100010000100100100111110000010110110110011111011100000000111110000010110110110011111011</tspan>
            <tspan x="0" dy="0.8em">10010110110110101100110101001011011011010110011010010010011110010110110110101100110100100100111</tspan>
            <tspan x="0" dy="0.8em">1010110011010110111000011100011010110011010110111000011100010010010101100110101101110000111000100100</tspan>
            <tspan x="0" dy="0.8em">0010000011111011101110000111000100100101011001101011011100001110001011011100001010111010001110110111000</tspan>
            <tspan x="0" dy="0.8em">1101101110011100101001011101101101110011011011011011100111001010010101011101000111011011011101100011110110</tspan>
            <tspan x="0" dy="0.8em">0101100110101101110000111000100100101011001101011011100001110001001001011011011101101101101110110001111000111</tspan>
            <tspan x="0" dy="0.8em">11101101101110011011011011011110110110111001101101101101110011100101001011101101101110011011011011011100111001010010</tspan>
            <tspan x="0" dy="0.8em">011101111011101101011011101110111001110111111011110111011010110111011101110011101111010010010010010010100100100100100101010100100010</tspan>
            <tspan x="0" dy="0.8em">101011001101011011100001110001101011001101011011100001110001001001010110011010110111000011100010010011010101001000100101010100100010</tspan>
            <tspan x="0" dy="0.8em">011101111011101101011011101110111001110111111011110111011010110111011101110011101111010010010010010010010110110110101100110100100100111</tspan>
            <tspan x="0" dy="0.8em">01011001101011011100001110001001001010110011010110111000011100010010010110110111011011011011101100011101110110101101110111011100111000111101</tspan>
        </text>
    </g>
</svg>
