<svg
    xmlns="http://www.w3.org/2000/svg"
    aria-label="NTGA" 
    role="img"
    viewBox="0 0 113.061 28.919012"
>
    <g transform="translate(-33.365598,-124.61371)">
        <rect 
            fill="#c80000"
            width="112.83158"
            height="28.68959"
            x="33.480309"
            y="124.72842"
            ry="5.1051679"
            rx="0" 
        />
        <g fill="#ffffff">
            <path d="m 37.372395,151.10119 v -19.65476 h 2.88207 l 9.543899,14.45759 v -14.59934 h 2.882066 v 19.84375 H 50.081843 L 40.065475,136.02939 v 15.21354 z"/>
            <path d="m 55.23177,131.30468 h 10.347097 v 2.59859 h -3.590774 v 17.19792 h -2.83482 v -17.15067 l -3.909692,-0.0118 z"/>
            <path
                d="m 230.22461,25.496094 -29.29297,75.257816 h 12.12109 l 7.57618,-21.718754 h 29.54687 L 258.00391,100.5 h 12.62695 L 240.58008,25.496094 Z m 5.49414,15.089844 10.22656,26.958984 h -21.46484 z"
                transform="matrix(0.26458333,0,0,0.26458333,33.365598,124.61371)" 
            />
            <path d="m 101.06138,133.38356 h 42.33334 v 2.69308 h -41.2939 z"/>
            <path d="m 103.42373,139.90364 h 39.97099 v 2.64584 h -38.93155 z"/>
            <path d="m 105.78609,146.28199 h 37.56138 v 2.78758 h -36.61644 z"/>
            <path d="m 74.177226,141.23349 0.09853,-1.2e-4 c 1.165913,-0.002 12.286141,-0.0158 12.286117,-0.007 -0.01588,5.71619 -4.653626,10.3454 -10.373361,10.3454 -5.72907,0 -10.3734,-4.64433 -10.373399,-10.3734 -10e-7,-5.72907 4.644329,-10.3734 10.373399,-10.3734 3.955984,0 7.394764,2.21444 9.144367,5.47136 0.05179,0.0964 -3.723191,-0.0318 -3.67439,0.0664 -3.750356,-4.66426 -11.879691,-2.88478 -12.429876,4.59347 -0.242401,3.29478 2.232464,7.836 7.204871,7.60585 2.379476,-0.11014 4.845264,-1.01413 6.554697,-4.67907 l -8.798674,0.004 z"/>
            <path d="m 37.339322,127.00521 v 2.6789 H 143.47031 v -2.64583 z"/>
        </g>
    </g>
</svg>
