<svg
    xmlns="http://www.w3.org/2000/svg"
    aria-label="Outline of a person performing a crashdive"
    role="img"
    viewBox="0 0 77.967 79.367"
>
    <path
        d="m0.9303 2.707c1.4833 1.175 3.0204 3.3199 3.67 5.1213 0.24698 0.68495 0.63961 1.4346 0.87245 1.6658 0.23283 0.23125 1.0828 1.8348 1.8888 3.5634 1.1671 2.503 2.2144 5.4768 5.1438 14.606 3.5491 11.06 4.7561 14.418 5.3289 14.824 1.6633 2.4261 3.8982 4.5 5.3752 7.2461 0.2096 0.1406 0.7839 0.9822 1.3557 1.7164 0.5718 0.7341 1.8835 2.128 2.9149 3.0975s2.5631 2.492 3.4039 3.3833c1.0553 1.1189 1.9517 1.7891 2.8954 2.1647 0.7518 0.2993 2.6258 1.2126 4.1643 2.0297 2.2254 1.1817 3.2664 1.5529 5.0911 1.8154 0.8871 0.3788 2.5127 0.3063 3.1899 0.4848 0.3672 0.1028 0.3631 0.2456-0.024 0.8374-0.2568 0.3924-0.6134 0.9397-0.7926 1.2162-0.397 0.6128-0.0632 1.7716 0.742 2.5752 0.3283 0.3278 0.8026 1.0085 1.0541 1.5127 0.3765 0.7551 0.6261 0.9315 1.4158 1.0005 0.9324-0.0928 1.0692 0.2758 1.4003 0.8517 0.2428 0.4223 0.8577 1.0845 1.285 1.4065 2.8667 1.3256 8.8261 0.4795 8.7939-3.5276 4.1039 3.1232 9.8579 4.4175 13.317 7.514 0.8689 0.9122 0.9863 1.2079 1.7989 1.4075 0.5197-0.5736-0.6876-0.7101-0.3354-1.3076 0.9805-0.2943 2.3421 1.0449 2.8278 0.0138 0.139-0.3055 0.1644-0.8327 0.0564-1.1715-0.2023-0.6347-2.1435-2.0657-2.6034-1.9191-5.155-1.5278-9.4967-5.4281-13.218-9.2169-1.7575-5.5508-6.3035-4.0425-8.686-6.5965-1.2622-1.308-2.6439-2.5835-3.0703-2.8344-1.173-0.6902-3.4709-2.2202-4.6446-3.0925-0.5752-0.4276-3.2417-1.8895-5.9254-3.2487s-5.1966-2.7927-5.5843-3.1856c-0.7917-0.8022-1.4759-3.1583-1.3997-4.8197 0.1003-2.1828-2.1633-5.5718-4.8953-7.3292-0.7316-0.4706-1.357-0.9395-1.3896-1.0419-0.0327-0.1024-0.5162-0.7004-1.0745-1.3288s-1.2466-1.4436-1.5295-1.8117c-0.5714-0.743-3.0094-5.5874-5.0585-10.051-1.2307-2.6809-3.2665-5.9107-6.4837-10.287l-1.0725-1.4589c1.8485-1.9406 0.6537-3.7791-1.3448-4.1076-1.2072 0.0898-4.5248-2.5044-4.9701-3.5039-0.3863-0.8981-1.228-1.0162-2.9896-0.4195-1.9527 0.66141-2.1687 1.1946-0.89329 2.2049z"
        fill="none"
        stroke="#8B0000"
        stroke-width=".5"
    />
</svg>
