<svg xmlns="http://www.w3.org/2000/svg" aria-label="Shield" role="img" viewBox="0 0 111.811 122.88"><g><path fill="#8b0000" fill-rule="evenodd" clip-rule="evenodd" d="M55.713.0c20.848 13.215 39.682 19.467 55.846 17.989 2.823 57.098-18.263 90.818-55.63 104.891C19.844 109.708-1.5 77.439.083 17.123 19.058 18.116 37.674 14.014 55.713.0zM41.458 55.503h1.438v-3.331c0-3.689 1.454-7.051 3.797-9.494 2.361-2.462 5.622-3.991 9.214-3.991s6.854 1.529 9.214 3.991c2.343 2.443 3.797 5.805 3.797 9.494v3.331h1.438c1.167.0 2.123.955 2.123 2.123V80.06c0 1.168-.956 2.123-2.123 2.123H41.458c-1.168.0-2.123-.955-2.123-2.123V57.626C39.334 56.458 40.29 55.503 41.458 55.503zm5.458.0h17.981v-3.331c0-2.623-1.021-4.999-2.666-6.715-1.627-1.697-3.866-2.75-6.325-2.75-2.458.0-4.698 1.054-6.324 2.75-1.646 1.716-2.666 4.093-2.666 6.715v3.331zM54.164 70.281l-2.291 6h8.066l-2.122-6.082c1.347-.693 2.268-2.097 2.268-3.716.0-2.308-1.871-4.179-4.179-4.179s-4.178 1.871-4.178 4.179C51.728 68.168 52.726 69.62 54.164 70.281zM55.735 7.055c18.454 11.697 35.126 17.232 49.434 15.923 2.498 50.541-16.166 80.39-49.241 92.846C23.986 104.165 5.091 75.603 6.493 22.211 23.29 23.091 39.768 19.46 55.735 7.055z"/></g></svg>