<svg xmlns="http://www.w3.org/2000/svg" aria-label="ADO.NET" role="img" viewBox="0 0 68.142723 60.911442"><g fill="#02579a" transform="translate(-43.269717,-47.242702)"><path d="m48.79022 79.886444c3.36284-6.13821 8.206779-9.74715 17.673198-5.46232l2.472243-2.6894c-3.324413-4.632527-18.834902-11.392576-25.17345 2.48894.842368 1.66132 2.006896 3.41009 5.028009 5.66278z"/><path d="m43.394715 80.337454c2.704678 2.8152 8.913272 17.024801 33.922513-13.087866.13512-.162699 8.29552-7.36283 16.45779-7.157794 12.941262.299445 16.294452 8.248938 17.506162 17.90706-.88708-4.92659-3.40326-7.99134-7.81764-8.886714-11.951852-2.587352-23.894612 19.963223-42.228582 23.720122C50.993865 93.534229 46.108115 88.166849 43.394715 80.337454z"/><path d="m78.044368 88.216189 2.97657-2.315098c11.7489 8.040715 21.245662 2.989182 16.63095-13.796127 1.888032-.63411 3.672952-.6188 5.605202.13699 20.11986 10.7474-12.453782 31.383306-25.212722 15.974235z"/></g></svg>