<svg xmlns="http://www.w3.org/2000/svg" aria-label="APC" role="img" viewBox="0 0 561.29999 500.82628"><g fill="#ed1c24" transform="translate(0.3,170.02625)"><path d="M99.8 153 80 117.4h71.7l-36-76.3L62.8 153H-.3L82.4 2.1h66.5L231 153"/><path d="M231.4 65.3H310c19.9.0 27.8-1.2 27.8-15.2.0-13.5-6.4-15-26.9-15h-80L213.3 2h111.1c52.6.0 72 23 72 47.3.0 23.6-18 49.5-75.6 49.5h-26.3v54H231V65.3"/><path d="m561 141.6c-18.9 8.9-42.4 13.2-67.4 13.2-75.7.0-101.7-42.2-101.7-77C392 33.8 430.4.0 496.6.0a177 177 0 0162.9 10.4V54c-18.3-9.7-34.2-14-52.8-14C474.9 40 449 54.3 449 77.2c0 22.6 26.6 37.3 58.3 37.3 18.3.0 33.3-3.7 53.7-13.2"/></g></svg>