<svg xmlns="http://www.w3.org/2000/svg" aria-label="EF Core" role="img" viewBox="0 0 12.732276 12.732276"><g transform="translate(-134.98653,-78.869843)"><rect fill="#68217a" width="12.732277" height="12.732277" x="134.98653" y="78.869843"/><path fill="#fff" d="m140.29108 90.698591c.47724-.09754.93117-.326252 1.30053-.655266l.10438-.09298-.10963-.110912-.10962-.110911-.0561.04553c-.0309.02504-.11724.09562-.19191.156849-.18808.154193-.59643.352359-.87803.426089-.19748.05171-.28194.06087-.56828.06165-.37899.001-.54261-.0274-.87421-.151956-.71366-.26806-1.25865-.876313-1.46103-1.630609-.0561-.209067-.0622-.27172-.0634-.648925-.001-.35752.006-.446762.0502-.621039.19538-.772336.75448-1.396573 1.4919-1.665699.31195-.113847.48657-.143357.84493-.142794.27105 427e-6.36144.01013.5468.05868.41548.108836.75651.286073 1.03882.539894l.12033.108191.098-.11137c.0539-.06125.098-.117843.098-.125755.0-.03064-.26293-.245742-.44723-.365875-.63005-.410685-1.44006-.537196-2.18233-.340844-1.00953.267053-1.75862 1.081525-1.96668 2.138339-.0542.275116-.0532.829014.002 1.084959.0822.381577.22756.730588.43132 1.035302.14665.219321.55784.612355.79223.757256.58934.364336 1.32399.498109 1.98904.362186zm4.59704-1.382182c.0845-.03143.20188-.08547.26095-.120094l.1074-.06294v-.161389c0-.08876-.006-.16139-.0129-.16139-.007.0-.0827.04213-.16808.09361-.39895.24062-.8661.25896-1.16068.04557-.18217-.131961-.31281-.393669-.34284-.686771l-.0152-.148273h.934.93401l-.0168-.236876c-.0326-.459229-.13507-.722237-.36419-.934364-.16339-.151266-.33023-.218526-.58659-.236479-.47549-.0333-.89379.223119-1.10453.677067-.11106.239231-.13743.372227-.13743.693291.0.653879.27123 1.108186.75747 1.268757.20305.06706.69859.05097.91537-.02972zm-1.29922-1.595592c.0712-.316684.23702-.546104.47301-.654257.0918-.04205.15716-.0532.31314-.05338.17536-209e-6.21088.0074.32121.06848.0764.04234.15123.108221.19488.171664.0832.120913.15657.340794.15657.469149v.09071h-.73978-.73979zm-1.57367.828829c.0105-.853468.0172-.907019.14377-1.16581.26342-.305686.50123-.411099.80115-.265308l-.009-.381688c-.0459-.0051-.10817-.01322-.25875-.01351-.27192-526e-6-.47889.137418-.62598.4172l-.0549.104379-.001-.237752-.001-.237753h-.17397-.17396v1.287341 1.287341h.17211.1721z"/><g fill="#fff" transform="translate(-15.378906,-1.6867187)"><path d="m153.55637 81.616896h3.02735v.545179h-2.37954v1.417471h2.28016v.545178h-2.28016v1.73496h2.43726v.545178h-3.08507z"/><path d="m157.71598 81.616896h2.76497v.547841h-2.114v1.417953h1.9078v.547841h-1.9078v2.297718h-.65097z"/></g><circle fill="#40ccf4" cx="139.67519" cy="87.921288" r=".9343099"/></g></svg>