<svg xmlns="http://www.w3.org/2000/svg" aria-label="Junos OS" role="img" viewBox="0 0 595.82129 646.7193"><g fill="#fff" transform="translate(-731.0363,-23.76462)"><path d="m1087.8706 415.23267c32.7274-120.53142 61.0307-226.54949 62.8962-235.59572 1.8654-9.0463 3.6078-22.34491 3.8719-29.55246 2.9048-79.267908-74.9391-141.5086471-153.8994-123.051377-30.71837 7.18059-55.27343 24.547999-74.99733 53.044283-21.94591 31.706574-26.22111 60.042464-16.02201 106.192464 2.3318 10.55085 18.29941 72.20345 35.48331 137.00576 17.1841 64.80232 42.46596 160.40868 56.18213 212.45858 13.7161 52.04991 25.3978 95.53851 25.9595 96.64131.5615 1.1028 27.7982-96.61149 60.5257-217.14284z"/><path d="m1116.4676 331.42225c-86.79-89.37209-159.41363-160.11946-166.24713-166.29105-6.8337-6.17144-24.05-20.43525-30.15608-24.24322-67.1544-41.879878-159.0703-9.3077-184.67724 73.17291-6.42218 32.49209-7.52191 61.20455 9.24522 91.86732 17.73392 32.4308 40.1204 50.67039 85.6531 64.26273 10.40976 3.10745 70.11901 20.73088 135.60386 37.21899 65.48487 16.48793 159.67367 43.79439 212.22527 57.11587 52.5514 13.32162 95.2533 25.0464 96.5134 25.08269 1.2601.0364-71.3704-68.81409-158.1604-158.18624z"/><path d="m995.26943 432.37208c120.90297-31.22214 231.13567-62.48833 239.92017-65.35532 8.7844-2.86719 23.0827-9.09357 29.4822-12.46143 69.5863-39.55823 80.0569-128.65874 29.1235-189.96572-21.3107-23.64426-47.1349-38.32465-81.5971-41.56937-38.3445-3.61022-66.1519 6.36294-101.2975 38.46832-8.035 7.34-52.7772 52.7046-100.7236 100.32374-47.94633 47.61934-118.71879 117.81207-157.27206 155.98405-38.55338 38.17179-70.65661 70.26161-71.34059 71.31057-.68399 1.04896 92.80209-25.51293 213.70498-56.73484z"/><path d="m969.55543 279.50932c-31.73466 120.79659-59.16472 227.04392-60.95582 236.10519-1.7909 9.06134-3.4238 22.37385-3.6286 29.58333-2.2526 79.28912 76.10062 140.88735 154.90649 121.78111 30.6583-7.43307 55.0697-25.0019 74.5585-53.65949 21.6843-31.88604 25.7262-60.25615 15.1478-106.32068-2.4185-10.53131-18.8928-72.05046-36.6092-136.70921-17.7166-64.65876-43.7842-160.0539-57.9282-211.9892-14.1438-51.93532-26.183-95.326338-26.7536-96.424478-.5706-1.09815-27.0025 96.836908-58.73737 217.633428z"/><path d="m941.31207 366.38745c88.58653 88.0416 166.74523 165.06181 173.68603 171.15614 6.9409 6.09418 17.6388 14.18392 23.7731 17.97712 67.4648 41.71737 160.0539 4.82782 183.051-72.93177 8.9466-30.25129 5.9913-60.182-9.0261-91.41578-16.7091-34.75243-39.2254-52.47858-84.3825-66.43133-10.3239-3.18983-71.8083-19.79339-136.6318-36.8971-64.8236-17.10355-160.42643-42.39873-212.45083-56.21138-52.02432-13.81282-95.6012-25.16085-96.83743-25.21801-1.23621-.0572 70.23209 71.93037 158.81853 159.97211z"/><path d="m1058.2609 260.92063c-120.12813 31.71421-225.55329 60.03404-234.27808 62.9328-8.72477 2.89899-21.05791 8.03838-27.40689 11.42092-69.82568 37.20067-85.1589 136.74576-30.31398 196.80322 21.33668 23.36444 48.42485 36.21023 82.73392 39.23425 38.17417 3.36464 64.73017-7.09217 99.5222-39.18805 7.9541-7.33786 53.27863-52.27162 100.72133-99.85249 47.4427-47.58109 117.4722-117.71801 155.6212-155.85999 38.149-38.14181 69.9138-70.20469 70.5886-71.25064.6747-1.04597-97.0601 24.04597-217.1883 55.75998z"/></g><g fill="#456673" fill-opacity=".39215686" transform="translate(-807.0807,-48.42765)"><path fill-opacity=".65829145" d="m1163.915 439.8957c32.7274-120.53142 61.0307-226.54949 62.8962-235.59572 1.8654-9.0463 3.6078-22.34491 3.8719-29.55246 2.9048-79.267914-74.9391-141.508653-153.8994-123.051383-30.7184 7.18059-55.2735 24.547999-74.9974 53.044283-21.94591 31.70658-26.22111 60.04247-16.02201 106.19247 2.3318 10.55085 18.29941 72.20345 35.48331 137.00576 17.1841 64.80232 42.466 160.40868 56.1822 212.45858 13.7161 52.04991 25.3978 95.53851 25.9595 96.64131.5615 1.1028 27.7982-96.61149 60.5257-217.14284z"/><path d="m1192.512 356.08528c-86.79-89.37209-159.4137-160.11946-166.2472-166.29105-6.8337-6.17144-24.05-20.43525-30.15608-24.24322-67.1544-41.87988-159.0703-9.3077-184.67724 73.17291-6.42218 32.49209-7.52191 61.20455 9.24522 91.86732 17.73392 32.4308 40.1204 50.67039 85.6531 64.26273 10.40976 3.10745 70.11901 20.73088 135.6039 37.21899 65.4849 16.48793 159.6737 43.79439 212.2253 57.11587 52.5514 13.32162 95.2533 25.0464 96.5134 25.08269 1.2601.0364-71.3704-68.81409-158.1604-158.18624z"/><path d="m1071.3138 457.03511c120.903-31.22214 231.1357-62.48833 239.9202-65.35532 8.7844-2.86719 23.0827-9.09357 29.4822-12.46143 69.5863-39.55823 80.0569-128.65874 29.1235-189.96572-21.3107-23.64426-47.1349-38.32465-81.5971-41.56937-38.3445-3.61022-66.1519 6.36294-101.2975 38.46832-8.035 7.34-52.7772 52.7046-100.7236 100.32374-47.9464 47.61934-118.71886 117.81207-157.27213 155.98405-38.55338 38.17179-70.65661 70.26161-71.34059 71.31057-.68399 1.04896 92.80209-25.51293 213.70502-56.73484z"/><path d="m1045.5998 304.17235c-31.7347 120.79659-59.16476 227.04392-60.95586 236.10519-1.7909 9.06134-3.4238 22.37385-3.6286 29.58333-2.2526 79.28912 76.10066 140.88735 154.90656 121.78111 30.6583-7.43307 55.0697-25.0019 74.5585-53.65949 21.6843-31.88604 25.7262-60.25615 15.1478-106.32068-2.4185-10.53131-18.8928-72.05046-36.6092-136.70921-17.7166-64.65876-43.7842-160.0539-57.9282-211.9892-14.1438-51.93532-26.183-95.326344-26.7536-96.424484-.5706-1.09815-27.0025 96.836914-58.7374 217.633434z"/><path d="m1017.3564 391.05048c88.5866 88.0416 166.7453 165.06181 173.6861 171.15614 6.9409 6.09418 17.6388 14.18392 23.7731 17.97712 67.4648 41.71737 160.0539 4.82782 183.051-72.93177 8.9466-30.25129 5.9913-60.182-9.0261-91.41578-16.7091-34.75243-39.2254-52.47858-84.3825-66.43133-10.3239-3.18983-71.8083-19.79339-136.6318-36.8971-64.8236-17.10355-160.4265-42.39873-212.4509-56.21138-52.02432-13.81282-95.6012-25.16085-96.83743-25.21801-1.23621-.0572 70.23209 71.93037 158.81853 159.97211z"/><path d="m1134.3053 285.58366c-120.1282 31.71421-225.55336 60.03404-234.27815 62.9328-8.72477 2.89899-21.05791 8.03838-27.40689 11.42092-69.82568 37.20067-85.1589 136.74576-30.31398 196.80322 21.33668 23.36444 48.42485 36.21023 82.73392 39.23425 38.17417 3.36464 64.73017-7.09217 99.5222-39.18805 7.9541-7.33786 53.2787-52.27162 100.7214-99.85249 47.4427-47.58109 117.4722-117.71801 155.6212-155.85999 38.149-38.14181 69.9138-70.20469 70.5886-71.25064.6747-1.04597-97.0601 24.04597-217.1883 55.75998z"/></g></svg>