<svg xmlns="http://www.w3.org/2000/svg" aria-label="Node.js" role="img" viewBox="0 0 94.7005 107.4398"><defs><linearGradient id="grad-background" x1="180.7" y1="80.7" x2="142.6" y2="158.4" gradientUnits="userSpaceOnUse" gradientTransform="translate(-116.2995 -61.9301)"><stop offset="0" stop-color="#3f873f"/><stop offset=".3" stop-color="#3f8b3d"/><stop offset=".6" stop-color="#3e9637"/><stop offset=".9" stop-color="#3da92e"/><stop offset="1" stop-color="#3dae2b"/></linearGradient><linearGradient id="grad-infront" x1="114.9" y1="115.7" x2="212.3" y2="115.7" gradientUnits="userSpaceOnUse"><stop offset=".1" stop-color="#6abf4b"/><stop offset=".3" stop-color="#63b649"/><stop offset=".6" stop-color="#529f44"/><stop offset=".9" stop-color="#3f873f"/></linearGradient><linearGradient id="grad-behind" x1="157.2" y1="121.3" x2="264" y2="42.4" gradientUnits="userSpaceOnUse"><stop offset=".1" stop-color="#3f873f"/><stop offset=".4" stop-color="#529f44"/><stop offset=".7" stop-color="#63b649"/><stop offset=".9" stop-color="#6abf4b"/></linearGradient><clipPath id="clip-path" transform="translate(-.3)"><path fill="url(#b)" d="M166.1 62.6a5 5 0 00-5 0L118.8 87a5 5 0 00-2.5 4.4V140a5 5 0 002.5 4.4l42.1 24.3a5 5 0 005 0l42.2-24.3a5 5 0 002.6-4.4V91.3a5 5 0 00-2.6-4.4z"/></clipPath></defs><path fill="url(#grad-background)" fill-rule="evenodd" d="M49.8005.6699a5 5 0 00-5 0l-42.3 24.4a5 5 0 00-2.5 4.4v48.6a5 5 0 002.5 4.4l42.1 24.3a5 5 0 005 0l42.2-24.3a5 5 0 002.6-4.4v-48.7a5 5 0 00-2.6-4.4z"/><g clip-path="url(#clip-path)" transform="translate(-115.9995 -61.9301)"><path fill="url(#grad-behind)" transform="translate(-.3)" d="M208.3 87l-42.2-24.4a5 5 0 00-1.3-.5l-47.5 81.1a6 6 0 001.4 1.2l42.4 24.3a5.2 5.2.0 003.9.5l44.5-81.4a6 6 0 00-1.2-.9z"/><path fill="url(#grad-infront)" transform="translate(-.3)" d="M208.3 144.4a5.3 5.3.0 002.5-3.2L164.5 62a5.2 5.2.0 00-3.6.6L119 86.8l45.3 82.6a5.2 5.2.0 001.9-.7z"/></g></svg>