<svg xmlns="http://www.w3.org/2000/svg" aria-label="VBA" role="img" viewBox="0 0 170.82001 170.82001"><path d="m100.887 106.46402v-28.084l36.11 17.196v30.38l-36.11-19.49"/><path d="m100.887 78.37902 34.393-14.905 34.966 16.623-31.53 16.624-37.83-18.342"/><path d="m136.427 96.14802.57 29.807 33.823-16.62-.575-29.23-33.82 16.05"/><g style="fill:#952781" transform="translate(0,34.814019)"><path d="M103.754 69.36V47.003l32.098 15.478v24.08l-32.098-17.2"/><path d="m106.618 44.138 28.09-12.04 29.805 13.76-26.94 13.756-30.955-15.476"/><path d="M139.865 62.48V86.555L167.38 72.8V48.15l-27.515 14.33"/></g><path d="M49.3 77.23101V49.144019L85.41 66.34201v30.38l-36.11-19.49"/><path d="m49.3 49.144019 34.387-14.33 34.968 16.05L87.13 67.48801 49.3 49.144019"/><path d="m84.836 66.91401.573 29.807 33.82-16.624-.58-29.231991L84.83 66.91401"/><g fill="#6483c0" transform="translate(0,34.814019)"><path d="M52.165 40.125V17.77l32.098 15.477v24.65L52.165 40.124"/><path d="M55.027 14.904 83.117 2.867l29.808 13.756L85.983 30.38 55.027 14.905"/><path d="M88.276 33.247V57.322L115.79 43.565V19.49L88.276 33.246"/></g><path d="m0 104.74602v-28.087l35.54 17.195.573 30.385L0 104.74602"/><path d="m0 76.65902 34.392-14.903 34.968 16.623-32.1 16.625L0 76.65802"/><path d="m34.915 94.25615 1.198 29.98187 33.82-16.624-.574-29.235"/><g fill="#d87b30" transform="translate(0,34.814019)"><path d="M2.866 67.64V45.282l32.1 15.478v24.08l-32.1-17.2"/><path d="M5.16 42.417 33.82 30.38 63.628 44.14 36.685 57.896 5.16 42.416"/><path d="M38.405 60.76 38.98 84.838l27.514-13.76L65.921 46.43 38.411 60.76"/></g><path d="m52.165 108.75802v-28.086l35.537 17.196.574 30.95-36.11-20.06"/><path d="m52.165 80.67202 34.39-14.33 34.968 16.048-32.1 16.624-37.258-18.342"/><path d="m87.182124 98.41742 1.093876 30.4026 33.247-17.196v-29.234L86.903853 98.04045"/><g fill="#e0d400" transform="translate(0,34.814019)"><path d="M55.027 72.226V49.296L87.13 64.774v24.65L55.026 72.227"/><path d="M57.322 47.003l28.66-12.037L115.79 48.723 88.276 61.907 57.322 47.003"/><path d="M90.57 64.774 91.14 88.848l27.516-13.184L118.083 51.016 90.57 64.774"/></g></svg>