<?xml version="1.0" encoding="UTF-8" standalone="no"?>
<svg
   xmlns:dc="http://purl.org/dc/elements/1.1/"
   xmlns:cc="http://creativecommons.org/ns#"
   xmlns:rdf="http://www.w3.org/1999/02/22-rdf-syntax-ns#"
   xmlns:svg="http://www.w3.org/2000/svg"
   xmlns="http://www.w3.org/2000/svg"
   xmlns:sodipodi="http://sodipodi.sourceforge.net/DTD/sodipodi-0.dtd"
   xmlns:inkscape="http://www.inkscape.org/namespaces/inkscape"
   width="77.966888mm"
   height="79.366653mm"
   viewBox="0 0 77.966888 79.366653"
   version="1.1"
   id="crash-dive-svg"
   sodipodi:docname="crash-dive-binary-with-outline.svg"
   inkscape:export-filename="C:\Users\Jonathon.Smith\Desktop\crash-dive-logo.png"
   inkscape:export-xdpi="947.25598"
   inkscape:export-ydpi="947.25598"
   inkscape:version="0.92.0 r15299">
  <metadata
     id="metadata8">
    <rdf:RDF>
      <cc:Work
         rdf:about="">
        <dc:format>image/svg+xml</dc:format>
        <dc:type
           rdf:resource="http://purl.org/dc/dcmitype/StillImage" />
      </cc:Work>
    </rdf:RDF>
  </metadata>
  <defs
     id="defs6">
    <clipPath
       id="clip">
      <path
         inkscape:connector-curvature="0"
         d="m 73.771904,127.61796 c 1.483253,1.17496 3.02036,3.31994 3.669962,5.12129 0.246983,0.68495 0.639611,1.43455 0.872449,1.6658 0.232839,0.23125 1.082808,1.83479 1.888812,3.56343 1.167093,2.50306 2.214359,5.4768 5.143778,14.60582 3.549068,11.06009 4.756136,14.418 5.328935,14.82451 1.663285,2.4261 3.898197,4.5 5.375134,7.24607 0.209655,0.14061 0.783961,0.98227 1.355741,1.71642 0.571785,0.73415 1.883481,2.12803 2.914885,3.09752 1.03141,0.96947 2.56314,2.49196 3.40385,3.3833 1.05531,1.11887 1.95177,1.78907 2.89548,2.16471 0.7518,0.29925 2.62573,1.21258 4.16426,2.02963 2.22539,1.18178 3.26636,1.55299 5.09113,1.81547 0.88711,0.37873 2.51265,0.30622 3.18986,0.48481 0.36725,0.10275 0.36315,0.24558 -0.024,0.83734 -0.25677,0.3924 -0.61341,0.9397 -0.79255,1.21622 -0.39705,0.61284 -0.0632,1.77155 0.74194,2.57524 0.32833,0.32773 0.80267,1.00843 1.05409,1.51262 0.37656,0.75518 0.6261,0.93152 1.41586,1.00057 0.93242,-0.0928 1.06913,0.27579 1.40026,0.85166 0.24284,0.4223 0.85767,1.08447 1.28498,1.40647 2.86672,1.32559 8.82613,0.47954 8.79393,-3.5276 4.10386,3.12324 9.85792,4.41752 13.31677,7.51399 0.86898,0.91221 0.98634,1.20798 1.79891,1.4075 0.51973,-0.5736 -0.68761,-0.71001 -0.33541,-1.30755 0.98058,-0.2943 2.34212,1.04487 2.82783,0.0138 0.13902,-0.30553 0.1644,-0.83269 0.0564,-1.17146 -0.20234,-0.63478 -2.14347,-2.06574 -2.60337,-1.91915 -5.15502,-1.52779 -9.49671,-5.4281 -13.2181,-9.21687 -1.7575,-5.5508 -6.30353,-4.0425 -8.68603,-6.59651 -1.26223,-1.30804 -2.64385,-2.58354 -3.07026,-2.83443 -1.17301,-0.69017 -3.47092,-2.2202 -4.6446,-3.09251 -0.57527,-0.42758 -3.2417,-1.88948 -5.92541,-3.24869 -2.6837,-1.35922 -5.19666,-2.79272 -5.58433,-3.18556 -0.79172,-0.80226 -1.47594,-3.15836 -1.39965,-4.81969 0.10022,-2.18284 -2.16337,-5.57184 -4.89533,-7.32919 -0.731638,-0.47063 -1.356967,-0.9395 -1.389613,-1.04192 -0.03265,-0.10242 -0.516154,-0.70038 -1.074473,-1.32879 -0.558311,-0.62842 -1.246616,-1.44368 -1.529566,-1.8117 -0.571318,-0.74308 -3.009375,-5.58739 -5.058474,-10.05097 -1.230708,-2.68088 -3.266467,-5.9107 -6.483668,-10.28663 l -1.072564,-1.45887 c 1.848577,-1.94065 0.653751,-3.77912 -1.344799,-4.10762 -1.207193,0.0898 -4.524847,-2.50445 -4.970103,-3.50391 -0.386299,-0.8981 -1.227965,-1.01619 -2.989574,-0.4195 -1.952671,0.66141 -2.168677,1.19459 -0.893285,2.20491 z"
         id="crash-dive-path-7"
         transform="translate(-72.841567,-124.91138)" />
    </clipPath>
  </defs>
  <sodipodi:namedview
     pagecolor="#ffffff"
     bordercolor="#666666"
     borderopacity="1"
     objecttolerance="10"
     gridtolerance="10"
     guidetolerance="10"
     inkscape:pageopacity="0"
     inkscape:pageshadow="2"
     inkscape:window-width="1306"
     inkscape:window-height="768"
     id="namedview4"
     showgrid="false"
     inkscape:zoom="0.7867494"
     inkscape:cx="147.339"
     inkscape:cy="149.98423"
     inkscape:window-x="574"
     inkscape:window-y="288"
     inkscape:window-maximized="0"
     inkscape:current-layer="crash-dive-svg" />
  <path
     style="fill:#FFFFFF;fill-opacity:0;stroke:#8B0000;stroke-width:0.5;stroke-opacity:1"
     d="m 73.771904,127.61796 c 1.483253,1.17496 3.02036,3.31994 3.669962,5.12129 0.246983,0.68495 0.639611,1.43455 0.872449,1.6658 0.232839,0.23125 1.082808,1.83479 1.888812,3.56343 1.167093,2.50306 2.214359,5.4768 5.143778,14.60582 3.549068,11.06009 4.756136,14.418 5.328935,14.82451 1.663285,2.4261 3.898197,4.5 5.375134,7.24607 0.209655,0.14061 0.783961,0.98227 1.355741,1.71642 0.571785,0.73415 1.883481,2.12803 2.914885,3.09752 1.03141,0.96947 2.56314,2.49196 3.40385,3.3833 1.05531,1.11887 1.95177,1.78907 2.89548,2.16471 0.7518,0.29925 2.62573,1.21258 4.16426,2.02963 2.22539,1.18178 3.26636,1.55299 5.09113,1.81547 0.88711,0.37873 2.51265,0.30622 3.18986,0.48481 0.36725,0.10275 0.36315,0.24558 -0.024,0.83734 -0.25677,0.3924 -0.61341,0.9397 -0.79255,1.21622 -0.39705,0.61284 -0.0632,1.77155 0.74194,2.57524 0.32833,0.32773 0.80267,1.00843 1.05409,1.51262 0.37656,0.75518 0.6261,0.93152 1.41586,1.00057 0.93242,-0.0928 1.06913,0.27579 1.40026,0.85166 0.24284,0.4223 0.85767,1.08447 1.28498,1.40647 2.86672,1.32559 8.82613,0.47954 8.79393,-3.5276 4.10386,3.12324 9.85792,4.41752 13.31677,7.51399 0.86898,0.91221 0.98634,1.20798 1.79891,1.4075 0.51973,-0.5736 -0.68761,-0.71001 -0.33541,-1.30755 0.98058,-0.2943 2.34212,1.04487 2.82783,0.0138 0.13902,-0.30553 0.1644,-0.83269 0.0564,-1.17146 -0.20234,-0.63478 -2.14347,-2.06574 -2.60337,-1.91915 -5.15502,-1.52779 -9.49671,-5.4281 -13.2181,-9.21687 -1.7575,-5.5508 -6.30353,-4.0425 -8.68603,-6.59651 -1.26223,-1.30804 -2.64385,-2.58354 -3.07026,-2.83443 -1.17301,-0.69017 -3.47092,-2.2202 -4.6446,-3.09251 -0.57527,-0.42758 -3.2417,-1.88948 -5.92541,-3.24869 -2.6837,-1.35922 -5.19666,-2.79272 -5.58433,-3.18556 -0.79172,-0.80226 -1.47594,-3.15836 -1.39965,-4.81969 0.10022,-2.18284 -2.16337,-5.57184 -4.89533,-7.32919 -0.731638,-0.47063 -1.356967,-0.9395 -1.389613,-1.04192 -0.03265,-0.10242 -0.516154,-0.70038 -1.074473,-1.32879 -0.558311,-0.62842 -1.246616,-1.44368 -1.529566,-1.8117 -0.571318,-0.74308 -3.009375,-5.58739 -5.058474,-10.05097 -1.230708,-2.68088 -3.266467,-5.9107 -6.483668,-10.28663 l -1.072564,-1.45887 c 1.848577,-1.94065 0.653751,-3.77912 -1.344799,-4.10762 -1.207193,0.0898 -4.524847,-2.50445 -4.970103,-3.50391 -0.386299,-0.8981 -1.227965,-1.01619 -2.989574,-0.4195 -1.952671,0.66141 -2.168677,1.19459 -0.893285,2.20491 z"
     id="crash-dive-path"
     transform="translate(-72.841567,-124.91138)"
     inkscape:export-filename="C:\Users\Jonathon.Smith\Desktop\crash-dive-path.png"
     inkscape:export-xdpi="324.77484"
     inkscape:export-ydpi="324.77484" />
  <g
     transform="translate(0.00282858,-0.06569982)"
     clip-path="url(#clip)"
     id="g98"
     inkscape:export-filename="C:\Users\Jonathon.Smith\Desktop\crash-dive-path.png"
     inkscape:export-xdpi="324.77484"
     inkscape:export-ydpi="324.77484">
    <text
       id="crash-dive-binary"
       xml:space="preserve"
       style="font-style:normal;font-weight:normal;font-size:2.11666656px;line-height:0.5em;font-family:Sans;letter-spacing:0px;word-spacing:0px;fill:#8b0000;fill-opacity:1;stroke:none"
       x="0.084075175"
       y="1.8496466"><tspan
         x="0.084075175"
         y="1.8496466"
         id="tspan5">101010</tspan><tspan
         x="0.084075175"
         y="3.6273158"
         id="tspan7">1011101110</tspan><tspan
         x="0.084075175"
         y="5.404985"
         id="tspan9">0110111011</tspan><tspan
         x="0.084075175"
         y="7.1826544"
         id="tspan11">10011100011</tspan><tspan
         x="0.084075175"
         y="8.9603233"
         id="tspan13">   001111000010101010101010101</tspan><tspan
         x="0.084075175"
         y="10.737992"
         id="tspan15">     000110001001001100100110</tspan><tspan
         x="0.084075175"
         y="12.515662"
         id="tspan17">     0111000010011001110001110</tspan><tspan
         x="0.084075175"
         y="14.293331"
         id="tspan19">        00111010011100011100111100</tspan><tspan
         x="0.084075175"
         y="16.071001"
         id="tspan21">          11011000110110011100111001111</tspan><tspan
         x="0.084075175"
         y="17.848669"
         id="tspan23">          110111001111001101101111011000111</tspan><tspan
         x="0.084075175"
         y="19.626339"
         id="tspan25">            1011100110111011001110011111110011</tspan><tspan
         x="0.084075175"
         y="21.404009"
         id="tspan27">            01101001100110100110</tspan><tspan
         x="0.084075175"
         y="23.181677"
         id="tspan29">             1011011011011011011010</tspan><tspan
         x="0.084075175"
         y="24.959347"
         id="tspan31">             001101001101010011010011</tspan><tspan
         x="0.084075175"
         y="26.737015"
         id="tspan33">             011011101011011101101101</tspan><tspan
         x="0.084075175"
         y="28.514685"
         id="tspan35">               1011010101101001100110</tspan><tspan
         x="0.084075175"
         y="30.292355"
         id="tspan37">                 10110111011011011011</tspan><tspan
         x="0.084075175"
         y="32.070023"
         id="tspan39">                  1011011011011001110011</tspan><tspan
         x="0.084075175"
         y="33.847694"
         id="tspan41">                  101110110000110010011010111</tspan><tspan
         x="0.084075175"
         y="35.625362"
         id="tspan43">                   101101110101101111110000111</tspan><tspan
         x="0.084075175"
         y="37.40303"
         id="tspan45">                    00001100100000110111111000110</tspan><tspan
         x="0.084075175"
         y="39.180698"
         id="tspan47">                     011011110000001101111110111010</tspan><tspan
         x="0.084075175"
         y="40.95837"
         id="tspan49">                     00000110111011011111100001110</tspan><tspan
         x="0.084075175"
         y="42.736038"
         id="tspan51">                      0101010101010101011101110100110</tspan><tspan
         x="0.084075175"
         y="44.513706"
         id="tspan53">                         0101011101101101000110111001010</tspan><tspan
         x="0.084075175"
         y="46.291378"
         id="tspan55">                           011011101101101111110000101</tspan><tspan
         x="0.084075175"
         y="48.069046"
         id="tspan57">                            011011111100110100011011100000</tspan><tspan
         x="0.084075175"
         y="49.846714"
         id="tspan59">                             011010001100110111110110000011100</tspan><tspan
         x="0.084075175"
         y="51.624386"
         id="tspan61">                               0110111110110011011101111110000000</tspan><tspan
         x="0.084075175"
         y="53.402054"
         id="tspan63">                                   001101110111000000000110110000111100</tspan><tspan
         x="0.084075175"
         y="55.179722"
         id="tspan65">                                     000000000110101101111011101100111100001</tspan><tspan
         x="0.084075175"
         y="56.957394"
         id="tspan67">                                        1101110110101101110111011100111000111101</tspan><tspan
         x="0.084075175"
         y="58.735062"
         id="tspan69">                                          01101111011101101011011101110111001110111</tspan><tspan
         x="0.084075175"
         y="60.51273"
         id="tspan71">                                            1011011101110111011011101110000011101100111</tspan><tspan
         x="0.084075175"
         y="62.290401"
         id="tspan73">                                                 0110111011100010000000011111001101100111011</tspan><tspan
         x="0.084075175"
         y="64.068069"
         id="tspan75">                                                     100000000111110000010110110110011111011</tspan><tspan
         x="0.084075175"
         y="65.845741"
         id="tspan77">                                                            00010110110110101100110100100100111</tspan><tspan
         x="0.084075175"
         y="67.623405"
         id="tspan79">                                                                 10101100110101101110000111000100100</tspan><tspan
         x="0.084075175"
         y="69.401077"
         id="tspan81">                                                                  1011011100001010111010001110110111000</tspan><tspan
         x="0.084075175"
         y="71.178749"
         id="tspan83">                                                                   101011101000111011011011101100011110110</tspan><tspan
         x="0.084075175"
         y="72.956413"
         id="tspan85">                                                                     1011011011101101101101110110001111000111</tspan><tspan
         x="0.084075175"
         y="74.734085"
         id="tspan87">                                                                        01101101101110011011011011011100111001010010</tspan><tspan
         x="0.084075175"
         y="76.511757"
         id="tspan89">                                                                                                    10100100100100100101010100100010</tspan><tspan
         x="0.084075175"
         y="78.289421"
         id="tspan91">                                                                                                    01010101001000100101010100100010</tspan><tspan
         x="0.084075175"
         y="80.067093"
         id="tspan93">                                                                                                    00010110110110101100110100100100111</tspan><tspan
         x="0.084075175"
         y="81.830978"
         id="tspan95">                                                                                                    1101110110101101110111011100111000111101</tspan></text>
  </g>
</svg>
