<svg
    xmlns="http://www.w3.org/2000/svg"
    aria-label="Fleet Assist" 
    role="img"
    viewBox="0 0 153.21449 44.878551"
>
    <defs>
        <clipPath
            id="clip-hand-line=cap"
            clipPathUnits="userSpaceOnUse"
        >
            <rect
                transform="matrix(0.99999967,-8.0807898e-4,0,-1,0,0)"
                y="-964.099"
                x="1019.1764"
                height="33.752934"
                width="115.28173"
            />
        </clipPath>
    </defs>
    <g
        fill="#0d3141"
        transform="matrix(1.33333,0,0,-1.33333,-1358.898,1284.364)"
        clip-path="url(#clip-hand-line=cap)"
    >
        <path
            d="m 1064.3776,930.32739 c 1.2,1.3 2,2.9 2.4,4.7 l 4.6,22 a 7,7 0 0 0 6.8,5.6 h 55.2 v -25.5 c 0,-3.8 -3,-6.8 -7,-6.8 z"
            fill="#ffffff"
            stroke="#0d3141"
            stroke-width="1.41921496" 
        />
        <path d="m 1075.1776,946.52739 h 3.1 l 1.4,6.8 h 2.2 l 0.5,2.1 h -2.2 l 0.1,0.6 c 0.2,0.9 0.6,1.4 1.4,1.4 l 1,-0.1 0.6,2 c -0.4,0.2 -0.9,0.3 -1.6,0.3 -2.4,0 -3.9,-1 -4.4,-3.6 l -0.1,-0.6 h -2 l -0.4,-2.1 h 1.9 z"/>
        <path d="m 1082.0776,946.52739 h 3.1 l 2.7,12.9 h -3.1 z"/>
        <path d="m 1091.1776,951.82739 c 0.3,1 1,1.9 2.1,1.9 1.3,0 1.6,-0.9 1.4,-1.9 z m 5.9,-1.7 0.1,0.5 c 0.6,2.7 -0.2,5 -3.5,5 a 5.7,5.7 0 0 1 -5.7,-4.6 c -0.6,-3 1.3,-4.7 4.2,-4.7 1.1,0 2.3,0.2 3.4,0.6 l 0.4,2.1 c -1,-0.5 -2,-0.6 -2.8,-0.6 -1.5,0 -2.4,0.4 -2.3,1.7 z"/>
        <path d="m 1101.7776,951.82739 c 0.2,1 0.9,1.9 2,1.9 1.2,0 1.5,-0.9 1.3,-1.9 z m 5.7,-1.7 0.2,0.5 c 0.5,2.7 -0.2,5 -3.5,5 a 5.7,5.7 0 0 1 -5.8,-4.6 c -0.6,-3 1.3,-4.7 4.3,-4.7 1.1,0 2.3,0.2 3.4,0.6 l 0.4,2.1 c -1,-0.5 -2,-0.6 -2.9,-0.6 -1.5,0 -2.3,0.4 -2.2,1.7 z"/>
        <path d="m 1114.6776,948.42739 h -0.5 c -1,0 -1.2,0.5 -1,1.6 l 0.8,3.3 h 2.1 l 0.5,2.1 h -2.2 l 0.6,3 -3.2,-1 -0.4,-2 h -1.8 l -0.5,-2.1 h 1.8 l -0.8,-3.7 c -0.4,-2 0,-3.3 2.7,-3.3 0.8,0 0.9,0.1 1.5,0.2 z"/>
        <path d="m 1088.0776,935.42739 c -0.8,0 -1.6,0.5 -1.6,1.3 0,1.8 2,2.1 3.4,2.1 h 1.3 c -0.2,-1.6 -1.3,-3.4 -3,-3.4 m -1.6,6.4 a 6,6 0 0 0 2.9,0.8 c 1.3,0 2.2,-0.5 2.2,-1.9 l -0.1,-0.6 h -1.3 c -3.2,0 -5.6,-0.7 -5.6,-3.4 0,-1.8 1.4,-2.7 3,-2.7 1.3,0 2.5,0.7 3.1,1.8 l -0.3,-1.6 h 1.7 c 0.2,1.7 0.6,3.5 1,5.3 l 0.1,1.5 c 0,2.3 -1.8,3 -3.7,3 -0.7,0 -1.9,-0.2 -2.7,-0.5 z"/>
        <path d="m 1101.7776,943.52739 c -0.7,0.3 -1.6,0.5 -2.4,0.5 -1.6,0 -3.6,-0.8 -3.6,-2.8 0,-2.4 3.2,-2.6 3.2,-4.3 0,-1 -1,-1.5 -2,-1.5 -0.7,0 -1.5,0.3 -2.1,0.6 l -0.4,-1.5 c 0.7,-0.3 1.3,-0.5 2.8,-0.5 1.5,0 3.6,0.8 3.6,3 0,2.7 -3.2,2.8 -3.2,4.4 0,1 1,1.2 1.7,1.2 0.7,0 1.5,-0.2 2,-0.5 z"/>
        <path d="m 1109.1776,943.52739 c -0.8,0.3 -1.7,0.5 -2.5,0.5 -1.6,0 -3.6,-0.8 -3.6,-2.8 0,-2.4 3.2,-2.6 3.2,-4.3 0,-1 -1,-1.5 -2,-1.5 -0.7,0 -1.5,0.3 -2.2,0.6 l -0.3,-1.5 c 0.7,-0.3 1.3,-0.5 2.8,-0.5 1.5,0 3.6,0.8 3.6,3 0,2.7 -3.3,2.8 -3.3,4.4 0,1 1,1.2 1.8,1.2 0.7,0 1.4,-0.2 2,-0.5 z"/>
        <path d="m 1109.8776,934.22739 h 1.8 l 2,9.6 h -1.7 z"/>
        <path d="m 1121.5776,943.52739 c -0.7,0.3 -1.6,0.5 -2.4,0.5 -1.6,0 -3.6,-0.8 -3.6,-2.8 0,-2.4 3.2,-2.6 3.2,-4.3 0,-1 -1,-1.5 -2,-1.5 -0.8,0 -1.5,0.3 -2.2,0.6 l -0.3,-1.5 c 0.7,-0.3 1.3,-0.5 2.8,-0.5 1.5,0 3.6,0.8 3.6,3 0,2.7 -3.3,2.8 -3.3,4.4 0,1 1,1.2 1.8,1.2 0.7,0 1.4,-0.2 2,-0.5 z"/>
        <path d="m 1122.7776,942.42739 h 2 l -0.8,-4 -0.3,-2.3 c 0,-1 0.6,-2 2.3,-2 l 1.7,0.1 0.3,1.5 c -0.4,-0.2 -0.9,-0.3 -1.3,-0.3 -0.9,0 -1.2,0.4 -1.2,1 l 0.2,1.9 1,4 h 2.6 l 0.3,1.5 h -2.7 l 0.6,2.9 -1.9,-0.7 -0.4,-2.2 h -2.2 z"/>
        <path
            d="m 1019.5776,940.82739 v 15.2 c 0,4 3.2,7 7,7 h 42.3 c -1.2,-1.4 -2.1,-3 -2.5,-4.7 l -4.7,-22.6 a 7,7 0 0 0 -7,-5.7 h -35.1 v 2.7 z"
            stroke="#0d3141"
            stroke-width="0.81979501" 
        />
        <g
            stroke="#ffffff"
            stroke-width="1.19884002"
            transform="translate(-1.2224333,0.12738932)"
        >
            <path d="m 1027.8,955.6 c -1.2,-0.4 -1.3,-1.4 -1.3,-1.4 v -2.8 c 0,-1 3.5,-1.5 3.5,-1.5 h 24.8 c 0,0 3.7,0 5,0.7 1.3,0.7 1,2.4 0.8,3 -0.2,0.7 -4,1.6 -6.4,2 -2.3,0.4 -3,0.8 -5.7,2.6 -2.8,1.7 -4.4,1.6 -4.4,1.6 h -8.8 c 0,0 -0.7,0 -1.2,-0.6 -0.6,-0.4 -2.2,-3 -2.2,-3 l -4,-0.6 z"/>
            <path d="m 1050,949.9 a 3.2,3.2 0 1 0 6.4,0 3.2,3.2 0 0 0 -6.4,0 z"/>
            <path d="m 1031,949.9 a 3.25,3.25 0 1 0 6.5,0 3.25,3.25 0 0 0 -6.5,0 z"/>
            <path
                d="m 1019.8,947.4 c 0,0 3,0.9 5.8,0.9 2.9,0 8.6,-2.8 12.6,-2.3 3.8,0.5 9.4,1.5 10,-1.4 l 0.4,0.2 c 0,0 2.3,2 7,2 4.5,0 5.6,-2.2 5.6,-2.9 0,-2.1 -3,-1.9 -5.1,-1.8 -2.2,0 -4.7,-1 -5.4,-2 -0.8,-1 -3.6,-2.5 -6.6,-3 -4.6,-0.9 -6.8,-4.1 -9.9,-4.1 -4.7,0 -8,2.7 -14.4,2.7 m 28.5,9 v -0.8 c 0,-3.7 -5.9,-2.8 -8.2,-2.6 -2.4,0.2 -5.2,0.7 -13.3,-1.6"
                fill="#0d3141"
                stroke-linecap="round" 
            />
        </g>
    </g>
</svg>
