<svg xmlns="http://www.w3.org/2000/svg" aria-label="Latimer Arts College" role="img" viewBox="0 0 140.69 140.69"><path fill="#a5372a" d="M69.8 140.11c-1.14-.77-2.16-2.78-2.3-4.55l-.13-1.4 2.88-.11c4.27-.16 6.47-1.37 7.92-4.34.64-1.3.7-1.66.59-3.62a8.27 8.27.0 00-3.75-6.85l-1.04-.76.77.01c3 .02 5.63 3.47 5.87 7.7.18 3.16-.6 5.43-2.55 7.37-1.89 1.89-3.23 2.39-6.44 2.39-1.28.0-2.33.06-2.33.14.0.94 1.62 2.94 3.09 3.8.42.24.43.32.08.55-.65.43-1.72.3-2.65-.33zm-10.85-25.4c-1.76-1.19-2.82-3.78-2.46-6.03.16-1.04-.07-1.04-.07-1.04 4.15.05 8.8-.28 13.5-.36 4.17.06 8.4-.17 12.5-.38l-1.65-2.17c-3.76-5.4-6.85-10.42-8.9-16.42-.12.0-1.87.53-3.9 1.2-11.78 3.84-19.36 4.34-28.18 1.83-5.1-1.45-9.02-3.96-9.7-6.2-.61-2.07 1.28-4.33 5.3-6.33.92-.46 1.74-.78 1.81-.7.3.3-.78 1.5-2.11 2.36-2.13 1.37-2.43 1.82-2.4 3.55.0 1.1.13 1.57.5 1.83 1.7 2.14 6.56 2.54 8.8 2.74.12.0 1.77.12 3.64.27 3.92.32 9.29.02 14.32-.8 3.24-.53 10.65-2.3 10.99-2.61.1-.1-.15-1.82-.55-3.82-.41-2-.82-3.56-.9-3.47-.1.09-.1-.07-.03-.35s-.06-1.75-.28-3.26c-.87-5.89-1.21-10.68-1.4-19.32l-.16-7.83 2.75-.59c10.03-2.15 21.72-3.47 30.72-3.47h4.71v1.86c0 4.42-1.1 17.7-1.76 21.23l-.16.86 1.37-1.53c2.82-3.42 5.57-6.3 7.58-10.35a20.8 20.8.0 002.33-10.48c-.01-3.1-.11-3.89-.74-5.95-1.01-3.35-2.06-5.17-4.1-7.1a18.5 18.5.0 00-7.84-4.2c-2.83-.78-9.89-.85-12.56-.13-4.44 1.21-7.52 2.94-10.07 5.67-1.46 1.56-1.63 1.67-1.46.98.87-3.5 4.33-7.5 8.1-9.34 3.57-1.74 5-2.02 10.18-2.02 3.87.0 4.81.08 6.75.61 6.37 1.73 11.66 5.67 13.82 10.3 1.3 2.75 1.52 4.05 1.52 8.76.0 4.1-.04 4.45-.78 6.67a37.83 37.83.0 01-1.7 4.14c-2.17 4.31-6.5 9.9-10.84 14.04-1.33 1.27-2.02 2.12-2.02 2.51-.01 1.12-1.56 7.32-2.66 10.64l-1.26 3.34-.94-.03c-2.07.0-6.28-.78-8.58-1.6a65.1 65.1.0 00-2.83-.94c-.34-.08-1.64.46-3.58 1.5-1.67.9-3.09 1.7-3.15 1.75-.42.36 3.36 6.6 4.93 8.14 1.3 1.28 4.25 2.93 5.77 3.21l.81.13-1.69 2.18a170.9 170.9.0 01-4.8 5.43l-3.01 3.28 1.96-.17c8.14-.75 14.23-2.62 17.08-5.25 1.92-1.76 2.56-3.09 2.69-5.6.14-2.63-.34-4.7-1.77-7.6l-1.02-2.08h1.09c1.55.0 2.9.44 3.7 1.19.67.62.7.75.7 3.5-.02 8.3-3.4 13.22-10.73 15.65-4.45 1.48-10.82 2.14-20.63 2.15-7.96.01-16.23.75-17.56 1.57-.75.47 1.2 2.86 3.15 3.86.88.46 1 .79.37 1.03-.8.3-1.62.16-2.51-.44zm22.14-32.9 2.72-1.2 1.15-.5-1.55-1c-.86-.56-2.2-1.58-3-2.26-1.33-1.14-1.49-1.2-1.8-.8-.45.64-.41 3.23.07 4.63.62 1.78.64 1.82.75 1.82.06.0.81-.31 1.66-.7zM91.12 63.6c4.28-1.08 5.28-1.14 7.58-.42 2.37.75 2.6.72 2.6-.35.0-1.8-1.95-3.26-5.56-4.17-2.93-.74-8.45-.62-11.13.25-4.23 1.37-6 4.28-3.35 5.49 1.4.64 5.45.31 9.86-.8zM31.65 62c-2.71-.8-6.15-2.48-7.52-3.68a5.97 5.97.0 01-2.2-4.8c.02-3.14 1.93-6.34 6.6-10.98 4.84-4.84 9.5-8.42 24.22-18.63C62.96 16.82 66.26 14.35 69 11.7l2.22-2.13-.43-1.46C69.96 5.3 67.22 3.1 63.4 2.2c-3.14-.74-8.04-.35-10.29.81-1.08.56-1.19.35-.34-.66C54.52.28 57.96-.5 61.67.32c3.65.81 8.17 3.5 9.64 5.73.7 1.06.71 1.12.39 2.72-.98 4.74-4.76 9.35-11.54 14.06-3.22 2.23-5.4 3.52-13.63 8.08a336.9 336.9.0 00-9.45 5.39c-5.38 3.33-8.9 6.5-10.52 9.43-.74 1.34-.8 1.65-.8 4.1.0 2.55.04 2.7 1 4.5 1.11 2.09 3.38 4.72 5.92 6.88.94.8 1.56 1.44 1.37 1.43-.2-.01-1.27-.3-2.4-.63z"/><path fill="#1b1917" d="M68.04 118.13c-3.42-2.52-10.07-7.84-9.74-8.15.89-.73 9.65-1.25 18.9-1.35l6.3-.18-2.2 2.05c-4.84 4.49-10.31 8.78-11.23 8.78-.25.0-1.16-.52-2.03-1.15zm-14-13.2c-4.53-5.16-9.81-12.44-9.23-12.63l1.84.32s6.2 8.21 9.3 11.64l3.04 3.38h-2.57zm4.95 2.72c0-.1 1-1.45 1.92-2.49 3.62-4.1 9.4-12.22 10.6-14.92.28-.62.57-1.12.66-1.12s.25.89.78 1.78c1.88 3.16 4.78 8.74 7.99 13.61l1.56 2.45c-.35.18-16.26 2.74-23.5.7zm26.15-3.8c5.28-5.68 8.78-10.06 11.9-15.17 2.57-4.22 4.36-9.72 5.76-16.5.64-3.1.9-3.27 1.86-4.1.55-.48 1.03-1.1 1.06-1.08.11.1-1 5.99-1.64 8.52-1.69 6.73-3.59 11.1-7.24 16.68-4.1 6.24-12.05 14.96-12.35 14.65-4.07 1.42-2.28.16.65-3zm-43.01-15.2L41 86.2c-3.44-7.48-5.58-18.75-6.37-34-.15-2.76-.26-6.7-.27-8.77.0-3.35.05-3.77.47-3.9.9-.27 7.12-1.47 10.4-2 16.38-2.66 31.71-2.7 49.85-.12 4.1.58 10.21 1.65 12.27 2.15l.63.15-.18 4.93c-.22 5.84-.8 13.44-1.34 17.55-.38 2.93-.23 3.58-1.48 4.03l-1.16 1.2.04-1.1c.13-3.68 1.5-16.72 1.8-21.1l.14-1.88h-4.71c-2.59.0-6.29.3-8.24.44-3.74.3-13.47 1.63-13.47 1.63s.05-1.8.1-2.7l-1.13-.32c-1.72-.51-11.82-2.16-16.87-2.76-9.4-1.11-11.02-1.04-20.67.84l-4.28.83-.15.96c-.23 1.42.3 14.35.76 19.07.65 6.41 2.16 15.4 2.76 16.37.56.92 10.33 1.05 14.11.19 4.41-1 9-3.27 12.36-6.12 1.17-.99 1.78-1.35 2-1.17.16.14.88 1.68 1 3.6l.25 3.54-.9 1.48c-.8 1.34-6.94 8.34-7.72 8.77a41.25 41.25.0 01-18.87.66zm18.03-29.46a59 59 0 01-4.69-1.03c-3.63-.93-5.1-.99-7.4-.27-.91.3-1.8.53-1.97.53-.52.0-.64-.78-.25-1.7.95-2.28 5.25-3.86 10.53-3.85 4.7.01 9.06 1.51 10.12 3.49 1.34 2.5-1.1 3.58-6.34 2.83z"/></svg>